<svg xmlns="http://www.w3.org/2000/svg" xmlns:xlink="http://www.w3.org/1999/xlink" contentStyleType="text/css" data-diagram-type="ACTIVITY" height="1778px" preserveAspectRatio="none" style="width:1490px;height:1778px;background:#FFFFFF;" version="1.1" viewBox="0 0 1490 1778" width="1490px" zoomAndPan="magnify"><?plantuml 1.2026.3beta6?><defs/><g><rect fill="none" height="20.9531" style="stroke:none;stroke-width:1;" width="1443.7759" x="20" y="17.7451"/><ellipse cx="255.1816" cy="53.6982" fill="#222222" rx="10" ry="10" style="stroke:#222222;stroke-width:1;"/><rect fill="#F1F1F1" height="33.9688" rx="12.5" ry="12.5" style="stroke:#181818;stroke-width:0.5;" width="130.8711" x="189.7461" y="83.6982"/><text fill="#000000" font-family="sans-serif" font-size="12" lengthAdjust="spacing" textLength="110.8711" x="199.7461" y="104.8369">Visit Landing Page</text><rect fill="#F1F1F1" height="33.9688" rx="12.5" ry="12.5" style="stroke:#181818;stroke-width:0.5;" width="193.332" x="158.5156" y="137.667"/><text fill="#000000" font-family="sans-serif" font-size="12" lengthAdjust="spacing" textLength="173.332" x="168.5156" y="158.8057">View Scoreboard &amp; Rankings</text><rect fill="#F1F1F1" height="33.9688" rx="12.5" ry="12.5" style="stroke:#181818;stroke-width:0.5;" width="128.9844" x="190.6895" y="191.6357"/><text fill="#000000" font-family="sans-serif" font-size="12" lengthAdjust="spacing" textLength="108.9844" x="200.6895" y="212.7744">View Event Status</text><rect fill="#F1F1F1" height="33.9688" rx="12.5" ry="12.5" style="stroke:#181818;stroke-width:0.5;" width="122.4219" x="193.9707" y="294.0068"/><text fill="#000000" font-family="sans-serif" font-size="12" lengthAdjust="spacing" textLength="102.4219" x="203.9707" y="315.1455">Register Account</text><rect fill="#F1F1F1" height="33.9688" rx="12.5" ry="12.5" style="stroke:#181818;stroke-width:0.5;" width="52.584" x="228.8896" y="347.9756"/><text fill="#000000" font-family="sans-serif" font-size="12" lengthAdjust="spacing" textLength="32.584" x="238.8896" y="369.1143">Login</text><polygon fill="#F1F1F1" points="207.1157,401.9443,303.2476,401.9443,315.2476,413.9443,303.2476,425.9443,207.1157,425.9443,195.1157,413.9443,207.1157,401.9443" style="stroke:#181818;stroke-width:0.5;"/><text fill="#000000" font-family="sans-serif" font-size="11" lengthAdjust="spacing" textLength="96.1318" x="207.1157" y="417.7524">Login successful?</text><text fill="#000000" font-family="sans-serif" font-size="11" lengthAdjust="spacing" textLength="19.0083" x="176.1074" y="411.3501">yes</text><text fill="#000000" font-family="sans-serif" font-size="11" lengthAdjust="spacing" textLength="13.7017" x="315.2476" y="411.3501">no</text><polygon fill="#F1F1F1" points="71.23,445.9443,101.2651,445.9443,113.2651,457.9443,101.2651,469.9443,71.23,469.9443,59.23,457.9443,71.23,445.9443" style="stroke:#181818;stroke-width:0.5;"/><text fill="#000000" font-family="sans-serif" font-size="11" lengthAdjust="spacing" textLength="30.0352" x="71.23" y="461.7524">Role?</text><text fill="#000000" font-family="sans-serif" font-size="11" lengthAdjust="spacing" textLength="34.23" x="25" y="455.3501">Player</text><text fill="#000000" font-family="sans-serif" font-size="11" lengthAdjust="spacing" textLength="35.2505" x="113.2651" y="455.3501">Admin</text><polygon fill="#F1F1F1" points="196.1667,245.6045,314.1965,245.6045,326.1965,257.6045,314.1965,269.6045,196.1667,269.6045,184.1667,257.6045,196.1667,245.6045" style="stroke:#181818;stroke-width:0.5;"/><text fill="#000000" font-family="sans-serif" font-size="11" lengthAdjust="spacing" textLength="19.0083" x="259.1816" y="279.8149">yes</text><text fill="#000000" font-family="sans-serif" font-size="11" lengthAdjust="spacing" textLength="118.0298" x="196.1667" y="261.4126">Wants to participate?</text><text fill="#000000" font-family="sans-serif" font-size="11" lengthAdjust="spacing" textLength="13.7017" x="326.1965" y="255.0103">no</text><line style="stroke:#000000;stroke-width:1.5;" x1="20" x2="20" y1="17.7451" y2="1757.2769"/><rect fill="#F1F1F1" height="33.9688" rx="12.5" ry="12.5" style="stroke:#181818;stroke-width:0.5;" width="196.2617" x="388.8477" y="489.9443"/><text fill="#000000" font-family="sans-serif" font-size="12" lengthAdjust="spacing" textLength="176.2617" x="398.8477" y="511.083">Browse Challenge Categories</text><rect fill="#F1F1F1" height="33.9688" rx="12.5" ry="12.5" style="stroke:#181818;stroke-width:0.5;" width="157.9648" x="407.9961" y="556.9131"/><text fill="#000000" font-family="sans-serif" font-size="12" lengthAdjust="spacing" textLength="137.9648" x="417.9961" y="578.0518">View Challenge Details</text><rect fill="#F1F1F1" height="33.9688" rx="12.5" ry="12.5" style="stroke:#181818;stroke-width:0.5;" width="174.4766" x="399.7402" y="610.8818"/><text fill="#000000" font-family="sans-serif" font-size="12" lengthAdjust="spacing" textLength="154.4766" x="409.7402" y="632.0205">Download Challenge Files</text><rect fill="#F1F1F1" height="33.9688" rx="12.5" ry="12.5" style="stroke:#181818;stroke-width:0.5;" width="91.5898" x="441.1836" y="724.8818"/><text fill="#000000" font-family="sans-serif" font-size="12" lengthAdjust="spacing" textLength="71.5898" x="451.1836" y="746.0205">Submit Flag</text><rect fill="#F1F1F1" height="33.9688" rx="12.5" ry="12.5" style="stroke:#181818;stroke-width:0.5;" width="98.3105" x="579.0361" y="1014.7568"/><text fill="#000000" font-family="sans-serif" font-size="12" lengthAdjust="spacing" textLength="78.3105" x="589.0361" y="1035.8955">Validate Flag</text><polygon fill="#F1F1F1" points="592.4951,1083.7256,663.8877,1083.7256,675.8877,1095.7256,663.8877,1107.7256,592.4951,1107.7256,580.4951,1095.7256,592.4951,1083.7256" style="stroke:#181818;stroke-width:0.5;"/><text fill="#000000" font-family="sans-serif" font-size="11" lengthAdjust="spacing" textLength="71.3926" x="592.4951" y="1099.5337">Flag correct?</text><text fill="#000000" font-family="sans-serif" font-size="11" lengthAdjust="spacing" textLength="19.0083" x="561.4868" y="1093.1313">yes</text><text fill="#000000" font-family="sans-serif" font-size="11" lengthAdjust="spacing" textLength="13.7017" x="675.8877" y="1093.1313">no</text><rect fill="#F1F1F1" height="33.9688" rx="12.5" ry="12.5" style="stroke:#181818;stroke-width:0.5;" width="98.2168" x="482.6475" y="1117.7256"/><text fill="#000000" font-family="sans-serif" font-size="12" lengthAdjust="spacing" textLength="78.2168" x="492.6475" y="1138.8643">Award Points</text><rect fill="#F1F1F1" height="33.9688" rx="12.5" ry="12.5" style="stroke:#181818;stroke-width:0.5;" width="156.4004" x="453.5557" y="1171.6943"/><text fill="#000000" font-family="sans-serif" font-size="12" lengthAdjust="spacing" textLength="136.4004" x="463.5557" y="1192.833">Update Personal Score</text><rect fill="#F1F1F1" height="33.9688" rx="12.5" ry="12.5" style="stroke:#181818;stroke-width:0.5;" width="194.8789" x="434.3164" y="1225.6631"/><text fill="#000000" font-family="sans-serif" font-size="12" lengthAdjust="spacing" textLength="174.8789" x="444.3164" y="1246.8018">Update Scoreboard Rankings</text><rect fill="#F1F1F1" height="33.9688" rx="12.5" ry="12.5" style="stroke:#181818;stroke-width:0.5;" width="114.1074" x="474.7021" y="1279.6318"/><text fill="#000000" font-family="sans-serif" font-size="12" lengthAdjust="spacing" textLength="94.1074" x="484.7021" y="1300.7705">Log Submission</text><rect fill="#F1F1F1" height="33.9688" rx="12.5" ry="12.5" style="stroke:#181818;stroke-width:0.5;" width="163.0098" x="450.251" y="1333.6006"/><text fill="#000000" font-family="sans-serif" font-size="12" lengthAdjust="spacing" textLength="143.0098" x="460.251" y="1354.7393">View Solved Challenges</text><rect fill="#F1F1F1" height="33.9688" rx="12.5" ry="12.5" style="stroke:#181818;stroke-width:0.5;" width="141.6816" x="460.915" y="1387.5693"/><text fill="#000000" font-family="sans-serif" font-size="12" lengthAdjust="spacing" textLength="121.6816" x="470.915" y="1408.708">View Personal Score</text><rect fill="#F1F1F1" height="33.9688" rx="12.5" ry="12.5" style="stroke:#181818;stroke-width:0.5;" width="150.8633" x="649.1953" y="1117.7256"/><text fill="#000000" font-family="sans-serif" font-size="12" lengthAdjust="spacing" textLength="130.8633" x="659.1953" y="1138.8643">Log incorrect attempt</text><polygon fill="#F1F1F1" points="628.1914,1427.5381,640.1914,1439.5381,628.1914,1451.5381,616.1914,1439.5381,628.1914,1427.5381" style="stroke:#181818;stroke-width:0.5;"/><polygon fill="#F1F1F1" points="486.9785,667.8818,498.9785,679.8818,486.9785,691.8818,474.9785,679.8818,486.9785,667.8818" style="stroke:#181818;stroke-width:0.5;"/><polygon fill="#F1F1F1" points="439.0093,1505.5381,534.9478,1505.5381,546.9478,1517.5381,534.9478,1529.5381,439.0093,1529.5381,427.0093,1517.5381,439.0093,1505.5381" style="stroke:#181818;stroke-width:0.5;"/><text fill="#000000" font-family="sans-serif" font-size="11" lengthAdjust="spacing" textLength="95.9385" x="439.0093" y="1521.3462">More challenges?</text><text fill="#000000" font-family="sans-serif" font-size="11" lengthAdjust="spacing" textLength="19.0083" x="546.9478" y="1514.9438">yes</text><rect fill="#F1F1F1" height="33.9688" rx="12.5" ry="12.5" style="stroke:#181818;stroke-width:0.5;" width="141.6816" x="416.1377" y="1570.937"/><text fill="#000000" font-family="sans-serif" font-size="12" lengthAdjust="spacing" textLength="121.6816" x="426.1377" y="1592.0757">View Personal Score</text><rect fill="#F1F1F1" height="33.9688" rx="12.5" ry="12.5" style="stroke:#181818;stroke-width:0.5;" width="61.2969" x="456.3301" y="1624.9058"/><text fill="#000000" font-family="sans-serif" font-size="12" lengthAdjust="spacing" textLength="41.2969" x="466.3301" y="1646.0444">Logout</text><ellipse cx="486.9785" cy="1689.8745" fill="none" rx="11" ry="11" style="stroke:#222222;stroke-width:1;"/><ellipse cx="486.9785" cy="1689.8745" fill="#222222" rx="6" ry="6" style="stroke:#222222;stroke-width:1;"/><line style="stroke:#000000;stroke-width:1.5;" x1="355.8477" x2="355.8477" y1="17.7451" y2="1757.2769"/><rect fill="#F1F1F1" height="33.9688" rx="12.5" ry="12.5" style="stroke:#181818;stroke-width:0.5;" width="165.3652" x="927.1396" y="827.2529"/><text fill="#000000" font-family="sans-serif" font-size="12" lengthAdjust="spacing" textLength="145.3652" x="937.1396" y="848.3916">Show "Event not active"</text><ellipse cx="1009.8223" cy="907.2217" fill="none" rx="11" ry="11" style="stroke:#222222;stroke-width:1;"/><ellipse cx="1009.8223" cy="907.2217" fill="#222222" rx="6" ry="6" style="stroke:#222222;stroke-width:1;"/><polygon fill="#F1F1F1" points="962.033,778.8506,1057.6116,778.8506,1069.6116,790.8506,1057.6116,802.8506,962.033,802.8506,950.033,790.8506,962.033,778.8506" style="stroke:#181818;stroke-width:0.5;"/><text fill="#000000" font-family="sans-serif" font-size="11" lengthAdjust="spacing" textLength="13.7017" x="1013.8223" y="813.061">no</text><text fill="#000000" font-family="sans-serif" font-size="11" lengthAdjust="spacing" textLength="95.5786" x="962.033" y="794.6587">Event is running?</text><polygon fill="#F1F1F1" points="966.2144,970.7568,1053.4302,970.7568,1065.4302,982.7568,1053.4302,994.7568,966.2144,994.7568,954.2144,982.7568,966.2144,970.7568" style="stroke:#181818;stroke-width:0.5;"/><text fill="#000000" font-family="sans-serif" font-size="11" lengthAdjust="spacing" textLength="87.2158" x="966.2144" y="986.5649">Already solved?</text><text fill="#000000" font-family="sans-serif" font-size="11" lengthAdjust="spacing" textLength="19.0083" x="935.2061" y="980.1626">yes</text><text fill="#000000" font-family="sans-serif" font-size="11" lengthAdjust="spacing" textLength="13.7017" x="1065.4302" y="980.1626">no</text><rect fill="#F1F1F1" height="33.9688" rx="12.5" ry="12.5" style="stroke:#181818;stroke-width:0.5;" width="117.1016" x="810.0586" y="1014.7568"/><text fill="#000000" font-family="sans-serif" font-size="12" lengthAdjust="spacing" textLength="97.1016" x="820.0586" y="1035.8955">Reject duplicate</text><polygon fill="#F1F1F1" points="1009.8223,1461.5381,1021.8223,1473.5381,1009.8223,1485.5381,997.8223,1473.5381,1009.8223,1461.5381" style="stroke:#181818;stroke-width:0.5;"/><line style="stroke:#000000;stroke-width:1.5;" x1="804.0586" x2="804.0586" y1="17.7451" y2="1757.2769"/><rect fill="#F1F1F1" height="33.9688" rx="12.5" ry="12.5" style="stroke:#181818;stroke-width:0.5;" width="140.2871" x="1150.1836" y="489.9443"/><text fill="#000000" font-family="sans-serif" font-size="12" lengthAdjust="spacing" textLength="120.2871" x="1160.1836" y="511.083">Access Admin Panel</text><rect fill="#F1F1F1" height="33.9688" rx="12.5" ry="12.5" style="stroke:#181818;stroke-width:0.5;" width="185.6445" x="1127.5049" y="613.9131"/><text fill="#000000" font-family="sans-serif" font-size="12" lengthAdjust="spacing" textLength="165.6445" x="1137.5049" y="635.0518">Manage Challenges (CRUD)</text><rect fill="#F1F1F1" height="33.9688" rx="12.5" ry="12.5" style="stroke:#181818;stroke-width:0.5;" width="156.875" x="1141.8896" y="670.9131"/><text fill="#000000" font-family="sans-serif" font-size="12" lengthAdjust="spacing" textLength="136.875" x="1151.8896" y="692.0518">Upload Challenge Files</text><rect fill="#F1F1F1" height="33.9688" rx="12.5" ry="12.5" style="stroke:#181818;stroke-width:0.5;" width="105.084" x="1167.7852" y="724.8818"/><text fill="#000000" font-family="sans-serif" font-size="12" lengthAdjust="spacing" textLength="85.084" x="1177.7852" y="746.0205">Manage Users</text><rect fill="#F1F1F1" height="33.9688" rx="12.5" ry="12.5" style="stroke:#181818;stroke-width:0.5;" width="152.8848" x="1143.8848" y="778.8506"/><text fill="#000000" font-family="sans-serif" font-size="12" lengthAdjust="spacing" textLength="132.8848" x="1153.8848" y="799.9893">Start / Stop CTF Event</text><rect fill="#F1F1F1" height="33.9688" rx="12.5" ry="12.5" style="stroke:#181818;stroke-width:0.5;" width="146.1465" x="1147.2539" y="847.8193"/><text fill="#000000" font-family="sans-serif" font-size="12" lengthAdjust="spacing" textLength="126.1465" x="1157.2539" y="868.958">View All Submissions</text><rect fill="#F1F1F1" height="33.9688" rx="12.5" ry="12.5" style="stroke:#181818;stroke-width:0.5;" width="126.6113" x="1157.0215" y="916.7881"/><text fill="#000000" font-family="sans-serif" font-size="12" lengthAdjust="spacing" textLength="106.6113" x="1167.0215" y="937.9268">Reset Scoreboard</text><rect fill="#F1F1F1" height="33.9688" rx="12.5" ry="12.5" style="stroke:#181818;stroke-width:0.5;" width="61.2969" x="1189.6787" y="972.8896"/><text fill="#000000" font-family="sans-serif" font-size="12" lengthAdjust="spacing" textLength="41.2969" x="1199.6787" y="994.0283">Logout</text><polygon fill="#F1F1F1" points="1220.3271,556.9131,1232.3271,568.9131,1220.3271,580.9131,1208.3271,568.9131,1220.3271,556.9131" style="stroke:#181818;stroke-width:0.5;"/><polygon fill="#F1F1F1" points="1171.2542,1054.8584,1269.4001,1054.8584,1281.4001,1066.8584,1269.4001,1078.8584,1171.2542,1078.8584,1159.2542,1066.8584,1171.2542,1054.8584" style="stroke:#181818;stroke-width:0.5;"/><text fill="#000000" font-family="sans-serif" font-size="11" lengthAdjust="spacing" textLength="98.146" x="1171.2542" y="1070.6665">Admin continues?</text><text fill="#000000" font-family="sans-serif" font-size="11" lengthAdjust="spacing" textLength="19.0083" x="1281.4001" y="1064.2642">yes</text><ellipse cx="1220.3271" cy="1137.6631" fill="none" rx="11" ry="11" style="stroke:#222222;stroke-width:1;"/><ellipse cx="1220.3271" cy="1137.6631" fill="#222222" rx="6" ry="6" style="stroke:#222222;stroke-width:1;"/><rect fill="#F1F1F1" height="33.9688" rx="12.5" ry="12.5" style="stroke:#181818;stroke-width:0.5;" width="118.7656" x="1339.1494" y="445.9443"/><text fill="#000000" font-family="sans-serif" font-size="12" lengthAdjust="spacing" textLength="98.7656" x="1349.1494" y="467.083">Show login error</text><ellipse cx="1398.5322" cy="525.9131" fill="none" rx="11" ry="11" style="stroke:#222222;stroke-width:1;"/><ellipse cx="1398.5322" cy="525.9131" fill="#222222" rx="6" ry="6" style="stroke:#222222;stroke-width:1;"/><ellipse cx="1312.6707" cy="257.6045" fill="none" rx="11" ry="11" style="stroke:#222222;stroke-width:1;"/><ellipse cx="1312.6707" cy="257.6045" fill="#222222" rx="6" ry="6" style="stroke:#222222;stroke-width:1;"/><line style="stroke:#000000;stroke-width:1.5;" x1="1121.5049" x2="1121.5049" y1="17.7451" y2="1757.2769"/><line style="stroke:#000000;stroke-width:1.5;" x1="1461.915" x2="1461.915" y1="17.7451" y2="1757.2769"/><line style="stroke:#181818;stroke-width:1;" x1="255.1816" x2="255.1816" y1="63.6982" y2="83.6982"/><polygon fill="#181818" points="251.1816,73.6982,255.1816,83.6982,259.1816,73.6982,255.1816,77.6982" style="stroke:#181818;stroke-width:1;"/><line style="stroke:#181818;stroke-width:1;" x1="255.1816" x2="255.1816" y1="117.667" y2="137.667"/><polygon fill="#181818" points="251.1816,127.667,255.1816,137.667,259.1816,127.667,255.1816,131.667" style="stroke:#181818;stroke-width:1;"/><line style="stroke:#181818;stroke-width:1;" x1="255.1816" x2="255.1816" y1="171.6357" y2="191.6357"/><polygon fill="#181818" points="251.1816,181.6357,255.1816,191.6357,259.1816,181.6357,255.1816,185.6357" style="stroke:#181818;stroke-width:1;"/><line style="stroke:#181818;stroke-width:1;" x1="255.1816" x2="255.1816" y1="327.9756" y2="347.9756"/><polygon fill="#181818" points="251.1816,337.9756,255.1816,347.9756,259.1816,337.9756,255.1816,341.9756" style="stroke:#181818;stroke-width:1;"/><line style="stroke:#181818;stroke-width:1;" x1="195.1157" x2="86.2476" y1="413.9443" y2="413.9443"/><line style="stroke:#181818;stroke-width:1;" x1="86.2476" x2="86.2476" y1="413.9443" y2="445.9443"/><polygon fill="#181818" points="82.2476,435.9443,86.2476,445.9443,90.2476,435.9443,86.2476,439.9443" style="stroke:#181818;stroke-width:1;"/><line style="stroke:#181818;stroke-width:1;" x1="255.1816" x2="255.1816" y1="381.9443" y2="401.9443"/><polygon fill="#181818" points="251.1816,391.9443,255.1816,401.9443,259.1816,391.9443,255.1816,395.9443" style="stroke:#181818;stroke-width:1;"/><line style="stroke:#181818;stroke-width:1;" x1="255.1816" x2="255.1816" y1="269.6045" y2="294.0068"/><polygon fill="#181818" points="251.1816,284.0068,255.1816,294.0068,259.1816,284.0068,255.1816,288.0068" style="stroke:#181818;stroke-width:1;"/><line style="stroke:#181818;stroke-width:1;" x1="255.1816" x2="255.1816" y1="225.6045" y2="245.6045"/><polygon fill="#181818" points="251.1816,235.6045,255.1816,245.6045,259.1816,235.6045,255.1816,239.6045" style="stroke:#181818;stroke-width:1;"/><line style="stroke:#181818;stroke-width:1;" x1="486.9785" x2="486.9785" y1="523.9131" y2="556.9131"/><polygon fill="#181818" points="482.9785,546.9131,486.9785,556.9131,490.9785,546.9131,486.9785,550.9131" style="stroke:#181818;stroke-width:1;"/><line style="stroke:#181818;stroke-width:1;" x1="486.9785" x2="486.9785" y1="590.8818" y2="610.8818"/><polygon fill="#181818" points="482.9785,600.8818,486.9785,610.8818,490.9785,600.8818,486.9785,604.8818" style="stroke:#181818;stroke-width:1;"/><line style="stroke:#181818;stroke-width:1;" x1="531.7559" x2="531.7559" y1="1151.6943" y2="1171.6943"/><polygon fill="#181818" points="527.7559,1161.6943,531.7559,1171.6943,535.7559,1161.6943,531.7559,1165.6943" style="stroke:#181818;stroke-width:1;"/><line style="stroke:#181818;stroke-width:1;" x1="531.7559" x2="531.7559" y1="1205.6631" y2="1225.6631"/><polygon fill="#181818" points="527.7559,1215.6631,531.7559,1225.6631,535.7559,1215.6631,531.7559,1219.6631" style="stroke:#181818;stroke-width:1;"/><line style="stroke:#181818;stroke-width:1;" x1="531.7559" x2="531.7559" y1="1259.6318" y2="1279.6318"/><polygon fill="#181818" points="527.7559,1269.6318,531.7559,1279.6318,535.7559,1269.6318,531.7559,1273.6318" style="stroke:#181818;stroke-width:1;"/><line style="stroke:#181818;stroke-width:1;" x1="531.7559" x2="531.7559" y1="1313.6006" y2="1333.6006"/><polygon fill="#181818" points="527.7559,1323.6006,531.7559,1333.6006,535.7559,1323.6006,531.7559,1327.6006" style="stroke:#181818;stroke-width:1;"/><line style="stroke:#181818;stroke-width:1;" x1="531.7559" x2="531.7559" y1="1367.5693" y2="1387.5693"/><polygon fill="#181818" points="527.7559,1377.5693,531.7559,1387.5693,535.7559,1377.5693,531.7559,1381.5693" style="stroke:#181818;stroke-width:1;"/><line style="stroke:#181818;stroke-width:1;" x1="580.4951" x2="531.7559" y1="1095.7256" y2="1095.7256"/><line style="stroke:#181818;stroke-width:1;" x1="531.7559" x2="531.7559" y1="1095.7256" y2="1117.7256"/><polygon fill="#181818" points="527.7559,1107.7256,531.7559,1117.7256,535.7559,1107.7256,531.7559,1111.7256" style="stroke:#181818;stroke-width:1;"/><line style="stroke:#181818;stroke-width:1;" x1="675.8877" x2="724.627" y1="1095.7256" y2="1095.7256"/><line style="stroke:#181818;stroke-width:1;" x1="724.627" x2="724.627" y1="1095.7256" y2="1117.7256"/><polygon fill="#181818" points="720.627,1107.7256,724.627,1117.7256,728.627,1107.7256,724.627,1111.7256" style="stroke:#181818;stroke-width:1;"/><line style="stroke:#181818;stroke-width:1;" x1="531.7559" x2="531.7559" y1="1421.5381" y2="1439.5381"/><line style="stroke:#181818;stroke-width:1;" x1="531.7559" x2="616.1914" y1="1439.5381" y2="1439.5381"/><polygon fill="#181818" points="606.1914,1435.5381,616.1914,1439.5381,606.1914,1443.5381,610.1914,1439.5381" style="stroke:#181818;stroke-width:1;"/><line style="stroke:#181818;stroke-width:1;" x1="724.627" x2="724.627" y1="1151.6943" y2="1439.5381"/><line style="stroke:#181818;stroke-width:1;" x1="724.627" x2="640.1914" y1="1439.5381" y2="1439.5381"/><polygon fill="#181818" points="650.1914,1435.5381,640.1914,1439.5381,650.1914,1443.5381,646.1914,1439.5381" style="stroke:#181818;stroke-width:1;"/><line style="stroke:#181818;stroke-width:1;" x1="628.1914" x2="628.1914" y1="1048.7256" y2="1083.7256"/><polygon fill="#181818" points="624.1914,1073.7256,628.1914,1083.7256,632.1914,1073.7256,628.1914,1077.7256" style="stroke:#181818;stroke-width:1;"/><line style="stroke:#181818;stroke-width:1;" x1="486.9785" x2="486.9785" y1="691.8818" y2="724.8818"/><polygon fill="#181818" points="482.9785,714.8818,486.9785,724.8818,490.9785,714.8818,486.9785,718.8818" style="stroke:#181818;stroke-width:1;"/><line style="stroke:#181818;stroke-width:1;" x1="427.0093" x2="374.8477" y1="1517.5381" y2="1517.5381"/><polygon fill="#181818" points="370.8477,1138.7764,374.8477,1128.7764,378.8477,1138.7764,374.8477,1134.7764" style="stroke:#181818;stroke-width:1;"/><line style="stroke:#181818;stroke-width:1;" x1="374.8477" x2="374.8477" y1="679.8818" y2="1517.5381"/><line style="stroke:#181818;stroke-width:1;" x1="374.8477" x2="474.9785" y1="679.8818" y2="679.8818"/><polygon fill="#181818" points="464.9785,675.8818,474.9785,679.8818,464.9785,683.8818,468.9785,679.8818" style="stroke:#181818;stroke-width:1;"/><line style="stroke:#181818;stroke-width:1;" x1="486.9785" x2="486.9785" y1="644.8506" y2="667.8818"/><polygon fill="#181818" points="482.9785,657.8818,486.9785,667.8818,490.9785,657.8818,486.9785,661.8818" style="stroke:#181818;stroke-width:1;"/><line style="stroke:#181818;stroke-width:1;" x1="486.9785" x2="486.9785" y1="1529.5381" y2="1570.937"/><polygon fill="#181818" points="482.9785,1560.937,486.9785,1570.937,490.9785,1560.937,486.9785,1564.937" style="stroke:#181818;stroke-width:1;"/><text fill="#000000" font-family="sans-serif" font-size="11" lengthAdjust="spacing" textLength="13.7017" x="490.9785" y="1550.8428">no</text><line style="stroke:#181818;stroke-width:1;" x1="486.9785" x2="486.9785" y1="1604.9058" y2="1624.9058"/><polygon fill="#181818" points="482.9785,1614.9058,486.9785,1624.9058,490.9785,1614.9058,486.9785,1618.9058" style="stroke:#181818;stroke-width:1;"/><line style="stroke:#181818;stroke-width:1;" x1="486.9785" x2="486.9785" y1="1658.8745" y2="1678.8745"/><polygon fill="#181818" points="482.9785,1668.8745,486.9785,1678.8745,490.9785,1668.8745,486.9785,1672.8745" style="stroke:#181818;stroke-width:1;"/><line style="stroke:#181818;stroke-width:1;" x1="1009.8223" x2="1009.8223" y1="861.2217" y2="896.2217"/><polygon fill="#181818" points="1005.8223,886.2217,1009.8223,896.2217,1013.8223,886.2217,1009.8223,890.2217" style="stroke:#181818;stroke-width:1;"/><line style="stroke:#181818;stroke-width:1;" x1="1009.8223" x2="1009.8223" y1="802.8506" y2="827.2529"/><polygon fill="#181818" points="1005.8223,817.2529,1009.8223,827.2529,1013.8223,817.2529,1009.8223,821.2529" style="stroke:#181818;stroke-width:1;"/><line style="stroke:#181818;stroke-width:1;" x1="1069.6116" x2="1102.5049" y1="790.8506" y2="790.8506"/><polygon fill="#181818" points="1098.5049,859.7373,1102.5049,869.7373,1106.5049,859.7373,1102.5049,863.7373" style="stroke:#181818;stroke-width:1;"/><line style="stroke:#181818;stroke-width:1;" x1="1102.5049" x2="1102.5049" y1="790.8506" y2="948.624"/><line style="stroke:#181818;stroke-width:1;" x1="1102.5049" x2="1009.8223" y1="948.624" y2="948.624"/><line style="stroke:#181818;stroke-width:1;" x1="1009.8223" x2="1009.8223" y1="948.624" y2="970.7568"/><polygon fill="#181818" points="1005.8223,960.7568,1009.8223,970.7568,1013.8223,960.7568,1009.8223,964.7568" style="stroke:#181818;stroke-width:1;"/><line style="stroke:#181818;stroke-width:1;" x1="954.2144" x2="868.6094" y1="982.7568" y2="982.7568"/><line style="stroke:#181818;stroke-width:1;" x1="868.6094" x2="868.6094" y1="982.7568" y2="1014.7568"/><polygon fill="#181818" points="864.6094,1004.7568,868.6094,1014.7568,872.6094,1004.7568,868.6094,1008.7568" style="stroke:#181818;stroke-width:1;"/><line style="stroke:#181818;stroke-width:1;" x1="868.6094" x2="868.6094" y1="1048.7256" y2="1473.5381"/><line style="stroke:#181818;stroke-width:1;" x1="868.6094" x2="997.8223" y1="1473.5381" y2="1473.5381"/><polygon fill="#181818" points="987.8223,1469.5381,997.8223,1473.5381,987.8223,1477.5381,991.8223,1473.5381" style="stroke:#181818;stroke-width:1;"/><line style="stroke:#181818;stroke-width:1;" x1="1220.3271" x2="1220.3271" y1="647.8818" y2="670.9131"/><polygon fill="#181818" points="1216.3271,660.9131,1220.3271,670.9131,1224.3271,660.9131,1220.3271,664.9131" style="stroke:#181818;stroke-width:1;"/><line style="stroke:#181818;stroke-width:1;" x1="1220.3271" x2="1220.3271" y1="704.8818" y2="724.8818"/><polygon fill="#181818" points="1216.3271,714.8818,1220.3271,724.8818,1224.3271,714.8818,1220.3271,718.8818" style="stroke:#181818;stroke-width:1;"/><line style="stroke:#181818;stroke-width:1;" x1="1220.3271" x2="1220.3271" y1="758.8506" y2="778.8506"/><polygon fill="#181818" points="1216.3271,768.8506,1220.3271,778.8506,1224.3271,768.8506,1220.3271,772.8506" style="stroke:#181818;stroke-width:1;"/><line style="stroke:#181818;stroke-width:1;" x1="1220.3271" x2="1220.3271" y1="812.8193" y2="847.8193"/><polygon fill="#181818" points="1216.3271,837.8193,1220.3271,847.8193,1224.3271,837.8193,1220.3271,841.8193" style="stroke:#181818;stroke-width:1;"/><line style="stroke:#181818;stroke-width:1;" x1="1220.3271" x2="1220.3271" y1="881.7881" y2="916.7881"/><polygon fill="#181818" points="1216.3271,906.7881,1220.3271,916.7881,1224.3271,906.7881,1220.3271,910.7881" style="stroke:#181818;stroke-width:1;"/><line style="stroke:#181818;stroke-width:1;" x1="1220.3271" x2="1220.3271" y1="950.7568" y2="972.8896"/><polygon fill="#181818" points="1216.3271,962.8896,1220.3271,972.8896,1224.3271,962.8896,1220.3271,966.8896" style="stroke:#181818;stroke-width:1;"/><line style="stroke:#181818;stroke-width:1;" x1="1220.3271" x2="1220.3271" y1="580.9131" y2="613.9131"/><polygon fill="#181818" points="1216.3271,603.9131,1220.3271,613.9131,1224.3271,603.9131,1220.3271,607.9131" style="stroke:#181818;stroke-width:1;"/><line style="stroke:#181818;stroke-width:1;" x1="1281.4001" x2="1325.1494" y1="1066.8584" y2="1066.8584"/><polygon fill="#181818" points="1321.1494,805.835,1325.1494,795.835,1329.1494,805.835,1325.1494,801.835" style="stroke:#181818;stroke-width:1;"/><line style="stroke:#181818;stroke-width:1;" x1="1325.1494" x2="1325.1494" y1="568.9131" y2="1066.8584"/><line style="stroke:#181818;stroke-width:1;" x1="1325.1494" x2="1232.3271" y1="568.9131" y2="568.9131"/><polygon fill="#181818" points="1242.3271,564.9131,1232.3271,568.9131,1242.3271,572.9131,1238.3271,568.9131" style="stroke:#181818;stroke-width:1;"/><line style="stroke:#181818;stroke-width:1;" x1="1220.3271" x2="1220.3271" y1="1006.8584" y2="1054.8584"/><polygon fill="#181818" points="1216.3271,1044.8584,1220.3271,1054.8584,1224.3271,1044.8584,1220.3271,1048.8584" style="stroke:#181818;stroke-width:1;"/><line style="stroke:#181818;stroke-width:1;" x1="1220.3271" x2="1220.3271" y1="523.9131" y2="556.9131"/><polygon fill="#181818" points="1216.3271,546.9131,1220.3271,556.9131,1224.3271,546.9131,1220.3271,550.9131" style="stroke:#181818;stroke-width:1;"/><line style="stroke:#181818;stroke-width:1;" x1="1220.3271" x2="1220.3271" y1="1078.8584" y2="1126.6631"/><polygon fill="#181818" points="1216.3271,1116.6631,1220.3271,1126.6631,1224.3271,1116.6631,1220.3271,1120.6631" style="stroke:#181818;stroke-width:1;"/><text fill="#000000" font-family="sans-serif" font-size="11" lengthAdjust="spacing" textLength="13.7017" x="1224.3271" y="1106.5688">no</text><line style="stroke:#181818;stroke-width:1;" x1="1398.5322" x2="1398.5322" y1="479.9131" y2="514.9131"/><polygon fill="#181818" points="1394.5322,504.9131,1398.5322,514.9131,1402.5322,504.9131,1398.5322,508.9131" style="stroke:#181818;stroke-width:1;"/><line style="stroke:#181818;stroke-width:1;" x1="486.9785" x2="486.9785" y1="758.8506" y2="763.8506"/><line style="stroke:#181818;stroke-width:1;" x1="486.9785" x2="1009.8223" y1="763.8506" y2="763.8506"/><line style="stroke:#181818;stroke-width:1;" x1="1009.8223" x2="1009.8223" y1="763.8506" y2="778.8506"/><polygon fill="#181818" points="1005.8223,768.8506,1009.8223,778.8506,1013.8223,768.8506,1009.8223,772.8506" style="stroke:#181818;stroke-width:1;"/><line style="stroke:#181818;stroke-width:1;" x1="1065.4302" x2="1077.4302" y1="982.7568" y2="982.7568"/><line style="stroke:#181818;stroke-width:1;" x1="1077.4302" x2="1077.4302" y1="982.7568" y2="1000.7568"/><line style="stroke:#181818;stroke-width:1;" x1="1077.4302" x2="628.1914" y1="1000.7568" y2="1000.7568"/><line style="stroke:#181818;stroke-width:1;" x1="628.1914" x2="628.1914" y1="1000.7568" y2="1014.7568"/><polygon fill="#181818" points="624.1914,1004.7568,628.1914,1014.7568,632.1914,1004.7568,628.1914,1008.7568" style="stroke:#181818;stroke-width:1;"/><line style="stroke:#181818;stroke-width:1;" x1="628.1914" x2="628.1914" y1="1451.5381" y2="1455.5381"/><line style="stroke:#181818;stroke-width:1;" x1="628.1914" x2="1039.8223" y1="1455.5381" y2="1455.5381"/><line style="stroke:#181818;stroke-width:1;" x1="1039.8223" x2="1039.8223" y1="1455.5381" y2="1473.5381"/><line style="stroke:#181818;stroke-width:1;" x1="1039.8223" x2="1021.8223" y1="1473.5381" y2="1473.5381"/><polygon fill="#181818" points="1031.8223,1469.5381,1021.8223,1473.5381,1031.8223,1477.5381,1027.8223,1473.5381" style="stroke:#181818;stroke-width:1;"/><line style="stroke:#181818;stroke-width:1;" x1="1009.8223" x2="1009.8223" y1="1485.5381" y2="1490.5381"/><line style="stroke:#181818;stroke-width:1;" x1="1009.8223" x2="486.9785" y1="1490.5381" y2="1490.5381"/><line style="stroke:#181818;stroke-width:1;" x1="486.9785" x2="486.9785" y1="1490.5381" y2="1505.5381"/><polygon fill="#181818" points="482.9785,1495.5381,486.9785,1505.5381,490.9785,1495.5381,486.9785,1499.5381" style="stroke:#181818;stroke-width:1;"/><line style="stroke:#181818;stroke-width:1;" x1="59.23" x2="47.23" y1="457.9443" y2="457.9443"/><line style="stroke:#181818;stroke-width:1;" x1="47.23" x2="47.23" y1="457.9443" y2="475.9443"/><line style="stroke:#181818;stroke-width:1;" x1="47.23" x2="486.9785" y1="475.9443" y2="475.9443"/><line style="stroke:#181818;stroke-width:1;" x1="486.9785" x2="486.9785" y1="475.9443" y2="489.9443"/><polygon fill="#181818" points="482.9785,479.9443,486.9785,489.9443,490.9785,479.9443,486.9785,483.9443" style="stroke:#181818;stroke-width:1;"/><line style="stroke:#181818;stroke-width:1;" x1="113.2651" x2="1220.3271" y1="457.9443" y2="457.9443"/><line style="stroke:#181818;stroke-width:1;" x1="1220.3271" x2="1220.3271" y1="457.9443" y2="489.9443"/><polygon fill="#181818" points="1216.3271,479.9443,1220.3271,489.9443,1224.3271,479.9443,1220.3271,483.9443" style="stroke:#181818;stroke-width:1;"/><line style="stroke:#181818;stroke-width:1;" x1="315.2476" x2="1398.5322" y1="413.9443" y2="413.9443"/><line style="stroke:#181818;stroke-width:1;" x1="1398.5322" x2="1398.5322" y1="413.9443" y2="445.9443"/><polygon fill="#181818" points="1394.5322,435.9443,1398.5322,445.9443,1402.5322,435.9443,1398.5322,439.9443" style="stroke:#181818;stroke-width:1;"/><text fill="#000000" font-family="sans-serif" font-size="18" lengthAdjust="spacing" textLength="52.8662" x="161.4907" y="34.4531">Guest</text><text fill="#000000" font-family="sans-serif" font-size="18" lengthAdjust="spacing" textLength="56.0127" x="551.9468" y="34.4531">Player</text><text fill="#000000" font-family="sans-serif" font-size="18" lengthAdjust="spacing" textLength="67.1221" x="929.2207" y="34.4531">System</text><text fill="#000000" font-family="sans-serif" font-size="18" lengthAdjust="spacing" textLength="57.6826" x="1262.8687" y="34.4531">Admin</text><?plantuml-src XLJ1Rjim3BtdAuWUXkGmx1u36xncsQK50dlfpghDEDeKoP3e607yyQCbrvRJPBs9v2D5FZsg-zcWesxXI5XQh5-aamHFGfTILx0J5IQz4rl82sFnrGXRmYV8XFxB0FSM_756JP2Je8Pz2tc0vM-XoG4PgBcmB6Gj2B-jW8weONb1jre0h3Eif2Eqa1Q5QJGblVF9L5BtfxwCDy0rHO7E7HfrNIAWCgEcuZibBcX34A0BPZUOw-_Mj0xXyIYKGbtnYHkhZ9NeaZUCdsb2R924L5DuOrgjZ2WZo5QgATzYZO86W_5vytfYLhTALCdexV8BJtxgHaS_H-1HEh2DrapmE9Csgn7OLpoQ5Xu2MXi2KP0yuqCIOHoPUZIHt_CmkobL5aLv0MVK6Slth0uNPVW72uAogPKicAZuXYjc-HR5n5wt-YAKB3dpQlpGHUy35fRbI-xrm3NIjfVTpaYML38FxMjVV8VM6IrKaEbjJAJWIRyp88iD_6Cv9usU1zzDEoabznnEQhWkwq7tExn5sz2Cr0Cv88Z5KjE7FSrVEhQ2Ag4zibHX-SnDG35spEIpwcBgFt_LPhuGjoVe-pJDsDWekp1LMfwa7bVHM-CcfdwdmJlvgz6exYtGiz2YYdQMEttCzflLn0Q_yVysSggnTpn5vCxxVm--yDzbQdZyjGrVMGJmewTAHSA8ypDqI96qej2Sc3dzOUZ2Q9Aw-OZ-YTFXEUUA2R-1yXybMcjio1koGawSuGFU_Gy0?></g></svg>