<svg xmlns="http://www.w3.org/2000/svg" xmlns:xlink="http://www.w3.org/1999/xlink" contentStyleType="text/css" data-diagram-type="CLASS" height="702px" preserveAspectRatio="none" style="width:970px;height:702px;background:#FFFFFF;" version="1.1" viewBox="0 0 970 702" width="970px" zoomAndPan="magnify"><?plantuml 1.2026.3beta6?><defs/><g><!--class Role--><g class="entity" data-qualified-name="Role" data-source-line="4" id="ent0002"><rect fill="#F1F1F1" height="80.5938" rx="2.5" ry="2.5" style="stroke:#181818;stroke-width:0.5;" width="64.9443" x="29.11" y="491.19"/><ellipse cx="45.0768" cy="507.19" fill="#EB937F" rx="11" ry="11" style="stroke:#181818;stroke-width:1;"/><path d="M49.1862,513.19 L41.4674,513.19 L41.4674,500.7994 L49.1862,500.7994 L49.1862,502.9556 L43.9205,502.9556 L43.9205,505.6275 L48.6862,505.6275 L48.6862,507.7837 L43.9205,507.7837 L43.9205,511.0337 L49.1862,511.0337 L49.1862,513.19 Z " fill="#000000"/><text fill="#000000" font-family="sans-serif" font-size="14" lengthAdjust="spacing" textLength="30.7959" x="59.2916" y="512.0367">Role</text><line style="stroke:#181818;stroke-width:0.5;" x1="30.11" x2="93.0543" y1="523.19" y2="523.19"/><text fill="#000000" font-family="sans-serif" font-size="14" lengthAdjust="spacing" textLength="52.9443" x="35.11" y="540.1851">PLAYER</text><text fill="#000000" font-family="sans-serif" font-size="14" lengthAdjust="spacing" textLength="47.0381" x="35.11" y="556.482">ADMIN</text><line style="stroke:#181818;stroke-width:0.5;" x1="30.11" x2="93.0543" y1="563.7837" y2="563.7837"/></g><!--class EventState--><g class="entity" data-qualified-name="EventState" data-source-line="9" id="ent0003"><rect fill="#F1F1F1" height="80.5938" rx="2.5" ry="2.5" style="stroke:#181818;stroke-width:0.5;" width="109.1641" x="7" y="607.19"/><ellipse cx="22" cy="623.19" fill="#EB937F" rx="11" ry="11" style="stroke:#181818;stroke-width:1;"/><path d="M26.1094,629.19 L18.3906,629.19 L18.3906,616.7994 L26.1094,616.7994 L26.1094,618.9556 L20.8438,618.9556 L20.8438,621.6275 L25.6094,621.6275 L25.6094,623.7837 L20.8438,623.7837 L20.8438,627.0337 L26.1094,627.0337 L26.1094,629.19 Z " fill="#000000"/><text fill="#000000" font-family="sans-serif" font-size="14" lengthAdjust="spacing" textLength="77.1641" x="36" y="628.0367">EventState</text><line style="stroke:#181818;stroke-width:0.5;" x1="8" x2="115.1641" y1="639.19" y2="639.19"/><text fill="#000000" font-family="sans-serif" font-size="14" lengthAdjust="spacing" textLength="66.3701" x="13" y="656.1851">RUNNING</text><text fill="#000000" font-family="sans-serif" font-size="14" lengthAdjust="spacing" textLength="57.1074" x="13" y="672.482">CLOSED</text><line style="stroke:#181818;stroke-width:0.5;" x1="8" x2="115.1641" y1="679.7837" y2="679.7837"/></g><!--class User--><g class="entity" data-qualified-name="User" data-source-line="14" id="ent0004"><rect fill="#F1F1F1" height="210.9688" rx="2.5" ry="2.5" style="stroke:#181818;stroke-width:0.5;" width="187.6016" x="200.16" y="7"/><ellipse cx="273.7557" cy="23" fill="#ADD1B2" rx="11" ry="11" style="stroke:#181818;stroke-width:1;"/><path d="M276.7245,28.6406 Q276.1463,28.9375 275.5057,29.0781 Q274.8651,29.2344 274.162,29.2344 Q271.662,29.2344 270.3338,27.5938 Q269.0213,25.9375 269.0213,22.8125 Q269.0213,19.6875 270.3338,18.0313 Q271.662,16.375 274.162,16.375 Q274.8651,16.375 275.5057,16.5313 Q276.162,16.6875 276.7245,16.9844 L276.7245,19.7031 Q276.0995,19.125 275.5057,18.8594 Q274.912,18.5781 274.287,18.5781 Q272.9432,18.5781 272.2557,19.6563 Q271.5682,20.7188 271.5682,22.8125 Q271.5682,24.9063 272.2557,25.9844 Q272.9432,27.0469 274.287,27.0469 Q274.912,27.0469 275.5057,26.7813 Q276.0995,26.5 276.7245,25.9219 L276.7245,28.6406 Z " fill="#000000"/><text fill="#000000" font-family="sans-serif" font-size="14" lengthAdjust="spacing" textLength="31.9102" x="294.2557" y="27.8467">User</text><line style="stroke:#181818;stroke-width:0.5;" x1="201.16" x2="386.7616" y1="39" y2="39"/><text fill="#000000" font-family="sans-serif" font-size="14" lengthAdjust="spacing" textLength="45.2471" x="206.16" y="55.9951">-id: int</text><text fill="#000000" font-family="sans-serif" font-size="14" lengthAdjust="spacing" textLength="124.6465" x="206.16" y="72.292">-username: string</text><text fill="#000000" font-family="sans-serif" font-size="14" lengthAdjust="spacing" textLength="156.3926" x="206.16" y="88.5889">-passwordHash: string</text><text fill="#000000" font-family="sans-serif" font-size="14" lengthAdjust="spacing" textLength="71.8389" x="206.16" y="104.8857">-role: Role</text><text fill="#000000" font-family="sans-serif" font-size="14" lengthAdjust="spacing" textLength="70.3965" x="206.16" y="121.1826">-score: int</text><text fill="#000000" font-family="sans-serif" font-size="14" lengthAdjust="spacing" textLength="110.6943" x="206.16" y="137.4795">-solveCount: int</text><text fill="#000000" font-family="sans-serif" font-size="14" lengthAdjust="spacing" textLength="175.6016" x="206.16" y="153.7764">-lastSolveTime: datetime</text><text fill="#000000" font-family="sans-serif" font-size="14" lengthAdjust="spacing" textLength="146.1182" x="206.16" y="170.0732">-createdAt: datetime</text><line style="stroke:#181818;stroke-width:1;" x1="201.16" x2="386.7616" y1="177.375" y2="177.375"/><text fill="#000000" font-family="sans-serif" font-size="14" lengthAdjust="spacing" textLength="76.9521" x="206.16" y="194.3701">+register()</text><text fill="#000000" font-family="sans-serif" font-size="14" lengthAdjust="spacing" textLength="56.7588" x="206.16" y="210.667">+login()</text></g><!--class Category--><g class="entity" data-qualified-name="Category" data-source-line="28" id="ent0005"><rect fill="#F1F1F1" height="80.5938" rx="2.5" ry="2.5" style="stroke:#181818;stroke-width:0.5;" width="106.1104" x="8.53" y="302.19"/><ellipse cx="28.1021" cy="318.19" fill="#ADD1B2" rx="11" ry="11" style="stroke:#181818;stroke-width:1;"/><path d="M31.0708,323.8306 Q30.4927,324.1275 29.8521,324.2681 Q29.2114,324.4244 28.5083,324.4244 Q26.0083,324.4244 24.6802,322.7838 Q23.3677,321.1275 23.3677,318.0025 Q23.3677,314.8775 24.6802,313.2213 Q26.0083,311.565 28.5083,311.565 Q29.2114,311.565 29.8521,311.7213 Q30.5083,311.8775 31.0708,312.1744 L31.0708,314.8931 Q30.4458,314.315 29.8521,314.0494 Q29.2583,313.7681 28.6333,313.7681 Q27.2896,313.7681 26.6021,314.8463 Q25.9146,315.9088 25.9146,318.0025 Q25.9146,320.0963 26.6021,321.1744 Q27.2896,322.2369 28.6333,322.2369 Q29.2583,322.2369 29.8521,321.9713 Q30.4458,321.69 31.0708,321.1119 L31.0708,323.8306 Z " fill="#000000"/><text fill="#000000" font-family="sans-serif" font-size="14" lengthAdjust="spacing" textLength="63.9502" x="43.1181" y="323.0367">Category</text><line style="stroke:#181818;stroke-width:0.5;" x1="9.53" x2="113.6404" y1="334.19" y2="334.19"/><text fill="#000000" font-family="sans-serif" font-size="14" lengthAdjust="spacing" textLength="45.2471" x="14.53" y="351.1851">-id: int</text><text fill="#000000" font-family="sans-serif" font-size="14" lengthAdjust="spacing" textLength="94.1104" x="14.53" y="367.482">-name: string</text><line style="stroke:#181818;stroke-width:0.5;" x1="9.53" x2="113.6404" y1="374.7838" y2="374.7838"/></g><!--class Challenge--><g class="entity" data-qualified-name="Challenge" data-source-line="33" id="ent0006"><rect fill="#F1F1F1" height="178.375" rx="2.5" ry="2.5" style="stroke:#181818;stroke-width:0.5;" width="162.6982" x="212.62" y="253.3"/><ellipse cx="254.9373" cy="269.3" fill="#ADD1B2" rx="11" ry="11" style="stroke:#181818;stroke-width:1;"/><path d="M257.906,274.9406 Q257.3279,275.2375 256.6873,275.3781 Q256.0467,275.5344 255.3435,275.5344 Q252.8435,275.5344 251.5154,273.8937 Q250.2029,272.2375 250.2029,269.1125 Q250.2029,265.9875 251.5154,264.3312 Q252.8435,262.675 255.3435,262.675 Q256.0467,262.675 256.6873,262.8312 Q257.3435,262.9875 257.906,263.2844 L257.906,266.0031 Q257.281,265.425 256.6873,265.1594 Q256.0935,264.8781 255.4685,264.8781 Q254.1248,264.8781 253.4373,265.9562 Q252.7498,267.0187 252.7498,269.1125 Q252.7498,271.2062 253.4373,272.2844 Q254.1248,273.3469 255.4685,273.3469 Q256.0935,273.3469 256.6873,273.0812 Q257.281,272.8 257.906,272.2219 L257.906,274.9406 Z " fill="#000000"/><text fill="#000000" font-family="sans-serif" font-size="14" lengthAdjust="spacing" textLength="69.9932" x="275.0078" y="274.1467">Challenge</text><line style="stroke:#181818;stroke-width:0.5;" x1="213.62" x2="374.3182" y1="285.3" y2="285.3"/><text fill="#000000" font-family="sans-serif" font-size="14" lengthAdjust="spacing" textLength="45.2471" x="218.62" y="302.2951">-id: int</text><text fill="#000000" font-family="sans-serif" font-size="14" lengthAdjust="spacing" textLength="81.7783" x="218.62" y="318.592">-title: string</text><text fill="#000000" font-family="sans-serif" font-size="14" lengthAdjust="spacing" textLength="132.248" x="218.62" y="334.8889">-description: string</text><text fill="#000000" font-family="sans-serif" font-size="14" lengthAdjust="spacing" textLength="75.4688" x="218.62" y="351.1857">-points: int</text><text fill="#000000" font-family="sans-serif" font-size="14" lengthAdjust="spacing" textLength="80.6914" x="218.62" y="367.4826">-flag: string</text><text fill="#000000" font-family="sans-serif" font-size="14" lengthAdjust="spacing" textLength="107.1123" x="218.62" y="383.7795">-filePath: string</text><text fill="#000000" font-family="sans-serif" font-size="14" lengthAdjust="spacing" textLength="146.1182" x="218.62" y="400.0764">-createdAt: datetime</text><text fill="#000000" font-family="sans-serif" font-size="14" lengthAdjust="spacing" textLength="150.6982" x="218.62" y="416.3732">-updatedAt: datetime</text><line style="stroke:#181818;stroke-width:0.5;" x1="213.62" x2="374.3182" y1="423.675" y2="423.675"/></g><!--class Submission--><g class="entity" data-qualified-name="Submission" data-source-line="44" id="ent0007"><rect fill="#F1F1F1" height="129.4844" rx="2.5" ry="2.5" style="stroke:#181818;stroke-width:0.5;" width="175.543" x="503.77" y="162.74"/><ellipse cx="547.3239" cy="178.74" fill="#ADD1B2" rx="11" ry="11" style="stroke:#181818;stroke-width:1;"/><path d="M550.2927,184.3806 Q549.7145,184.6775 549.0739,184.8181 Q548.4333,184.9744 547.7302,184.9744 Q545.2302,184.9744 543.902,183.3338 Q542.5895,181.6775 542.5895,178.5525 Q542.5895,175.4275 543.902,173.7713 Q545.2302,172.115 547.7302,172.115 Q548.4333,172.115 549.0739,172.2713 Q549.7302,172.4275 550.2927,172.7244 L550.2927,175.4431 Q549.6677,174.865 549.0739,174.5994 Q548.4802,174.3181 547.8552,174.3181 Q546.5114,174.3181 545.8239,175.3963 Q545.1364,176.4588 545.1364,178.5525 Q545.1364,180.6463 545.8239,181.7244 Q546.5114,182.7869 547.8552,182.7869 Q548.4802,182.7869 549.0739,182.5213 Q549.6677,182.24 550.2927,181.6619 L550.2927,184.3806 Z " fill="#000000"/><text fill="#000000" font-family="sans-serif" font-size="14" lengthAdjust="spacing" textLength="80.0898" x="567.6692" y="183.5867">Submission</text><line style="stroke:#181818;stroke-width:0.5;" x1="504.77" x2="678.313" y1="194.74" y2="194.74"/><text fill="#000000" font-family="sans-serif" font-size="14" lengthAdjust="spacing" textLength="45.2471" x="509.77" y="211.7351">-id: int</text><text fill="#000000" font-family="sans-serif" font-size="14" lengthAdjust="spacing" textLength="154.875" x="509.77" y="228.032">-submittedFlag: string</text><text fill="#000000" font-family="sans-serif" font-size="14" lengthAdjust="spacing" textLength="106.9619" x="509.77" y="244.3289">-isCorrect: bool</text><text fill="#000000" font-family="sans-serif" font-size="14" lengthAdjust="spacing" textLength="137.2178" x="509.77" y="260.6257">-pointsAwarded: int</text><text fill="#000000" font-family="sans-serif" font-size="14" lengthAdjust="spacing" textLength="163.543" x="509.77" y="276.9226">-submittedAt: datetime</text><line style="stroke:#181818;stroke-width:0.5;" x1="504.77" x2="678.313" y1="284.2244" y2="284.2244"/></g><!--class EventStatus--><g class="entity" data-qualified-name="EventStatus" data-source-line="52" id="ent0008"><rect fill="#F1F1F1" height="129.4844" rx="2.5" ry="2.5" style="stroke:#181818;stroke-width:0.5;" width="162.6982" x="212.62" y="466.74"/><ellipse cx="248.3112" cy="482.74" fill="#ADD1B2" rx="11" ry="11" style="stroke:#181818;stroke-width:1;"/><path d="M251.28,488.3806 Q250.7018,488.6775 250.0612,488.8181 Q249.4206,488.9744 248.7175,488.9744 Q246.2175,488.9744 244.8893,487.3338 Q243.5768,485.6775 243.5768,482.5525 Q243.5768,479.4275 244.8893,477.7713 Q246.2175,476.115 248.7175,476.115 Q249.4206,476.115 250.0612,476.2713 Q250.7175,476.4275 251.28,476.7244 L251.28,479.4431 Q250.655,478.865 250.0612,478.5994 Q249.4675,478.3181 248.8425,478.3181 Q247.4987,478.3181 246.8112,479.3963 Q246.1237,480.4588 246.1237,482.5525 Q246.1237,484.6463 246.8112,485.7244 Q247.4987,486.7869 248.8425,486.7869 Q249.4675,486.7869 250.0612,486.5213 Q250.655,486.24 251.28,485.6619 L251.28,488.3806 Z " fill="#000000"/><text fill="#000000" font-family="sans-serif" font-size="14" lengthAdjust="spacing" textLength="84.7178" x="266.9093" y="487.5867">EventStatus</text><line style="stroke:#181818;stroke-width:0.5;" x1="213.62" x2="374.3182" y1="498.74" y2="498.74"/><text fill="#000000" font-family="sans-serif" font-size="14" lengthAdjust="spacing" textLength="45.2471" x="218.62" y="515.7351">-id: int</text><text fill="#000000" font-family="sans-serif" font-size="14" lengthAdjust="spacing" textLength="134.4014" x="218.62" y="532.032">-status: EventState</text><text fill="#000000" font-family="sans-serif" font-size="14" lengthAdjust="spacing" textLength="150.6982" x="218.62" y="548.3289">-updatedAt: datetime</text><line style="stroke:#181818;stroke-width:1;" x1="213.62" x2="374.3182" y1="555.6306" y2="555.6306"/><text fill="#000000" font-family="sans-serif" font-size="14" lengthAdjust="spacing" textLength="95.3682" x="218.62" y="572.6257">+startEvent()</text><text fill="#000000" font-family="sans-serif" font-size="14" lengthAdjust="spacing" textLength="92.9961" x="218.62" y="588.9226">+stopEvent()</text></g><g class="entity" data-qualified-name="GMN12" data-source-line="66" id="ent0013"><path d="M740.31,192.22 L740.31,223.48 L679.71,227.48 L740.31,231.48 L740.31,262.7512 A0,0 0 0 0 740.31,262.7512 L955.4467,262.7512 A0,0 0 0 0 955.4467,262.7512 L955.4467,202.22 L945.4467,192.22 L740.31,192.22 A0,0 0 0 0 740.31,192.22" fill="#FEFFDD" style="stroke:#181818;stroke-width:0.5;"/><path d="M945.4467,192.22 L945.4467,202.22 L955.4467,202.22 L945.4467,192.22" fill="#FEFFDD" style="stroke:#181818;stroke-width:0.5;"/><text fill="#000000" font-family="sans-serif" font-size="13" lengthAdjust="spacing" textLength="134.1641" x="746.31" y="209.2869">Application prevents</text><text fill="#000000" font-family="sans-serif" font-size="13" lengthAdjust="spacing" textLength="194.1367" x="746.31" y="224.4197">duplicate correct submissions</text><text fill="#000000" font-family="sans-serif" font-size="13" lengthAdjust="spacing" textLength="152.3755" x="746.31" y="239.5525">(user_id + challenge_id</text><text fill="#000000" font-family="sans-serif" font-size="13" lengthAdjust="spacing" textLength="153.6006" x="746.31" y="254.6853">where isCorrect = true)</text></g><!--link User to Submission--><g class="link" data-entity-1="ent0004" data-entity-2="ent0007" data-link-type="association" data-source-line="61" id="lnk9"><path codeLine="61" d="M388.08,148.71 C424.97,163.06 467.15,179.48 503.42,193.59" fill="none" id="User-Submission" style="stroke:#181818;stroke-width:1;"/><text fill="#000000" font-family="sans-serif" font-size="13" lengthAdjust="spacing" textLength="42.9292" x="424.77" y="159.5469">makes</text><text fill="#000000" font-family="sans-serif" font-size="13" lengthAdjust="spacing" textLength="8.271" x="395.9097" y="164.2666">1</text><text fill="#000000" font-family="sans-serif" font-size="13" lengthAdjust="spacing" textLength="23.0356" x="472.7941" y="203.6413">0..*</text></g><!--link Challenge to Submission--><g class="link" data-entity-1="ent0006" data-entity-2="ent0007" data-link-type="association" data-source-line="62" id="lnk10"><path codeLine="62" d="M375.73,311.06 C415.3,295.66 463,277.1 503.39,261.39" fill="none" id="Challenge-Submission" style="stroke:#181818;stroke-width:1;"/><text fill="#000000" font-family="sans-serif" font-size="13" lengthAdjust="spacing" textLength="54.5645" x="418.77" y="271.5469">receives</text><text fill="#000000" font-family="sans-serif" font-size="13" lengthAdjust="spacing" textLength="8.271" x="383.3801" y="321.0018">1</text><text fill="#000000" font-family="sans-serif" font-size="13" lengthAdjust="spacing" textLength="23.0356" x="472.7618" y="276.6323">0..*</text></g><!--link Category to Challenge--><g class="link" data-entity-1="ent0005" data-entity-2="ent0006" data-link-type="association" data-source-line="63" id="lnk11"><path codeLine="63" d="M114.86,342.48 C143.67,342.48 180.05,342.48 212.41,342.48" fill="none" id="Category-Challenge" style="stroke:#181818;stroke-width:1;"/><text fill="#000000" font-family="sans-serif" font-size="13" lengthAdjust="spacing" textLength="22.9785" x="147.16" y="338.5469">has</text><text fill="#000000" font-family="sans-serif" font-size="13" lengthAdjust="spacing" textLength="8.271" x="122.5745" y="355.5627">1</text><text fill="#000000" font-family="sans-serif" font-size="13" lengthAdjust="spacing" textLength="23.0356" x="181.705" y="355.1729">0..*</text></g><?plantuml-src VLDBRzD04BxxLunoQa6jojKI1oiD4Ac4AgO7JcZZdTYhhdUjdN4YGFntPjTD78FBPJMlR-UR5pqRrwcWMgYi8YgOWzdrZElAkzByHBZBBEuPs4CmTSEWJS2AZNTPXgvlOUijmgyCuF6X-BRQYb3SVrvlijyl_jK17PUiU8ZQFcqswyr7aPOFNyhLVOnBcU69CAIG6p0w1-CuoRsOdMen1n9ghax6JW177_GdHSt44OHDdZWbbIeVSFoBl3tWqlUEHvlavZBQlvgOH0jH5Ydvge2YweAdzXjvtaB0sX1ZkBfEglMrSIAVwraAelRXnqnDatf6GAEiHLVZ388DssaBD58LJ1SdCMsD5moDoBrLzIHWRom-AfxsxPLAeU_qF_OpuRBVjOP86CmmfkXamNxucu2XfGznYNBOUMylM1T75JJEVJ9FuBnRFSqnI8xyOWDVBUayLC44Je2NiHBxxgHBthIaYtSBYOV5tUtjcyLb5t9erJDIDaxoFw7I0JI767rQb6dm-4aEZQ8iSrvkQ3X2lx_uAvvSrrbJgRWCq0MCV4dCkX_C2DNGyQ6X2HNzL_6ulXijTLQdRAAAvzXWm75Iy1uuz7Wj9wqXylW3?></g></svg>