<svg xmlns="http://www.w3.org/2000/svg" xmlns:xlink="http://www.w3.org/1999/xlink" contentStyleType="text/css" data-diagram-type="SEQUENCE" height="749px" preserveAspectRatio="none" style="width:713px;height:749px;background:#FFFFFF;" version="1.1" viewBox="0 0 713 749" width="713px" zoomAndPan="magnify"><?plantuml 1.2026.3beta6?><defs/><g><g><title>FastAPI</title><rect fill="#FFFFFF" height="131.6641" style="stroke:#181818;stroke-width:1;" width="10" x="409.9004" y="186.9922"/></g><g><title>FastAPI</title><rect fill="#FFFFFF" height="131.6641" style="stroke:#181818;stroke-width:1;" width="10" x="409.9004" y="420.0547"/></g><g><title>MySQL</title><rect fill="#FFFFFF" height="29.1328" style="stroke:#181818;stroke-width:1;" width="10" x="660.7129" y="216.125"/></g><g><title>MySQL</title><rect fill="#FFFFFF" height="29.1328" style="stroke:#181818;stroke-width:1;" width="10" x="660.7129" y="449.1875"/></g><g class="participant-lifeline" data-entity-uid="part1" data-qualified-name="Admin" data-source-line="1" id="part1-lifeline"><g><title>Admin</title><rect fill="#000000" fill-opacity="0.00000" height="581.7891" width="8" x="26.4321" y="83.5938"/><line style="stroke:#181818;stroke-width:0.5;stroke-dasharray:5,5;" x1="30" x2="30" y1="83.5938" y2="665.3828"/></g></g><g class="participant-lifeline" data-entity-uid="part2" data-qualified-name="FE" data-source-line="2" id="part2-lifeline"><g><title>Admin Panel</title><rect fill="#000000" fill-opacity="0.00000" height="581.7891" width="8" x="225.9702" y="83.5938"/><line style="stroke:#181818;stroke-width:0.5;stroke-dasharray:5,5;" x1="229.1143" x2="229.1143" y1="83.5938" y2="665.3828"/></g></g><g class="participant-lifeline" data-entity-uid="part3" data-qualified-name="BE" data-source-line="3" id="part3-lifeline"><g><title>FastAPI</title><rect fill="#000000" fill-opacity="0.00000" height="581.7891" width="8" x="410.9004" y="83.5938"/><line style="stroke:#181818;stroke-width:0.5;stroke-dasharray:5,5;" x1="414.7197" x2="414.7197" y1="83.5938" y2="665.3828"/></g></g><g class="participant-lifeline" data-entity-uid="part4" data-qualified-name="DB" data-source-line="4" id="part4-lifeline"><g><title>MySQL</title><rect fill="#000000" fill-opacity="0.00000" height="581.7891" width="8" x="661.7129" y="83.5938"/><line style="stroke:#181818;stroke-width:0.5;stroke-dasharray:5,5;" x1="665.3125" x2="665.3125" y1="83.5938" y2="665.3828"/></g></g><g class="participant participant-head" data-entity-uid="part1" data-qualified-name="Admin" data-source-line="1" id="part1-head"><text fill="#000000" font-family="sans-serif" font-size="14" lengthAdjust="spacing" textLength="44.8643" x="5" y="80.292">Admin</text><ellipse cx="30.4321" cy="15.7969" fill="#E2E2F0" rx="8" ry="8" style="stroke:#181818;stroke-width:0.5;"/><path d="M30.4321,23.7969 L30.4321,50.7969 M17.4321,31.7969 L43.4321,31.7969 M30.4321,50.7969 L17.4321,65.7969 M30.4321,50.7969 L43.4321,65.7969" fill="none" style="stroke:#181818;stroke-width:0.5;"/></g><g class="participant participant-tail" data-entity-uid="part1" data-qualified-name="Admin" data-source-line="1" id="part1-tail"><text fill="#000000" font-family="sans-serif" font-size="14" lengthAdjust="spacing" textLength="44.8643" x="5" y="677.3779">Admin</text><ellipse cx="30.4321" cy="689.1797" fill="#E2E2F0" rx="8" ry="8" style="stroke:#181818;stroke-width:0.5;"/><path d="M30.4321,697.1797 L30.4321,724.1797 M17.4321,705.1797 L43.4321,705.1797 M30.4321,724.1797 L17.4321,739.1797 M30.4321,724.1797 L43.4321,739.1797" fill="none" style="stroke:#181818;stroke-width:0.5;"/></g><g class="participant participant-head" data-entity-uid="part2" data-qualified-name="FE" data-source-line="2" id="part2-head"><rect fill="#E2E2F0" height="46.5938" rx="2.5" ry="2.5" style="stroke:#181818;stroke-width:0.5;" width="101.7119" x="179.1143" y="36"/><text fill="#000000" font-family="sans-serif" font-size="14" lengthAdjust="spacing" textLength="87.7119" x="186.1143" y="55.9951">Admin Panel</text><text fill="#000000" font-family="sans-serif" font-size="14" lengthAdjust="spacing" textLength="74.0332" x="192.9536" y="72.292">(Frontend)</text></g><g class="participant participant-tail" data-entity-uid="part2" data-qualified-name="FE" data-source-line="2" id="part2-tail"><rect fill="#E2E2F0" height="46.5938" rx="2.5" ry="2.5" style="stroke:#181818;stroke-width:0.5;" width="101.7119" x="179.1143" y="664.3828"/><text fill="#000000" font-family="sans-serif" font-size="14" lengthAdjust="spacing" textLength="87.7119" x="186.1143" y="684.3779">Admin Panel</text><text fill="#000000" font-family="sans-serif" font-size="14" lengthAdjust="spacing" textLength="74.0332" x="192.9536" y="700.6748">(Frontend)</text></g><g class="participant participant-head" data-entity-uid="part3" data-qualified-name="BE" data-source-line="3" id="part3-head"><rect fill="#E2E2F0" height="46.5938" rx="2.5" ry="2.5" style="stroke:#181818;stroke-width:0.5;" width="74.3613" x="377.7197" y="36"/><text fill="#000000" font-family="sans-serif" font-size="14" lengthAdjust="spacing" textLength="51.5635" x="389.1187" y="55.9951">FastAPI</text><text fill="#000000" font-family="sans-serif" font-size="14" lengthAdjust="spacing" textLength="60.3613" x="384.7197" y="72.292">Backend</text></g><g class="participant participant-tail" data-entity-uid="part3" data-qualified-name="BE" data-source-line="3" id="part3-tail"><rect fill="#E2E2F0" height="46.5938" rx="2.5" ry="2.5" style="stroke:#181818;stroke-width:0.5;" width="74.3613" x="377.7197" y="664.3828"/><text fill="#000000" font-family="sans-serif" font-size="14" lengthAdjust="spacing" textLength="51.5635" x="389.1187" y="684.3779">FastAPI</text><text fill="#000000" font-family="sans-serif" font-size="14" lengthAdjust="spacing" textLength="60.3613" x="384.7197" y="700.6748">Backend</text></g><g class="participant participant-head" data-entity-uid="part4" data-qualified-name="DB" data-source-line="4" id="part4-head"><text fill="#000000" font-family="sans-serif" font-size="14" lengthAdjust="spacing" textLength="48.0703" x="638.6777" y="63.9951">MySQL</text><text fill="#000000" font-family="sans-serif" font-size="14" lengthAdjust="spacing" textLength="66.8008" x="629.3125" y="80.292">Database</text><path d="M647.7129,15 C647.7129,5 665.7129,5 665.7129,5 C665.7129,5 683.7129,5 683.7129,15 L683.7129,41 C683.7129,51 665.7129,51 665.7129,51 C665.7129,51 647.7129,51 647.7129,41 L647.7129,15" fill="#E2E2F0" style="stroke:#181818;stroke-width:0.5;"/><path d="M647.7129,15 C647.7129,25 665.7129,25 665.7129,25 C665.7129,25 683.7129,25 683.7129,15" fill="none" style="stroke:#181818;stroke-width:0.5;"/></g><g class="participant participant-tail" data-entity-uid="part4" data-qualified-name="DB" data-source-line="4" id="part4-tail"><text fill="#000000" font-family="sans-serif" font-size="14" lengthAdjust="spacing" textLength="48.0703" x="638.6777" y="677.3779">MySQL</text><text fill="#000000" font-family="sans-serif" font-size="14" lengthAdjust="spacing" textLength="66.8008" x="629.3125" y="693.6748">Database</text><path d="M647.7129,706.9766 C647.7129,696.9766 665.7129,696.9766 665.7129,696.9766 C665.7129,696.9766 683.7129,696.9766 683.7129,706.9766 L683.7129,732.9766 C683.7129,742.9766 665.7129,742.9766 665.7129,742.9766 C665.7129,742.9766 647.7129,742.9766 647.7129,732.9766 L647.7129,706.9766" fill="#E2E2F0" style="stroke:#181818;stroke-width:0.5;"/><path d="M647.7129,706.9766 C647.7129,716.9766 665.7129,716.9766 665.7129,716.9766 C665.7129,716.9766 683.7129,716.9766 683.7129,706.9766" fill="none" style="stroke:#181818;stroke-width:0.5;"/></g><g><title>FastAPI</title><rect fill="#FFFFFF" height="131.6641" style="stroke:#181818;stroke-width:1;" width="10" x="409.9004" y="186.9922"/></g><g><title>FastAPI</title><rect fill="#FFFFFF" height="131.6641" style="stroke:#181818;stroke-width:1;" width="10" x="409.9004" y="420.0547"/></g><g><title>MySQL</title><rect fill="#FFFFFF" height="29.1328" style="stroke:#181818;stroke-width:1;" width="10" x="660.7129" y="216.125"/></g><g><title>MySQL</title><rect fill="#FFFFFF" height="29.1328" style="stroke:#181818;stroke-width:1;" width="10" x="660.7129" y="449.1875"/></g><rect fill="#EEEEEE" height="3" style="stroke:#EEEEEE;stroke-width:1;" width="707.1133" x="0" y="114.1602"/><line style="stroke:#000000;stroke-width:1;" x1="0" x2="707.1133" y1="114.1602" y2="114.1602"/><line style="stroke:#000000;stroke-width:1;" x1="0" x2="707.1133" y1="117.1602" y2="117.1602"/><rect fill="#EEEEEE" height="23.1328" style="stroke:#000000;stroke-width:2;" width="133.4819" x="286.8157" y="103.5938"/><text fill="#000000" font-family="sans-serif" font-size="13" font-weight="700" lengthAdjust="spacing" textLength="114.9561" x="292.8157" y="119.6606">Start CTF Event</text><g class="message" data-entity-1="part1" data-entity-2="part2" data-source-line="7" id="msg1"><polygon fill="#181818" points="217.9702,153.8594,227.9702,157.8594,217.9702,161.8594,221.9702,157.8594" style="stroke:#181818;stroke-width:1;"/><line style="stroke:#181818;stroke-width:1;" x1="30.4321" x2="223.9702" y1="157.8594" y2="157.8594"/><text fill="#000000" font-family="sans-serif" font-size="13" lengthAdjust="spacing" textLength="120.1992" x="37.4321" y="152.7935">Click "Start Event"</text></g><g class="message" data-entity-1="part2" data-entity-2="part3" data-source-line="8" id="msg2"><polygon fill="#181818" points="397.9004,182.9922,407.9004,186.9922,397.9004,190.9922,401.9004,186.9922" style="stroke:#181818;stroke-width:1;"/><line style="stroke:#181818;stroke-width:1;" x1="229.9702" x2="403.9004" y1="186.9922" y2="186.9922"/><text fill="#000000" font-family="sans-serif" font-size="13" lengthAdjust="spacing" textLength="150.6045" x="236.9702" y="181.9263">PUT /admin/event/start</text></g><g class="message" data-entity-1="part3" data-entity-2="part4" data-source-line="11" id="msg3"><polygon fill="#181818" points="648.7129,212.125,658.7129,216.125,648.7129,220.125,652.7129,216.125" style="stroke:#181818;stroke-width:1;"/><line style="stroke:#181818;stroke-width:1;" x1="419.9004" x2="654.7129" y1="216.125" y2="216.125"/><text fill="#000000" font-family="sans-serif" font-size="13" lengthAdjust="spacing" textLength="221.8125" x="426.9004" y="211.0591">Update event_status to "Running"</text></g><g class="message" data-entity-1="part4" data-entity-2="part3" data-source-line="13" id="msg4"><polygon fill="#181818" points="430.9004,241.2578,420.9004,245.2578,430.9004,249.2578,426.9004,245.2578" style="stroke:#181818;stroke-width:1;"/><line style="stroke:#181818;stroke-width:1;stroke-dasharray:2,2;" x1="424.9004" x2="664.7129" y1="245.2578" y2="245.2578"/><text fill="#000000" font-family="sans-serif" font-size="13" lengthAdjust="spacing" textLength="100.7881" x="436.9004" y="240.1919">update success</text></g><g class="message" data-entity-1="part3" data-entity-2="part2" data-source-line="16" id="msg5"><polygon fill="#181818" points="240.9702,270.3906,230.9702,274.3906,240.9702,278.3906,236.9702,274.3906" style="stroke:#181818;stroke-width:1;"/><line style="stroke:#181818;stroke-width:1;stroke-dasharray:2,2;" x1="234.9702" x2="408.9004" y1="274.3906" y2="274.3906"/><text fill="#000000" font-family="sans-serif" font-size="13" lengthAdjust="spacing" textLength="149.8809" x="246.9702" y="269.3247">200 OK (Event started)</text></g><g class="message" data-entity-1="part2" data-entity-2="part1" data-source-line="17" id="msg6"><polygon fill="#181818" points="41.4321,314.6563,31.4321,318.6563,41.4321,322.6563,37.4321,318.6563" style="stroke:#181818;stroke-width:1;"/><line style="stroke:#181818;stroke-width:1;stroke-dasharray:2,2;" x1="35.4321" x2="228.9702" y1="318.6563" y2="318.6563"/><text fill="#000000" font-family="sans-serif" font-size="13" lengthAdjust="spacing" textLength="175.5381" x="47.4321" y="298.4575">"CTF event is now running.</text><text fill="#000000" font-family="sans-serif" font-size="13" lengthAdjust="spacing" textLength="168.9048" x="47.4321" y="313.5903">Players can submit flags."</text></g><rect fill="#EEEEEE" height="3" style="stroke:#EEEEEE;stroke-width:1;" width="707.1133" x="0" y="347.2227"/><line style="stroke:#000000;stroke-width:1;" x1="0" x2="707.1133" y1="347.2227" y2="347.2227"/><line style="stroke:#000000;stroke-width:1;" x1="0" x2="707.1133" y1="350.2227" y2="350.2227"/><rect fill="#EEEEEE" height="23.1328" style="stroke:#000000;stroke-width:2;" width="130.3208" x="288.3962" y="336.6563"/><text fill="#000000" font-family="sans-serif" font-size="13" font-weight="700" lengthAdjust="spacing" textLength="111.7949" x="294.3962" y="352.7231">Stop CTF Event</text><g class="message" data-entity-1="part1" data-entity-2="part2" data-source-line="22" id="msg7"><polygon fill="#181818" points="217.9702,386.9219,227.9702,390.9219,217.9702,394.9219,221.9702,390.9219" style="stroke:#181818;stroke-width:1;"/><line style="stroke:#181818;stroke-width:1;" x1="30.4321" x2="223.9702" y1="390.9219" y2="390.9219"/><text fill="#000000" font-family="sans-serif" font-size="13" lengthAdjust="spacing" textLength="117.9966" x="37.4321" y="385.856">Click "Stop Event"</text></g><g class="message" data-entity-1="part2" data-entity-2="part3" data-source-line="23" id="msg8"><polygon fill="#181818" points="397.9004,416.0547,407.9004,420.0547,397.9004,424.0547,401.9004,420.0547" style="stroke:#181818;stroke-width:1;"/><line style="stroke:#181818;stroke-width:1;" x1="229.9702" x2="403.9004" y1="420.0547" y2="420.0547"/><text fill="#000000" font-family="sans-serif" font-size="13" lengthAdjust="spacing" textLength="148.4019" x="236.9702" y="414.9888">PUT /admin/event/stop</text></g><g class="message" data-entity-1="part3" data-entity-2="part4" data-source-line="26" id="msg9"><polygon fill="#181818" points="648.7129,445.1875,658.7129,449.1875,648.7129,453.1875,652.7129,449.1875" style="stroke:#181818;stroke-width:1;"/><line style="stroke:#181818;stroke-width:1;" x1="419.9004" x2="654.7129" y1="449.1875" y2="449.1875"/><text fill="#000000" font-family="sans-serif" font-size="13" lengthAdjust="spacing" textLength="211.6245" x="426.9004" y="444.1216">Update event_status to "Closed"</text></g><g class="message" data-entity-1="part4" data-entity-2="part3" data-source-line="28" id="msg10"><polygon fill="#181818" points="430.9004,474.3203,420.9004,478.3203,430.9004,482.3203,426.9004,478.3203" style="stroke:#181818;stroke-width:1;"/><line style="stroke:#181818;stroke-width:1;stroke-dasharray:2,2;" x1="424.9004" x2="664.7129" y1="478.3203" y2="478.3203"/><text fill="#000000" font-family="sans-serif" font-size="13" lengthAdjust="spacing" textLength="100.7881" x="436.9004" y="473.2544">update success</text></g><g class="message" data-entity-1="part3" data-entity-2="part2" data-source-line="31" id="msg11"><polygon fill="#181818" points="240.9702,503.4531,230.9702,507.4531,240.9702,511.4531,236.9702,507.4531" style="stroke:#181818;stroke-width:1;"/><line style="stroke:#181818;stroke-width:1;stroke-dasharray:2,2;" x1="234.9702" x2="408.9004" y1="507.4531" y2="507.4531"/><text fill="#000000" font-family="sans-serif" font-size="13" lengthAdjust="spacing" textLength="155.9302" x="246.9702" y="502.3872">200 OK (Event stopped)</text></g><g class="message" data-entity-1="part2" data-entity-2="part1" data-source-line="32" id="msg12"><polygon fill="#181818" points="41.4321,547.7188,31.4321,551.7188,41.4321,555.7188,37.4321,551.7188" style="stroke:#181818;stroke-width:1;"/><line style="stroke:#181818;stroke-width:1;stroke-dasharray:2,2;" x1="35.4321" x2="228.9702" y1="551.7188" y2="551.7188"/><text fill="#000000" font-family="sans-serif" font-size="13" lengthAdjust="spacing" textLength="132.4756" x="47.4321" y="531.52">"CTF event stopped.</text><text fill="#000000" font-family="sans-serif" font-size="13" lengthAdjust="spacing" textLength="129.6445" x="47.4321" y="546.6528">Scoreboard frozen."</text></g><path d="M35,564.7188 L35,649.7188 L235,649.7188 L235,574.7188 L225,564.7188 L35,564.7188" fill="#FEFFDD" style="stroke:#181818;stroke-width:0.5;"/><path d="M225,564.7188 L225,574.7188 L235,574.7188 L225,564.7188" fill="#FEFFDD" style="stroke:#181818;stroke-width:0.5;"/><text fill="#000000" font-family="sans-serif" font-size="13" lengthAdjust="spacing" textLength="179.3149" x="41" y="581.7856">When the event is stopped,</text><text fill="#000000" font-family="sans-serif" font-size="13" lengthAdjust="spacing" textLength="167.2354" x="41" y="596.9185">any new flag submissions</text><text fill="#000000" font-family="sans-serif" font-size="13" lengthAdjust="spacing" textLength="143.2412" x="41" y="612.0513">will be rejected with a</text><text fill="#000000" font-family="sans-serif" font-size="13" lengthAdjust="spacing" textLength="169.749" x="41" y="627.1841">"403 Forbidden" response</text><text fill="#000000" font-family="sans-serif" font-size="13" lengthAdjust="spacing" textLength="172.4531" x="41" y="642.3169">(as shown in diagram #2).</text><?plantuml-src jPF1QXj138RlynHYUh6XiKtIKy21hEs5qfQuTK8lXg2TaRtJh3NBp3Z6VVfgPnsIGWd9eRT5-YJz-ZMB9la0rtRdMBKOaZEkHKwWSmYMoDIiUL06pudO3ZLWX7BnDrjYJDVBpsikq3m8bQ5YeImch30Iw6_7rVUlQvwV0XcO5qfDfx1AqWfcjoKi7acwJQUgdtrs9OFW4cQDCm-WUoupMab2qaMNNjxTmXYxYZ5roN7iG8KckKTCrEbGHSRdXU1thUsY6RqNDEqZ90_wnvxPyLO_5ue-gJXxchFl2-FU68fHMNe9vWbFWiyd4xZv0eD-doo7x31h5gHVxX9qjtAM0Iu2-mE4Ni9epSi6ZnGY66GPMErSWas3spZIwkNWRhNie6_VPA1WR_BFj--sRzRuIFP_kEVRzdNtJeZOjZ8-KEKnMDW4_vlu7twnbu_WjdK2lpazV82VDJ6acfuFSkhwKPB8Hs0wv1FqvuZHUOwIEhYcWKeQqYyoScK9f1fGClhJv09A7ofdBR4M8hPIGv8QoEEFjJymo2hMuJRW3ZwS3qTA_Xte1Fu1?></g></svg>