<svg xmlns="http://www.w3.org/2000/svg" xmlns:xlink="http://www.w3.org/1999/xlink" contentStyleType="text/css" data-diagram-type="SEQUENCE" height="485px" preserveAspectRatio="none" style="width:1043px;height:485px;background:#FFFFFF;" version="1.1" viewBox="0 0 1043 485" width="1043px" zoomAndPan="magnify"><?plantuml 1.2026.3beta6?><defs/><g><g><title>FastAPI</title><rect fill="#FFFFFF" height="102.5313" style="stroke:#181818;stroke-width:1;" width="10" x="571.9365" y="143.8594"/></g><g><title>MySQL</title><rect fill="#FFFFFF" height="29.1328" style="stroke:#181818;stroke-width:1;" width="10" x="991.0552" y="188.125"/></g><g class="participant-lifeline" data-entity-uid="part1" data-qualified-name="Guest" data-source-line="1" id="part1-lifeline"><g><title>Guest</title><rect fill="#000000" fill-opacity="0.00000" height="317.4609" width="8" x="24.5591" y="83.5938"/><line style="stroke:#181818;stroke-width:0.5;stroke-dasharray:5,5;" x1="28" x2="28" y1="83.5938" y2="401.0547"/></g></g><g class="participant-lifeline" data-entity-uid="part2" data-qualified-name="FE" data-source-line="2" id="part2-lifeline"><g><title>Frontend</title><rect fill="#000000" fill-opacity="0.00000" height="317.4609" width="8" x="375.5586" y="83.5938"/><line style="stroke:#181818;stroke-width:0.5;stroke-dasharray:5,5;" x1="378.5771" x2="378.5771" y1="83.5938" y2="401.0547"/></g></g><g class="participant-lifeline" data-entity-uid="part3" data-qualified-name="BE" data-source-line="3" id="part3-lifeline"><g><title>FastAPI</title><rect fill="#000000" fill-opacity="0.00000" height="317.4609" width="8" x="572.9365" y="83.5938"/><line style="stroke:#181818;stroke-width:0.5;stroke-dasharray:5,5;" x1="576.7559" x2="576.7559" y1="83.5938" y2="401.0547"/></g></g><g class="participant-lifeline" data-entity-uid="part4" data-qualified-name="DB" data-source-line="4" id="part4-lifeline"><g><title>MySQL</title><rect fill="#000000" fill-opacity="0.00000" height="317.4609" width="8" x="992.0552" y="83.5938"/><line style="stroke:#181818;stroke-width:0.5;stroke-dasharray:5,5;" x1="995.6548" x2="995.6548" y1="83.5938" y2="401.0547"/></g></g><g class="participant participant-head" data-entity-uid="part1" data-qualified-name="Guest" data-source-line="1" id="part1-head"><text fill="#000000" font-family="sans-serif" font-size="14" lengthAdjust="spacing" textLength="41.1182" x="5" y="80.292">Guest</text><ellipse cx="28.5591" cy="15.7969" fill="#E2E2F0" rx="8" ry="8" style="stroke:#181818;stroke-width:0.5;"/><path d="M28.5591,23.7969 L28.5591,50.7969 M15.5591,31.7969 L41.5591,31.7969 M28.5591,50.7969 L15.5591,65.7969 M28.5591,50.7969 L41.5591,65.7969" fill="none" style="stroke:#181818;stroke-width:0.5;"/></g><g class="participant participant-tail" data-entity-uid="part1" data-qualified-name="Guest" data-source-line="1" id="part1-tail"><text fill="#000000" font-family="sans-serif" font-size="14" lengthAdjust="spacing" textLength="41.1182" x="5" y="413.0498">Guest</text><ellipse cx="28.5591" cy="424.8516" fill="#E2E2F0" rx="8" ry="8" style="stroke:#181818;stroke-width:0.5;"/><path d="M28.5591,432.8516 L28.5591,459.8516 M15.5591,440.8516 L41.5591,440.8516 M28.5591,459.8516 L15.5591,474.8516 M28.5591,459.8516 L41.5591,474.8516" fill="none" style="stroke:#181818;stroke-width:0.5;"/></g><g class="participant participant-head" data-entity-uid="part2" data-qualified-name="FE" data-source-line="2" id="part2-head"><rect fill="#E2E2F0" height="46.5938" rx="2.5" ry="2.5" style="stroke:#181818;stroke-width:0.5;" width="81.9629" x="338.5771" y="36"/><text fill="#000000" font-family="sans-serif" font-size="14" lengthAdjust="spacing" textLength="63.1094" x="348.0039" y="55.9951">Frontend</text><text fill="#000000" font-family="sans-serif" font-size="14" lengthAdjust="spacing" textLength="67.9629" x="345.5771" y="72.292">(Browser)</text></g><g class="participant participant-tail" data-entity-uid="part2" data-qualified-name="FE" data-source-line="2" id="part2-tail"><rect fill="#E2E2F0" height="46.5938" rx="2.5" ry="2.5" style="stroke:#181818;stroke-width:0.5;" width="81.9629" x="338.5771" y="400.0547"/><text fill="#000000" font-family="sans-serif" font-size="14" lengthAdjust="spacing" textLength="63.1094" x="348.0039" y="420.0498">Frontend</text><text fill="#000000" font-family="sans-serif" font-size="14" lengthAdjust="spacing" textLength="67.9629" x="345.5771" y="436.3467">(Browser)</text></g><g class="participant participant-head" data-entity-uid="part3" data-qualified-name="BE" data-source-line="3" id="part3-head"><rect fill="#E2E2F0" height="46.5938" rx="2.5" ry="2.5" style="stroke:#181818;stroke-width:0.5;" width="74.3613" x="539.7559" y="36"/><text fill="#000000" font-family="sans-serif" font-size="14" lengthAdjust="spacing" textLength="51.5635" x="551.1548" y="55.9951">FastAPI</text><text fill="#000000" font-family="sans-serif" font-size="14" lengthAdjust="spacing" textLength="60.3613" x="546.7559" y="72.292">Backend</text></g><g class="participant participant-tail" data-entity-uid="part3" data-qualified-name="BE" data-source-line="3" id="part3-tail"><rect fill="#E2E2F0" height="46.5938" rx="2.5" ry="2.5" style="stroke:#181818;stroke-width:0.5;" width="74.3613" x="539.7559" y="400.0547"/><text fill="#000000" font-family="sans-serif" font-size="14" lengthAdjust="spacing" textLength="51.5635" x="551.1548" y="420.0498">FastAPI</text><text fill="#000000" font-family="sans-serif" font-size="14" lengthAdjust="spacing" textLength="60.3613" x="546.7559" y="436.3467">Backend</text></g><g class="participant participant-head" data-entity-uid="part4" data-qualified-name="DB" data-source-line="4" id="part4-head"><text fill="#000000" font-family="sans-serif" font-size="14" lengthAdjust="spacing" textLength="48.0703" x="969.02" y="63.9951">MySQL</text><text fill="#000000" font-family="sans-serif" font-size="14" lengthAdjust="spacing" textLength="66.8008" x="959.6548" y="80.292">Database</text><path d="M978.0552,15 C978.0552,5 996.0552,5 996.0552,5 C996.0552,5 1014.0552,5 1014.0552,15 L1014.0552,41 C1014.0552,51 996.0552,51 996.0552,51 C996.0552,51 978.0552,51 978.0552,41 L978.0552,15" fill="#E2E2F0" style="stroke:#181818;stroke-width:0.5;"/><path d="M978.0552,15 C978.0552,25 996.0552,25 996.0552,25 C996.0552,25 1014.0552,25 1014.0552,15" fill="none" style="stroke:#181818;stroke-width:0.5;"/></g><g class="participant participant-tail" data-entity-uid="part4" data-qualified-name="DB" data-source-line="4" id="part4-tail"><text fill="#000000" font-family="sans-serif" font-size="14" lengthAdjust="spacing" textLength="48.0703" x="969.02" y="413.0498">MySQL</text><text fill="#000000" font-family="sans-serif" font-size="14" lengthAdjust="spacing" textLength="66.8008" x="959.6548" y="429.3467">Database</text><path d="M978.0552,442.6484 C978.0552,432.6484 996.0552,432.6484 996.0552,432.6484 C996.0552,432.6484 1014.0552,432.6484 1014.0552,442.6484 L1014.0552,468.6484 C1014.0552,478.6484 996.0552,478.6484 996.0552,478.6484 C996.0552,478.6484 978.0552,478.6484 978.0552,468.6484 L978.0552,442.6484" fill="#E2E2F0" style="stroke:#181818;stroke-width:0.5;"/><path d="M978.0552,442.6484 C978.0552,452.6484 996.0552,452.6484 996.0552,452.6484 C996.0552,452.6484 1014.0552,452.6484 1014.0552,442.6484" fill="none" style="stroke:#181818;stroke-width:0.5;"/></g><g><title>FastAPI</title><rect fill="#FFFFFF" height="102.5313" style="stroke:#181818;stroke-width:1;" width="10" x="571.9365" y="143.8594"/></g><g><title>MySQL</title><rect fill="#FFFFFF" height="29.1328" style="stroke:#181818;stroke-width:1;" width="10" x="991.0552" y="188.125"/></g><g class="message" data-entity-1="part1" data-entity-2="part2" data-source-line="6" id="msg1"><polygon fill="#181818" points="367.5586,110.7266,377.5586,114.7266,367.5586,118.7266,371.5586,114.7266" style="stroke:#181818;stroke-width:1;"/><line style="stroke:#181818;stroke-width:1;" x1="28.5591" x2="373.5586" y1="114.7266" y2="114.7266"/><text fill="#000000" font-family="sans-serif" font-size="13" lengthAdjust="spacing" textLength="149.9189" x="35.5591" y="109.6606">Open Scoreboard page</text></g><g class="message" data-entity-1="part2" data-entity-2="part3" data-source-line="7" id="msg2"><polygon fill="#181818" points="559.9365,139.8594,569.9365,143.8594,559.9365,147.8594,563.9365,143.8594" style="stroke:#181818;stroke-width:1;"/><line style="stroke:#181818;stroke-width:1;" x1="379.5586" x2="565.9365" y1="143.8594" y2="143.8594"/><text fill="#000000" font-family="sans-serif" font-size="13" lengthAdjust="spacing" textLength="107.7261" x="386.5586" y="138.7935">GET /scoreboard</text></g><g class="message" data-entity-1="part3" data-entity-2="part4" data-source-line="10" id="msg3"><polygon fill="#181818" points="979.0552,184.125,989.0552,188.125,979.0552,192.125,983.0552,188.125" style="stroke:#181818;stroke-width:1;"/><line style="stroke:#181818;stroke-width:1;" x1="581.9365" x2="985.0552" y1="188.125" y2="188.125"/><text fill="#000000" font-family="sans-serif" font-size="13" lengthAdjust="spacing" textLength="163.5537" x="588.9365" y="167.9263">SELECT users ordered by</text><text fill="#000000" font-family="sans-serif" font-size="13" lengthAdjust="spacing" textLength="223.5137" x="588.9365" y="183.0591">(score DESC, last_solve_time ASC)</text></g><g class="message" data-entity-1="part4" data-entity-2="part3" data-source-line="12" id="msg4"><polygon fill="#181818" points="592.9365,213.2578,582.9365,217.2578,592.9365,221.2578,588.9365,217.2578" style="stroke:#181818;stroke-width:1;"/><line style="stroke:#181818;stroke-width:1;stroke-dasharray:2,2;" x1="586.9365" x2="995.0552" y1="217.2578" y2="217.2578"/><text fill="#000000" font-family="sans-serif" font-size="13" lengthAdjust="spacing" textLength="385.1187" x="598.9365" y="212.1919">ranked list (username, score, solve_count, last_solve_time)</text></g><g class="message" data-entity-1="part3" data-entity-2="part2" data-source-line="15" id="msg5"><polygon fill="#181818" points="390.5586,242.3906,380.5586,246.3906,390.5586,250.3906,386.5586,246.3906" style="stroke:#181818;stroke-width:1;"/><line style="stroke:#181818;stroke-width:1;stroke-dasharray:2,2;" x1="384.5586" x2="575.9365" y1="246.3906" y2="246.3906"/><text fill="#000000" font-family="sans-serif" font-size="13" lengthAdjust="spacing" textLength="168.3779" x="396.5586" y="241.3247">200 OK (scoreboard data)</text></g><g class="message" data-entity-1="part2" data-entity-2="part2" data-source-line="18" id="msg6"><line style="stroke:#181818;stroke-width:1;" x1="379.5586" x2="421.5586" y1="275.5234" y2="275.5234"/><line style="stroke:#181818;stroke-width:1;" x1="421.5586" x2="421.5586" y1="275.5234" y2="288.5234"/><line style="stroke:#181818;stroke-width:1;" x1="380.5586" x2="421.5586" y1="288.5234" y2="288.5234"/><polygon fill="#181818" points="390.5586,284.5234,380.5586,288.5234,390.5586,292.5234,386.5586,288.5234" style="stroke:#181818;stroke-width:1;"/><text fill="#000000" font-family="sans-serif" font-size="13" lengthAdjust="spacing" textLength="161.04" x="386.5586" y="270.4575">Render scoreboard table</text></g><g class="message" data-entity-1="part2" data-entity-2="part1" data-source-line="19" id="msg7"><polygon fill="#181818" points="39.5591,313.6563,29.5591,317.6563,39.5591,321.6563,35.5591,317.6563" style="stroke:#181818;stroke-width:1;"/><line style="stroke:#181818;stroke-width:1;stroke-dasharray:2,2;" x1="33.5591" x2="378.5586" y1="317.6563" y2="317.6563"/><text fill="#000000" font-family="sans-serif" font-size="13" lengthAdjust="spacing" textLength="326.9995" x="45.5591" y="312.5903">Display ranked players with scores &amp; solve counts</text></g><path d="M33,330.6563 L33,385.6563 L186,385.6563 L186,340.6563 L176,330.6563 L33,330.6563" fill="#FEFFDD" style="stroke:#181818;stroke-width:0.5;"/><path d="M176,330.6563 L176,340.6563 L186,340.6563 L176,330.6563" fill="#FEFFDD" style="stroke:#181818;stroke-width:0.5;"/><text fill="#000000" font-family="sans-serif" font-size="13" lengthAdjust="spacing" textLength="116.7842" x="39" y="347.7231">No login required.</text><text fill="#000000" font-family="sans-serif" font-size="13" lengthAdjust="spacing" textLength="132.228" x="39" y="362.856">Scoreboard is public</text><text fill="#000000" font-family="sans-serif" font-size="13" lengthAdjust="spacing" textLength="123.0493" x="39" y="377.9888">and always visible.</text><?plantuml-src PP91Jy9048Nl-ojUE1X808b73YQK5c94KSkHX0pj2XlARjtTGlZtJhSWgASsCs--UVDQohonc5RIUL6IzIfJ9McFriGQxQNEbxeTMNDqqdPQ88T9yaT7pe_UdfOwecp7-Y2A4f6JfpKvYTRBANsVBNLyBWH170aHbgBto4WCCI-bHfePAzU6R8wIDb9mX_jHtPyc2zoxdxwWpAi3ULdl4b7GnH7hqcIMZ1UesB23iRcqCiVwn6U4OSH9EkwYODShPug3N7crbnYbuyuLoUwOrRkijgHt32aKsstNO4rxsKNWyIDGCbDf_u_R4RcyfGQZbuiV1WFCdz6-7eKwj5ypzN5D267aWmEM5ZSJd6dHvCIQ9j4XOkNAWauNu_LxdSPH-Mqpwt3N-4RmxOJGXhTPjTbwcC_p_m2y6XHcepIi_AeK9zdduir7KWvbjIvKncNIEQWuqidXe9nYMtt1Tb6Jlm40?></g></svg>