<svg xmlns="http://www.w3.org/2000/svg" xmlns:xlink="http://www.w3.org/1999/xlink" contentStyleType="text/css" data-diagram-type="SEQUENCE" height="1163px" preserveAspectRatio="none" style="width:940px;height:1163px;background:#FFFFFF;" version="1.1" viewBox="0 0 940 1163" width="940px" zoomAndPan="magnify"><?plantuml 1.2026.3beta6?><defs/><g><g><title>FastAPI</title><rect fill="#FFFFFF" height="87.3984" style="stroke:#181818;stroke-width:1;" width="10" x="603.5845" y="186.9922"/></g><g><title>FastAPI</title><rect fill="#FFFFFF" height="102.5313" style="stroke:#181818;stroke-width:1;" width="10" x="603.5845" y="404.9219"/></g><g><title>FastAPI</title><rect fill="#FFFFFF" height="102.5313" style="stroke:#181818;stroke-width:1;" width="10" x="603.5845" y="680.1172"/></g><g><title>FastAPI</title><rect fill="#FFFFFF" height="100.3984" style="stroke:#181818;stroke-width:1;" width="10" x="603.5845" y="909.3125"/></g><g><title>MySQL</title><rect fill="#FFFFFF" height="29.1328" style="stroke:#181818;stroke-width:1;" width="10" x="887.665" y="216.125"/></g><g><title>MySQL</title><rect fill="#FFFFFF" height="29.1328" style="stroke:#181818;stroke-width:1;" width="10" x="887.665" y="449.1875"/></g><g><title>MySQL</title><rect fill="#FFFFFF" height="29.1328" style="stroke:#181818;stroke-width:1;" width="10" x="887.665" y="724.3828"/></g><rect fill="none" height="219.7344" style="stroke:#000000;stroke-width:1.5;" width="823.2363" x="10" y="841.9141"/><g class="participant-lifeline" data-entity-uid="part1" data-qualified-name="Player" data-source-line="1" id="part1-lifeline"><g><title>Player</title><rect fill="#000000" fill-opacity="0.00000" height="995.0547" width="8" x="40.7827" y="83.5938"/><line style="stroke:#181818;stroke-width:0.5;stroke-dasharray:5,5;" x1="44" x2="44" y1="83.5938" y2="1078.6484"/></g></g><g class="participant-lifeline" data-entity-uid="part2" data-qualified-name="FE" data-source-line="2" id="part2-lifeline"><g><title>Frontend</title><rect fill="#000000" fill-opacity="0.00000" height="995.0547" width="8" x="326.3696" y="83.5938"/><line style="stroke:#181818;stroke-width:0.5;stroke-dasharray:5,5;" x1="329.3882" x2="329.3882" y1="83.5938" y2="1078.6484"/></g></g><g class="participant-lifeline" data-entity-uid="part3" data-qualified-name="BE" data-source-line="3" id="part3-lifeline"><g><title>FastAPI</title><rect fill="#000000" fill-opacity="0.00000" height="995.0547" width="8" x="604.5845" y="83.5938"/><line style="stroke:#181818;stroke-width:0.5;stroke-dasharray:5,5;" x1="608.4038" x2="608.4038" y1="83.5938" y2="1078.6484"/></g></g><g class="participant-lifeline" data-entity-uid="part4" data-qualified-name="DB" data-source-line="4" id="part4-lifeline"><g><title>MySQL</title><rect fill="#000000" fill-opacity="0.00000" height="995.0547" width="8" x="888.665" y="83.5938"/><line style="stroke:#181818;stroke-width:0.5;stroke-dasharray:5,5;" x1="892.2646" x2="892.2646" y1="83.5938" y2="1078.6484"/></g></g><g class="participant participant-head" data-entity-uid="part1" data-qualified-name="Player" data-source-line="1" id="part1-head"><text fill="#000000" font-family="sans-serif" font-size="14" lengthAdjust="spacing" textLength="43.5654" x="20" y="80.292">Player</text><ellipse cx="44.7827" cy="15.7969" fill="#E2E2F0" rx="8" ry="8" style="stroke:#181818;stroke-width:0.5;"/><path d="M44.7827,23.7969 L44.7827,50.7969 M31.7827,31.7969 L57.7827,31.7969 M44.7827,50.7969 L31.7827,65.7969 M44.7827,50.7969 L57.7827,65.7969" fill="none" style="stroke:#181818;stroke-width:0.5;"/></g><g class="participant participant-tail" data-entity-uid="part1" data-qualified-name="Player" data-source-line="1" id="part1-tail"><text fill="#000000" font-family="sans-serif" font-size="14" lengthAdjust="spacing" textLength="43.5654" x="20" y="1090.6436">Player</text><ellipse cx="44.7827" cy="1102.4453" fill="#E2E2F0" rx="8" ry="8" style="stroke:#181818;stroke-width:0.5;"/><path d="M44.7827,1110.4453 L44.7827,1137.4453 M31.7827,1118.4453 L57.7827,1118.4453 M44.7827,1137.4453 L31.7827,1152.4453 M44.7827,1137.4453 L57.7827,1152.4453" fill="none" style="stroke:#181818;stroke-width:0.5;"/></g><g class="participant participant-head" data-entity-uid="part2" data-qualified-name="FE" data-source-line="2" id="part2-head"><rect fill="#E2E2F0" height="46.5938" rx="2.5" ry="2.5" style="stroke:#181818;stroke-width:0.5;" width="81.9629" x="289.3882" y="36"/><text fill="#000000" font-family="sans-serif" font-size="14" lengthAdjust="spacing" textLength="63.1094" x="298.8149" y="55.9951">Frontend</text><text fill="#000000" font-family="sans-serif" font-size="14" lengthAdjust="spacing" textLength="67.9629" x="296.3882" y="72.292">(Browser)</text></g><g class="participant participant-tail" data-entity-uid="part2" data-qualified-name="FE" data-source-line="2" id="part2-tail"><rect fill="#E2E2F0" height="46.5938" rx="2.5" ry="2.5" style="stroke:#181818;stroke-width:0.5;" width="81.9629" x="289.3882" y="1077.6484"/><text fill="#000000" font-family="sans-serif" font-size="14" lengthAdjust="spacing" textLength="63.1094" x="298.8149" y="1097.6436">Frontend</text><text fill="#000000" font-family="sans-serif" font-size="14" lengthAdjust="spacing" textLength="67.9629" x="296.3882" y="1113.9404">(Browser)</text></g><g class="participant participant-head" data-entity-uid="part3" data-qualified-name="BE" data-source-line="3" id="part3-head"><rect fill="#E2E2F0" height="46.5938" rx="2.5" ry="2.5" style="stroke:#181818;stroke-width:0.5;" width="74.3613" x="571.4038" y="36"/><text fill="#000000" font-family="sans-serif" font-size="14" lengthAdjust="spacing" textLength="51.5635" x="582.8027" y="55.9951">FastAPI</text><text fill="#000000" font-family="sans-serif" font-size="14" lengthAdjust="spacing" textLength="60.3613" x="578.4038" y="72.292">Backend</text></g><g class="participant participant-tail" data-entity-uid="part3" data-qualified-name="BE" data-source-line="3" id="part3-tail"><rect fill="#E2E2F0" height="46.5938" rx="2.5" ry="2.5" style="stroke:#181818;stroke-width:0.5;" width="74.3613" x="571.4038" y="1077.6484"/><text fill="#000000" font-family="sans-serif" font-size="14" lengthAdjust="spacing" textLength="51.5635" x="582.8027" y="1097.6436">FastAPI</text><text fill="#000000" font-family="sans-serif" font-size="14" lengthAdjust="spacing" textLength="60.3613" x="578.4038" y="1113.9404">Backend</text></g><g class="participant participant-head" data-entity-uid="part4" data-qualified-name="DB" data-source-line="4" id="part4-head"><text fill="#000000" font-family="sans-serif" font-size="14" lengthAdjust="spacing" textLength="48.0703" x="865.6299" y="63.9951">MySQL</text><text fill="#000000" font-family="sans-serif" font-size="14" lengthAdjust="spacing" textLength="66.8008" x="856.2646" y="80.292">Database</text><path d="M874.665,15 C874.665,5 892.665,5 892.665,5 C892.665,5 910.665,5 910.665,15 L910.665,41 C910.665,51 892.665,51 892.665,51 C892.665,51 874.665,51 874.665,41 L874.665,15" fill="#E2E2F0" style="stroke:#181818;stroke-width:0.5;"/><path d="M874.665,15 C874.665,25 892.665,25 892.665,25 C892.665,25 910.665,25 910.665,15" fill="none" style="stroke:#181818;stroke-width:0.5;"/></g><g class="participant participant-tail" data-entity-uid="part4" data-qualified-name="DB" data-source-line="4" id="part4-tail"><text fill="#000000" font-family="sans-serif" font-size="14" lengthAdjust="spacing" textLength="48.0703" x="865.6299" y="1090.6436">MySQL</text><text fill="#000000" font-family="sans-serif" font-size="14" lengthAdjust="spacing" textLength="66.8008" x="856.2646" y="1106.9404">Database</text><path d="M874.665,1120.2422 C874.665,1110.2422 892.665,1110.2422 892.665,1110.2422 C892.665,1110.2422 910.665,1110.2422 910.665,1120.2422 L910.665,1146.2422 C910.665,1156.2422 892.665,1156.2422 892.665,1156.2422 C892.665,1156.2422 874.665,1156.2422 874.665,1146.2422 L874.665,1120.2422" fill="#E2E2F0" style="stroke:#181818;stroke-width:0.5;"/><path d="M874.665,1120.2422 C874.665,1130.2422 892.665,1130.2422 892.665,1130.2422 C892.665,1130.2422 910.665,1130.2422 910.665,1120.2422" fill="none" style="stroke:#181818;stroke-width:0.5;"/></g><g><title>FastAPI</title><rect fill="#FFFFFF" height="87.3984" style="stroke:#181818;stroke-width:1;" width="10" x="603.5845" y="186.9922"/></g><g><title>FastAPI</title><rect fill="#FFFFFF" height="102.5313" style="stroke:#181818;stroke-width:1;" width="10" x="603.5845" y="404.9219"/></g><g><title>FastAPI</title><rect fill="#FFFFFF" height="102.5313" style="stroke:#181818;stroke-width:1;" width="10" x="603.5845" y="680.1172"/></g><g><title>FastAPI</title><rect fill="#FFFFFF" height="100.3984" style="stroke:#181818;stroke-width:1;" width="10" x="603.5845" y="909.3125"/></g><g><title>MySQL</title><rect fill="#FFFFFF" height="29.1328" style="stroke:#181818;stroke-width:1;" width="10" x="887.665" y="216.125"/></g><g><title>MySQL</title><rect fill="#FFFFFF" height="29.1328" style="stroke:#181818;stroke-width:1;" width="10" x="887.665" y="449.1875"/></g><g><title>MySQL</title><rect fill="#FFFFFF" height="29.1328" style="stroke:#181818;stroke-width:1;" width="10" x="887.665" y="724.3828"/></g><rect fill="#EEEEEE" height="3" style="stroke:#EEEEEE;stroke-width:1;" width="934.0654" x="0" y="114.1602"/><line style="stroke:#000000;stroke-width:1;" x1="0" x2="934.0654" y1="114.1602" y2="114.1602"/><line style="stroke:#000000;stroke-width:1;" x1="0" x2="934.0654" y1="117.1602" y2="117.1602"/><rect fill="#EEEEEE" height="23.1328" style="stroke:#000000;stroke-width:2;" width="155.8701" x="389.0977" y="103.5938"/><text fill="#000000" font-family="sans-serif" font-size="13" font-weight="700" lengthAdjust="spacing" textLength="137.3442" x="395.0977" y="119.6606">Browse Categories</text><g class="message" data-entity-1="part1" data-entity-2="part2" data-source-line="7" id="msg1"><polygon fill="#181818" points="318.3696,153.8594,328.3696,157.8594,318.3696,161.8594,322.3696,157.8594" style="stroke:#181818;stroke-width:1;"/><line style="stroke:#181818;stroke-width:1;" x1="44.7827" x2="324.3696" y1="157.8594" y2="157.8594"/><text fill="#000000" font-family="sans-serif" font-size="13" lengthAdjust="spacing" textLength="187.9922" x="51.7827" y="152.7935">Navigate to Challenges page</text></g><g class="message" data-entity-1="part2" data-entity-2="part3" data-source-line="8" id="msg2"><polygon fill="#181818" points="591.5845,182.9922,601.5845,186.9922,591.5845,190.9922,595.5845,186.9922" style="stroke:#181818;stroke-width:1;"/><line style="stroke:#181818;stroke-width:1;" x1="330.3696" x2="597.5845" y1="186.9922" y2="186.9922"/><text fill="#000000" font-family="sans-serif" font-size="13" lengthAdjust="spacing" textLength="102.8828" x="337.3696" y="181.9263">GET /categories</text></g><g class="message" data-entity-1="part3" data-entity-2="part4" data-source-line="10" id="msg3"><polygon fill="#181818" points="875.665,212.125,885.665,216.125,875.665,220.125,879.665,216.125" style="stroke:#181818;stroke-width:1;"/><line style="stroke:#181818;stroke-width:1;" x1="613.5845" x2="881.665" y1="216.125" y2="216.125"/><text fill="#000000" font-family="sans-serif" font-size="13" lengthAdjust="spacing" textLength="140.5371" x="620.5845" y="211.0591">SELECT all categories</text></g><g class="message" data-entity-1="part4" data-entity-2="part3" data-source-line="12" id="msg4"><polygon fill="#181818" points="624.5845,241.2578,614.5845,245.2578,624.5845,249.2578,620.5845,245.2578" style="stroke:#181818;stroke-width:1;"/><line style="stroke:#181818;stroke-width:1;stroke-dasharray:2,2;" x1="618.5845" x2="891.665" y1="245.2578" y2="245.2578"/><text fill="#000000" font-family="sans-serif" font-size="13" lengthAdjust="spacing" textLength="80.6787" x="630.5845" y="240.1919">category list</text></g><g class="message" data-entity-1="part3" data-entity-2="part2" data-source-line="14" id="msg5"><polygon fill="#181818" points="341.3696,270.3906,331.3696,274.3906,341.3696,278.3906,337.3696,274.3906" style="stroke:#181818;stroke-width:1;"/><line style="stroke:#181818;stroke-width:1;stroke-dasharray:2,2;" x1="335.3696" x2="607.5845" y1="274.3906" y2="274.3906"/><text fill="#000000" font-family="sans-serif" font-size="13" lengthAdjust="spacing" textLength="130.1206" x="347.3696" y="269.3247">200 OK (categories)</text></g><g class="message" data-entity-1="part2" data-entity-2="part1" data-source-line="16" id="msg6"><polygon fill="#181818" points="55.7827,299.5234,45.7827,303.5234,55.7827,307.5234,51.7827,303.5234" style="stroke:#181818;stroke-width:1;"/><line style="stroke:#181818;stroke-width:1;stroke-dasharray:2,2;" x1="49.7827" x2="329.3696" y1="303.5234" y2="303.5234"/><text fill="#000000" font-family="sans-serif" font-size="13" lengthAdjust="spacing" textLength="187.3892" x="61.7827" y="298.4575">Display challenge categories</text></g><rect fill="#EEEEEE" height="3" style="stroke:#EEEEEE;stroke-width:1;" width="934.0654" x="0" y="332.0898"/><line style="stroke:#000000;stroke-width:1;" x1="0" x2="934.0654" y1="332.0898" y2="332.0898"/><line style="stroke:#000000;stroke-width:1;" x1="0" x2="934.0654" y1="335.0898" y2="335.0898"/><rect fill="#EEEEEE" height="23.1328" style="stroke:#000000;stroke-width:2;" width="228.0366" x="353.0144" y="321.5234"/><text fill="#000000" font-family="sans-serif" font-size="13" font-weight="700" lengthAdjust="spacing" textLength="209.5107" x="359.0144" y="337.5903">View Challenges in Category</text><g class="message" data-entity-1="part1" data-entity-2="part2" data-source-line="19" id="msg7"><polygon fill="#181818" points="318.3696,371.7891,328.3696,375.7891,318.3696,379.7891,322.3696,375.7891" style="stroke:#181818;stroke-width:1;"/><line style="stroke:#181818;stroke-width:1;" x1="44.7827" x2="324.3696" y1="375.7891" y2="375.7891"/><text fill="#000000" font-family="sans-serif" font-size="13" lengthAdjust="spacing" textLength="104.6602" x="51.7827" y="370.7231">Click a category</text></g><g class="message" data-entity-1="part2" data-entity-2="part3" data-source-line="20" id="msg8"><polygon fill="#181818" points="591.5845,400.9219,601.5845,404.9219,591.5845,408.9219,595.5845,404.9219" style="stroke:#181818;stroke-width:1;"/><line style="stroke:#181818;stroke-width:1;" x1="330.3696" x2="597.5845" y1="404.9219" y2="404.9219"/><text fill="#000000" font-family="sans-serif" font-size="13" lengthAdjust="spacing" textLength="234.9395" x="337.3696" y="399.856">GET /challenges?category={cat_id}</text></g><g class="message" data-entity-1="part3" data-entity-2="part4" data-source-line="22" id="msg9"><polygon fill="#181818" points="875.665,445.1875,885.665,449.1875,875.665,453.1875,879.665,449.1875" style="stroke:#181818;stroke-width:1;"/><line style="stroke:#181818;stroke-width:1;" x1="613.5845" x2="881.665" y1="449.1875" y2="449.1875"/><text fill="#000000" font-family="sans-serif" font-size="13" lengthAdjust="spacing" textLength="255.0806" x="620.5845" y="428.9888">SELECT challenges WHERE category_id</text><text fill="#000000" font-family="sans-serif" font-size="13" lengthAdjust="spacing" textLength="230.0645" x="620.5845" y="444.1216">(incl. points, solved status for user)</text></g><g class="message" data-entity-1="part4" data-entity-2="part3" data-source-line="24" id="msg10"><polygon fill="#181818" points="624.5845,474.3203,614.5845,478.3203,624.5845,482.3203,620.5845,478.3203" style="stroke:#181818;stroke-width:1;"/><line style="stroke:#181818;stroke-width:1;stroke-dasharray:2,2;" x1="618.5845" x2="891.665" y1="478.3203" y2="478.3203"/><text fill="#000000" font-family="sans-serif" font-size="13" lengthAdjust="spacing" textLength="209.8726" x="630.5845" y="473.2544">challenge list (with solved flags)</text></g><g class="message" data-entity-1="part3" data-entity-2="part2" data-source-line="26" id="msg11"><polygon fill="#181818" points="341.3696,503.4531,331.3696,507.4531,341.3696,511.4531,337.3696,507.4531" style="stroke:#181818;stroke-width:1;"/><line style="stroke:#181818;stroke-width:1;stroke-dasharray:2,2;" x1="335.3696" x2="607.5845" y1="507.4531" y2="507.4531"/><text fill="#000000" font-family="sans-serif" font-size="13" lengthAdjust="spacing" textLength="131.8154" x="347.3696" y="502.3872">200 OK (challenges)</text></g><g class="message" data-entity-1="part2" data-entity-2="part2" data-source-line="28" id="msg12"><line style="stroke:#181818;stroke-width:1;" x1="330.3696" x2="372.3696" y1="536.5859" y2="536.5859"/><line style="stroke:#181818;stroke-width:1;" x1="372.3696" x2="372.3696" y1="536.5859" y2="549.5859"/><line style="stroke:#181818;stroke-width:1;" x1="331.3696" x2="372.3696" y1="549.5859" y2="549.5859"/><polygon fill="#181818" points="341.3696,545.5859,331.3696,549.5859,341.3696,553.5859,337.3696,549.5859" style="stroke:#181818;stroke-width:1;"/><text fill="#000000" font-family="sans-serif" font-size="13" lengthAdjust="spacing" textLength="264.2148" x="337.3696" y="531.52">Render challenges, marking solved ones</text></g><g class="message" data-entity-1="part2" data-entity-2="part1" data-source-line="29" id="msg13"><polygon fill="#181818" points="55.7827,574.7188,45.7827,578.7188,55.7827,582.7188,51.7827,578.7188" style="stroke:#181818;stroke-width:1;"/><line style="stroke:#181818;stroke-width:1;stroke-dasharray:2,2;" x1="49.7827" x2="329.3696" y1="578.7188" y2="578.7188"/><text fill="#000000" font-family="sans-serif" font-size="13" lengthAdjust="spacing" textLength="261.5869" x="61.7827" y="573.6528">Show challenge cards (solved/unsolved)</text></g><rect fill="#EEEEEE" height="3" style="stroke:#EEEEEE;stroke-width:1;" width="934.0654" x="0" y="607.2852"/><line style="stroke:#000000;stroke-width:1;" x1="0" x2="934.0654" y1="607.2852" y2="607.2852"/><line style="stroke:#000000;stroke-width:1;" x1="0" x2="934.0654" y1="610.2852" y2="610.2852"/><rect fill="#EEEEEE" height="23.1328" style="stroke:#000000;stroke-width:2;" width="310.8164" x="311.6245" y="596.7188"/><text fill="#000000" font-family="sans-serif" font-size="13" font-weight="700" lengthAdjust="spacing" textLength="292.2905" x="317.6245" y="612.7856">View Challenge Details &amp; Download File</text><g class="message" data-entity-1="part1" data-entity-2="part2" data-source-line="32" id="msg14"><polygon fill="#181818" points="318.3696,646.9844,328.3696,650.9844,318.3696,654.9844,322.3696,650.9844" style="stroke:#181818;stroke-width:1;"/><line style="stroke:#181818;stroke-width:1;" x1="44.7827" x2="324.3696" y1="650.9844" y2="650.9844"/><text fill="#000000" font-family="sans-serif" font-size="13" lengthAdjust="spacing" textLength="110.2715" x="51.7827" y="645.9185">Click a challenge</text></g><g class="message" data-entity-1="part2" data-entity-2="part3" data-source-line="33" id="msg15"><polygon fill="#181818" points="591.5845,676.1172,601.5845,680.1172,591.5845,684.1172,595.5845,680.1172" style="stroke:#181818;stroke-width:1;"/><line style="stroke:#181818;stroke-width:1;" x1="330.3696" x2="597.5845" y1="680.1172" y2="680.1172"/><text fill="#000000" font-family="sans-serif" font-size="13" lengthAdjust="spacing" textLength="137.3633" x="337.3696" y="675.0513">GET /challenges/{id}</text></g><g class="message" data-entity-1="part3" data-entity-2="part4" data-source-line="35" id="msg16"><polygon fill="#181818" points="875.665,720.3828,885.665,724.3828,875.665,728.3828,879.665,724.3828" style="stroke:#181818;stroke-width:1;"/><line style="stroke:#181818;stroke-width:1;" x1="613.5845" x2="881.665" y1="724.3828" y2="724.3828"/><text fill="#000000" font-family="sans-serif" font-size="13" lengthAdjust="spacing" textLength="163.5791" x="620.5845" y="704.1841">SELECT challenge details</text><text fill="#000000" font-family="sans-serif" font-size="13" lengthAdjust="spacing" textLength="146.542" x="620.5845" y="719.3169">(description, file_path)</text></g><g class="message" data-entity-1="part4" data-entity-2="part3" data-source-line="37" id="msg17"><polygon fill="#181818" points="624.5845,749.5156,614.5845,753.5156,624.5845,757.5156,620.5845,753.5156" style="stroke:#181818;stroke-width:1;"/><line style="stroke:#181818;stroke-width:1;stroke-dasharray:2,2;" x1="618.5845" x2="891.665" y1="753.5156" y2="753.5156"/><text fill="#000000" font-family="sans-serif" font-size="13" lengthAdjust="spacing" textLength="96.478" x="630.5845" y="748.4497">challenge data</text></g><g class="message" data-entity-1="part3" data-entity-2="part2" data-source-line="39" id="msg18"><polygon fill="#181818" points="341.3696,778.6484,331.3696,782.6484,341.3696,786.6484,337.3696,782.6484" style="stroke:#181818;stroke-width:1;"/><line style="stroke:#181818;stroke-width:1;stroke-dasharray:2,2;" x1="335.3696" x2="607.5845" y1="782.6484" y2="782.6484"/><text fill="#000000" font-family="sans-serif" font-size="13" lengthAdjust="spacing" textLength="190.8359" x="347.3696" y="777.5825">200 OK (description, file info)</text></g><g class="message" data-entity-1="part2" data-entity-2="part1" data-source-line="41" id="msg19"><polygon fill="#181818" points="55.7827,822.9141,45.7827,826.9141,55.7827,830.9141,51.7827,826.9141" style="stroke:#181818;stroke-width:1;"/><line style="stroke:#181818;stroke-width:1;stroke-dasharray:2,2;" x1="49.7827" x2="329.3696" y1="826.9141" y2="826.9141"/><text fill="#000000" font-family="sans-serif" font-size="13" lengthAdjust="spacing" textLength="178.6865" x="61.7827" y="806.7153">Show challenge description</text><text fill="#000000" font-family="sans-serif" font-size="13" lengthAdjust="spacing" textLength="198.3452" x="61.7827" y="821.8481">download button (if file exists)</text></g><path d="M10,841.9141 L74.4429,841.9141 L74.4429,849.0469 L64.4429,859.0469 L10,859.0469 L10,841.9141" fill="#EEEEEE" style="stroke:#000000;stroke-width:1.5;"/><rect fill="none" height="219.7344" style="stroke:#000000;stroke-width:1.5;" width="823.2363" x="10" y="841.9141"/><text fill="#000000" font-family="sans-serif" font-size="13" font-weight="700" lengthAdjust="spacing" textLength="19.4429" x="25" y="854.981">alt</text><text fill="#000000" font-family="sans-serif" font-size="11" font-weight="700" lengthAdjust="spacing" textLength="70.3506" x="89.4429" y="854.1245">[file exists]</text><g class="message" data-entity-1="part1" data-entity-2="part2" data-source-line="44" id="msg20"><polygon fill="#181818" points="318.3696,876.1797,328.3696,880.1797,318.3696,884.1797,322.3696,880.1797" style="stroke:#181818;stroke-width:1;"/><line style="stroke:#181818;stroke-width:1;" x1="44.7827" x2="324.3696" y1="880.1797" y2="880.1797"/><text fill="#000000" font-family="sans-serif" font-size="13" lengthAdjust="spacing" textLength="111.687" x="51.7827" y="875.1138">Click "Download"</text></g><g class="message" data-entity-1="part2" data-entity-2="part3" data-source-line="45" id="msg21"><polygon fill="#181818" points="591.5845,905.3125,601.5845,909.3125,591.5845,913.3125,595.5845,909.3125" style="stroke:#181818;stroke-width:1;"/><line style="stroke:#181818;stroke-width:1;" x1="330.3696" x2="597.5845" y1="909.3125" y2="909.3125"/><text fill="#000000" font-family="sans-serif" font-size="13" lengthAdjust="spacing" textLength="204.604" x="337.3696" y="904.2466">GET /challenges/{id}/download</text></g><g class="message" data-entity-1="part3" data-entity-2="part3" data-source-line="47" id="msg22"><line style="stroke:#181818;stroke-width:1;" x1="613.5845" x2="655.5845" y1="938.4453" y2="938.4453"/><line style="stroke:#181818;stroke-width:1;" x1="655.5845" x2="655.5845" y1="938.4453" y2="951.4453"/><line style="stroke:#181818;stroke-width:1;" x1="614.5845" x2="655.5845" y1="951.4453" y2="951.4453"/><polygon fill="#181818" points="624.5845,947.4453,614.5845,951.4453,624.5845,955.4453,620.5845,951.4453" style="stroke:#181818;stroke-width:1;"/><text fill="#000000" font-family="sans-serif" font-size="13" lengthAdjust="spacing" textLength="190.6519" x="620.5845" y="933.3794">Read file from server storage</text></g><g class="message" data-entity-1="part3" data-entity-2="part2" data-source-line="48" id="msg23"><polygon fill="#181818" points="341.3696,976.5781,331.3696,980.5781,341.3696,984.5781,337.3696,980.5781" style="stroke:#181818;stroke-width:1;"/><line style="stroke:#181818;stroke-width:1;stroke-dasharray:2,2;" x1="335.3696" x2="602.5845" y1="980.5781" y2="980.5781"/><text fill="#000000" font-family="sans-serif" font-size="13" lengthAdjust="spacing" textLength="131.752" x="347.3696" y="975.5122">200 OK (file stream)</text></g><g class="message" data-entity-1="part2" data-entity-2="part1" data-source-line="49" id="msg24"><polygon fill="#181818" points="55.7827,1005.7109,45.7827,1009.7109,55.7827,1013.7109,51.7827,1009.7109" style="stroke:#181818;stroke-width:1;"/><line style="stroke:#181818;stroke-width:1;stroke-dasharray:2,2;" x1="49.7827" x2="329.3696" y1="1009.7109" y2="1009.7109"/><text fill="#000000" font-family="sans-serif" font-size="13" lengthAdjust="spacing" textLength="170.168" x="61.7827" y="1004.645">Trigger browser download</text></g><line style="stroke:#000000;stroke-width:1;stroke-dasharray:2,2;" x1="10" x2="833.2363" y1="1018.7109" y2="1018.7109"/><text fill="#000000" font-family="sans-serif" font-size="11" font-weight="700" lengthAdjust="spacing" textLength="49.0596" x="15" y="1028.9214">[no file]</text><g class="message" data-entity-1="part2" data-entity-2="part1" data-source-line="52" id="msg25"><polygon fill="#181818" points="55.7827,1049.6484,45.7827,1053.6484,55.7827,1057.6484,51.7827,1053.6484" style="stroke:#181818;stroke-width:1;"/><line style="stroke:#181818;stroke-width:1;stroke-dasharray:2,2;" x1="49.7827" x2="329.3696" y1="1053.6484" y2="1053.6484"/><text fill="#000000" font-family="sans-serif" font-size="13" lengthAdjust="spacing" textLength="170.625" x="61.7827" y="1048.5825">"No file for this challenge"</text></g><?plantuml-src bPHVRzem5CNVyockyZ21H4UrnqfiMaZOfdLT1sXxGQekYHCiZ1tP1eQgVlVT_748D2qTJoRwtUlZSwwDiLKQxWKUcFPor9R7F4TfmPze9IsJoKBs0gtsXkc-3sXW4frnQEpd-syB6M2y9hw4WiXBqE8I3GF_ns7swtOXm_f32OI1vur6K7M6CLgMASsPWT78gzJ0rKVQ2sxW3dSy8m2iWl4AXM0o8p37Z7a441OKs9Te3iEuQUHXRFckA2CjGOc50M6pw3OQpu7QG1TCkWYxSarhv0226-ibhCqLJPt63zVNyFCxz8uj-ssQ94mgkZxR3OJSvBI6s9seBQUmvZTd-_PvkNGs7JfC6WiUhm4RmS-TQJfzSipeaLOFF7cwuDMn5FvyZQPHimdLqdHm6Olta2ikhHc0KMB74Z0MxTP0IiErBKRdPOURynSMGs_FxSerIGLcfqQ-P7kZiCls6fxIS99ZHtO06zHhBZEtdvBa_NbGivNQdwIa4mEzgcAubTMYtn4PXCmY5mRUGQZsKYXCOC85UoqzL_jAVCF7_qWCaae3nPGm4skUMwxa05BIyP2ZNRqbcE8clo64PnlGoARgqZquixVLP24JPzjoQwsIqEDfrPZzfLcXh3qKjlt50_frUkkx2FoIkM3lqErSmctvnV_WM3nbfAuKa6gr0Phq7Mrjw4qjNYS7dpjL5XYh6MxwZPosANFDiunMo-hXXHCvftuoGU-dLAM8pbx-dQeLqbsqAswERliUNOb_?></g></svg>