<svg xmlns="http://www.w3.org/2000/svg" xmlns:xlink="http://www.w3.org/1999/xlink" contentStyleType="text/css" data-diagram-type="SEQUENCE" height="1281px" preserveAspectRatio="none" style="width:903px;height:1281px;background:#FFFFFF;" version="1.1" viewBox="0 0 903 1281" width="903px" zoomAndPan="magnify"><?plantuml 1.2026.3beta6?><defs/><g><g><title>FastAPI</title><rect fill="#FFFFFF" height="386.3984" style="stroke:#181818;stroke-width:1;" width="10" x="560.4375" y="202.125"/></g><g><title>FastAPI</title><rect fill="#FFFFFF" height="489.6016" style="stroke:#181818;stroke-width:1;" width="10" x="560.4375" y="697.0547"/></g><g><title>MySQL</title><rect fill="#FFFFFF" height="29.1328" style="stroke:#181818;stroke-width:1;" width="10" x="836.207" y="273.3906"/></g><g><title>MySQL</title><rect fill="#FFFFFF" height="29.1328" style="stroke:#181818;stroke-width:1;" width="10" x="836.207" y="486.125"/></g><g><title>MySQL</title><rect fill="#FFFFFF" height="29.1328" style="stroke:#181818;stroke-width:1;" width="10" x="836.207" y="726.1875"/></g><rect fill="none" height="264" style="stroke:#000000;stroke-width:1.5;" width="867.6074" x="20" y="317.5234"/><rect fill="none" height="409.3359" style="stroke:#000000;stroke-width:1.5;" width="771.2661" x="10" y="770.3203"/><rect fill="none" height="263" style="stroke:#000000;stroke-width:1.5;" width="728.6328" x="20" y="909.6563"/><g class="participant-lifeline" data-entity-uid="part1" data-qualified-name="Guest" data-source-line="1" id="part1-lifeline"><g><title>Guest</title><rect fill="#000000" fill-opacity="0.00000" height="1113.0625" width="8" x="49.5591" y="83.5938"/><line style="stroke:#181818;stroke-width:0.5;stroke-dasharray:5,5;" x1="53" x2="53" y1="83.5938" y2="1196.6563"/></g></g><g class="participant-lifeline" data-entity-uid="part2" data-qualified-name="FE" data-source-line="2" id="part2-lifeline"><g><title>Frontend</title><rect fill="#000000" fill-opacity="0.00000" height="1113.0625" width="8" x="282.5557" y="83.5938"/><line style="stroke:#181818;stroke-width:0.5;stroke-dasharray:5,5;" x1="285.5742" x2="285.5742" y1="83.5938" y2="1196.6563"/></g></g><g class="participant-lifeline" data-entity-uid="part3" data-qualified-name="BE" data-source-line="3" id="part3-lifeline"><g><title>FastAPI</title><rect fill="#000000" fill-opacity="0.00000" height="1113.0625" width="8" x="561.4375" y="83.5938"/><line style="stroke:#181818;stroke-width:0.5;stroke-dasharray:5,5;" x1="565.2568" x2="565.2568" y1="83.5938" y2="1196.6563"/></g></g><g class="participant-lifeline" data-entity-uid="part4" data-qualified-name="DB" data-source-line="4" id="part4-lifeline"><g><title>MySQL</title><rect fill="#000000" fill-opacity="0.00000" height="1113.0625" width="8" x="837.207" y="83.5938"/><line style="stroke:#181818;stroke-width:0.5;stroke-dasharray:5,5;" x1="840.8066" x2="840.8066" y1="83.5938" y2="1196.6563"/></g></g><g class="participant participant-head" data-entity-uid="part1" data-qualified-name="Guest" data-source-line="1" id="part1-head"><text fill="#000000" font-family="sans-serif" font-size="14" lengthAdjust="spacing" textLength="41.1182" x="30" y="80.292">Guest</text><ellipse cx="53.5591" cy="15.7969" fill="#E2E2F0" rx="8" ry="8" style="stroke:#181818;stroke-width:0.5;"/><path d="M53.5591,23.7969 L53.5591,50.7969 M40.5591,31.7969 L66.5591,31.7969 M53.5591,50.7969 L40.5591,65.7969 M53.5591,50.7969 L66.5591,65.7969" fill="none" style="stroke:#181818;stroke-width:0.5;"/></g><g class="participant participant-tail" data-entity-uid="part1" data-qualified-name="Guest" data-source-line="1" id="part1-tail"><text fill="#000000" font-family="sans-serif" font-size="14" lengthAdjust="spacing" textLength="41.1182" x="30" y="1208.6514">Guest</text><ellipse cx="53.5591" cy="1220.4531" fill="#E2E2F0" rx="8" ry="8" style="stroke:#181818;stroke-width:0.5;"/><path d="M53.5591,1228.4531 L53.5591,1255.4531 M40.5591,1236.4531 L66.5591,1236.4531 M53.5591,1255.4531 L40.5591,1270.4531 M53.5591,1255.4531 L66.5591,1270.4531" fill="none" style="stroke:#181818;stroke-width:0.5;"/></g><g class="participant participant-head" data-entity-uid="part2" data-qualified-name="FE" data-source-line="2" id="part2-head"><rect fill="#E2E2F0" height="46.5938" rx="2.5" ry="2.5" style="stroke:#181818;stroke-width:0.5;" width="81.9629" x="245.5742" y="36"/><text fill="#000000" font-family="sans-serif" font-size="14" lengthAdjust="spacing" textLength="63.1094" x="255.001" y="55.9951">Frontend</text><text fill="#000000" font-family="sans-serif" font-size="14" lengthAdjust="spacing" textLength="67.9629" x="252.5742" y="72.292">(Browser)</text></g><g class="participant participant-tail" data-entity-uid="part2" data-qualified-name="FE" data-source-line="2" id="part2-tail"><rect fill="#E2E2F0" height="46.5938" rx="2.5" ry="2.5" style="stroke:#181818;stroke-width:0.5;" width="81.9629" x="245.5742" y="1195.6563"/><text fill="#000000" font-family="sans-serif" font-size="14" lengthAdjust="spacing" textLength="63.1094" x="255.001" y="1215.6514">Frontend</text><text fill="#000000" font-family="sans-serif" font-size="14" lengthAdjust="spacing" textLength="67.9629" x="252.5742" y="1231.9482">(Browser)</text></g><g class="participant participant-head" data-entity-uid="part3" data-qualified-name="BE" data-source-line="3" id="part3-head"><rect fill="#E2E2F0" height="46.5938" rx="2.5" ry="2.5" style="stroke:#181818;stroke-width:0.5;" width="74.3613" x="528.2568" y="36"/><text fill="#000000" font-family="sans-serif" font-size="14" lengthAdjust="spacing" textLength="51.5635" x="539.6558" y="55.9951">FastAPI</text><text fill="#000000" font-family="sans-serif" font-size="14" lengthAdjust="spacing" textLength="60.3613" x="535.2568" y="72.292">Backend</text></g><g class="participant participant-tail" data-entity-uid="part3" data-qualified-name="BE" data-source-line="3" id="part3-tail"><rect fill="#E2E2F0" height="46.5938" rx="2.5" ry="2.5" style="stroke:#181818;stroke-width:0.5;" width="74.3613" x="528.2568" y="1195.6563"/><text fill="#000000" font-family="sans-serif" font-size="14" lengthAdjust="spacing" textLength="51.5635" x="539.6558" y="1215.6514">FastAPI</text><text fill="#000000" font-family="sans-serif" font-size="14" lengthAdjust="spacing" textLength="60.3613" x="535.2568" y="1231.9482">Backend</text></g><g class="participant participant-head" data-entity-uid="part4" data-qualified-name="DB" data-source-line="4" id="part4-head"><text fill="#000000" font-family="sans-serif" font-size="14" lengthAdjust="spacing" textLength="48.0703" x="814.1719" y="63.9951">MySQL</text><text fill="#000000" font-family="sans-serif" font-size="14" lengthAdjust="spacing" textLength="66.8008" x="804.8066" y="80.292">Database</text><path d="M823.207,15 C823.207,5 841.207,5 841.207,5 C841.207,5 859.207,5 859.207,15 L859.207,41 C859.207,51 841.207,51 841.207,51 C841.207,51 823.207,51 823.207,41 L823.207,15" fill="#E2E2F0" style="stroke:#181818;stroke-width:0.5;"/><path d="M823.207,15 C823.207,25 841.207,25 841.207,25 C841.207,25 859.207,25 859.207,15" fill="none" style="stroke:#181818;stroke-width:0.5;"/></g><g class="participant participant-tail" data-entity-uid="part4" data-qualified-name="DB" data-source-line="4" id="part4-tail"><text fill="#000000" font-family="sans-serif" font-size="14" lengthAdjust="spacing" textLength="48.0703" x="814.1719" y="1208.6514">MySQL</text><text fill="#000000" font-family="sans-serif" font-size="14" lengthAdjust="spacing" textLength="66.8008" x="804.8066" y="1224.9482">Database</text><path d="M823.207,1238.25 C823.207,1228.25 841.207,1228.25 841.207,1228.25 C841.207,1228.25 859.207,1228.25 859.207,1238.25 L859.207,1264.25 C859.207,1274.25 841.207,1274.25 841.207,1274.25 C841.207,1274.25 823.207,1274.25 823.207,1264.25 L823.207,1238.25" fill="#E2E2F0" style="stroke:#181818;stroke-width:0.5;"/><path d="M823.207,1238.25 C823.207,1248.25 841.207,1248.25 841.207,1248.25 C841.207,1248.25 859.207,1248.25 859.207,1238.25" fill="none" style="stroke:#181818;stroke-width:0.5;"/></g><g><title>FastAPI</title><rect fill="#FFFFFF" height="386.3984" style="stroke:#181818;stroke-width:1;" width="10" x="560.4375" y="202.125"/></g><g><title>FastAPI</title><rect fill="#FFFFFF" height="489.6016" style="stroke:#181818;stroke-width:1;" width="10" x="560.4375" y="697.0547"/></g><g><title>MySQL</title><rect fill="#FFFFFF" height="29.1328" style="stroke:#181818;stroke-width:1;" width="10" x="836.207" y="273.3906"/></g><g><title>MySQL</title><rect fill="#FFFFFF" height="29.1328" style="stroke:#181818;stroke-width:1;" width="10" x="836.207" y="486.125"/></g><g><title>MySQL</title><rect fill="#FFFFFF" height="29.1328" style="stroke:#181818;stroke-width:1;" width="10" x="836.207" y="726.1875"/></g><rect fill="#EEEEEE" height="3" style="stroke:#EEEEEE;stroke-width:1;" width="897.6074" x="0" y="114.1602"/><line style="stroke:#000000;stroke-width:1;" x1="0" x2="897.6074" y1="114.1602" y2="114.1602"/><line style="stroke:#000000;stroke-width:1;" x1="0" x2="897.6074" y1="117.1602" y2="117.1602"/><rect fill="#EEEEEE" height="23.1328" style="stroke:#000000;stroke-width:2;" width="147.1548" x="375.2263" y="103.5938"/><text fill="#000000" font-family="sans-serif" font-size="13" font-weight="700" lengthAdjust="spacing" textLength="128.6289" x="381.2263" y="119.6606">User Registration</text><g class="message" data-entity-1="part1" data-entity-2="part2" data-source-line="7" id="msg1"><polygon fill="#181818" points="274.5557,168.9922,284.5557,172.9922,274.5557,176.9922,278.5557,172.9922" style="stroke:#181818;stroke-width:1;"/><line style="stroke:#181818;stroke-width:1;" x1="53.5591" x2="280.5557" y1="172.9922" y2="172.9922"/><text fill="#000000" font-family="sans-serif" font-size="13" lengthAdjust="spacing" textLength="132.4058" x="60.5591" y="152.7935">Fill registration form</text><text fill="#000000" font-family="sans-serif" font-size="13" lengthAdjust="spacing" textLength="178.75" x="60.5591" y="167.9263">(username, password, role)</text></g><g class="message" data-entity-1="part2" data-entity-2="part3" data-source-line="8" id="msg2"><polygon fill="#181818" points="548.4375,198.125,558.4375,202.125,548.4375,206.125,552.4375,202.125" style="stroke:#181818;stroke-width:1;"/><line style="stroke:#181818;stroke-width:1;" x1="286.5557" x2="554.4375" y1="202.125" y2="202.125"/><text fill="#000000" font-family="sans-serif" font-size="13" lengthAdjust="spacing" textLength="93.1963" x="293.5557" y="197.0591">POST /register</text></g><g class="message" data-entity-1="part3" data-entity-2="part3" data-source-line="11" id="msg3"><line style="stroke:#181818;stroke-width:1;" x1="570.4375" x2="612.4375" y1="231.2578" y2="231.2578"/><line style="stroke:#181818;stroke-width:1;" x1="612.4375" x2="612.4375" y1="231.2578" y2="244.2578"/><line style="stroke:#181818;stroke-width:1;" x1="571.4375" x2="612.4375" y1="244.2578" y2="244.2578"/><polygon fill="#181818" points="581.4375,240.2578,571.4375,244.2578,581.4375,248.2578,577.4375,244.2578" style="stroke:#181818;stroke-width:1;"/><text fill="#000000" font-family="sans-serif" font-size="13" lengthAdjust="spacing" textLength="90.9683" x="577.4375" y="226.1919">Validate input</text></g><g class="message" data-entity-1="part3" data-entity-2="part4" data-source-line="12" id="msg4"><polygon fill="#181818" points="824.207,269.3906,834.207,273.3906,824.207,277.3906,828.207,273.3906" style="stroke:#181818;stroke-width:1;"/><line style="stroke:#181818;stroke-width:1;" x1="570.4375" x2="830.207" y1="273.3906" y2="273.3906"/><text fill="#000000" font-family="sans-serif" font-size="13" lengthAdjust="spacing" textLength="163.7441" x="577.4375" y="268.3247">Check if username exists</text></g><g class="message" data-entity-1="part4" data-entity-2="part3" data-source-line="14" id="msg5"><polygon fill="#181818" points="581.4375,298.5234,571.4375,302.5234,581.4375,306.5234,577.4375,302.5234" style="stroke:#181818;stroke-width:1;"/><line style="stroke:#181818;stroke-width:1;stroke-dasharray:2,2;" x1="575.4375" x2="840.207" y1="302.5234" y2="302.5234"/><text fill="#000000" font-family="sans-serif" font-size="13" lengthAdjust="spacing" textLength="114.8481" x="587.4375" y="297.4575">user_exists (bool)</text></g><path d="M20,317.5234 L84.4429,317.5234 L84.4429,324.6563 L74.4429,334.6563 L20,334.6563 L20,317.5234" fill="#EEEEEE" style="stroke:#000000;stroke-width:1.5;"/><rect fill="none" height="264" style="stroke:#000000;stroke-width:1.5;" width="867.6074" x="20" y="317.5234"/><text fill="#000000" font-family="sans-serif" font-size="13" font-weight="700" lengthAdjust="spacing" textLength="19.4429" x="35" y="330.5903">alt</text><text fill="#000000" font-family="sans-serif" font-size="11" font-weight="700" lengthAdjust="spacing" textLength="77.8271" x="99.4429" y="329.7339">[user exists]</text><g class="message" data-entity-1="part3" data-entity-2="part2" data-source-line="18" id="msg6"><polygon fill="#181818" points="297.5557,351.7891,287.5557,355.7891,297.5557,359.7891,293.5557,355.7891" style="stroke:#181818;stroke-width:1;"/><line style="stroke:#181818;stroke-width:1;stroke-dasharray:2,2;" x1="291.5557" x2="559.4375" y1="355.7891" y2="355.7891"/><text fill="#000000" font-family="sans-serif" font-size="13" lengthAdjust="spacing" textLength="199.9956" x="303.5557" y="350.7231">409 Conflict (Username taken)</text></g><g class="message" data-entity-1="part2" data-entity-2="part1" data-source-line="19" id="msg7"><polygon fill="#181818" points="64.5591,380.9219,54.5591,384.9219,64.5591,388.9219,60.5591,384.9219" style="stroke:#181818;stroke-width:1;"/><line style="stroke:#181818;stroke-width:1;stroke-dasharray:2,2;" x1="58.5591" x2="285.5557" y1="384.9219" y2="384.9219"/><text fill="#000000" font-family="sans-serif" font-size="13" lengthAdjust="spacing" textLength="173.5005" x="70.5591" y="379.856">"Username already exists"</text></g><line style="stroke:#000000;stroke-width:1;stroke-dasharray:2,2;" x1="20" x2="887.6074" y1="393.9219" y2="393.9219"/><text fill="#000000" font-family="sans-serif" font-size="11" font-weight="700" lengthAdjust="spacing" textLength="131.4092" x="25" y="404.1323">[username available]</text><g class="message" data-entity-1="part3" data-entity-2="part3" data-source-line="21" id="msg8"><line style="stroke:#181818;stroke-width:1;" x1="570.4375" x2="612.4375" y1="428.8594" y2="428.8594"/><line style="stroke:#181818;stroke-width:1;" x1="612.4375" x2="612.4375" y1="428.8594" y2="441.8594"/><line style="stroke:#181818;stroke-width:1;" x1="571.4375" x2="612.4375" y1="441.8594" y2="441.8594"/><polygon fill="#181818" points="581.4375,437.8594,571.4375,441.8594,581.4375,445.8594,577.4375,441.8594" style="stroke:#181818;stroke-width:1;"/><text fill="#000000" font-family="sans-serif" font-size="13" lengthAdjust="spacing" textLength="176.4648" x="577.4375" y="423.7935">Hash password with bcrypt</text></g><g class="message" data-entity-1="part3" data-entity-2="part4" data-source-line="22" id="msg9"><polygon fill="#181818" points="824.207,482.125,834.207,486.125,824.207,490.125,828.207,486.125" style="stroke:#181818;stroke-width:1;"/><line style="stroke:#181818;stroke-width:1;" x1="570.4375" x2="830.207" y1="486.125" y2="486.125"/><text fill="#000000" font-family="sans-serif" font-size="13" lengthAdjust="spacing" textLength="110.4873" x="577.4375" y="465.9263">INSERT new user</text><text fill="#000000" font-family="sans-serif" font-size="13" lengthAdjust="spacing" textLength="216.4678" x="577.4375" y="481.0591">(username, password_hash, role)</text></g><g class="message" data-entity-1="part4" data-entity-2="part3" data-source-line="24" id="msg10"><polygon fill="#181818" points="581.4375,511.2578,571.4375,515.2578,581.4375,519.2578,577.4375,515.2578" style="stroke:#181818;stroke-width:1;"/><line style="stroke:#181818;stroke-width:1;stroke-dasharray:2,2;" x1="575.4375" x2="840.207" y1="515.2578" y2="515.2578"/><text fill="#000000" font-family="sans-serif" font-size="13" lengthAdjust="spacing" textLength="46.7188" x="587.4375" y="510.1919">user_id</text></g><g class="message" data-entity-1="part3" data-entity-2="part2" data-source-line="26" id="msg11"><polygon fill="#181818" points="297.5557,540.3906,287.5557,544.3906,297.5557,548.3906,293.5557,544.3906" style="stroke:#181818;stroke-width:1;"/><line style="stroke:#181818;stroke-width:1;stroke-dasharray:2,2;" x1="291.5557" x2="559.4375" y1="544.3906" y2="544.3906"/><text fill="#000000" font-family="sans-serif" font-size="13" lengthAdjust="spacing" textLength="245.3433" x="303.5557" y="539.3247">201 Created (Registration successful)</text></g><g class="message" data-entity-1="part2" data-entity-2="part1" data-source-line="27" id="msg12"><polygon fill="#181818" points="64.5591,569.5234,54.5591,573.5234,64.5591,577.5234,60.5591,573.5234" style="stroke:#181818;stroke-width:1;"/><line style="stroke:#181818;stroke-width:1;stroke-dasharray:2,2;" x1="58.5591" x2="285.5557" y1="573.5234" y2="573.5234"/><text fill="#000000" font-family="sans-serif" font-size="13" lengthAdjust="spacing" textLength="208.9966" x="70.5591" y="568.4575">"Account created. Please login."</text></g><rect fill="#EEEEEE" height="3" style="stroke:#EEEEEE;stroke-width:1;" width="897.6074" x="0" y="609.0898"/><line style="stroke:#000000;stroke-width:1;" x1="0" x2="897.6074" y1="609.0898" y2="609.0898"/><line style="stroke:#000000;stroke-width:1;" x1="0" x2="897.6074" y1="612.0898" y2="612.0898"/><rect fill="#EEEEEE" height="23.1328" style="stroke:#000000;stroke-width:2;" width="96.8052" x="400.4011" y="598.5234"/><text fill="#000000" font-family="sans-serif" font-size="13" font-weight="700" lengthAdjust="spacing" textLength="78.2793" x="406.4011" y="614.5903">User Login</text><g class="message" data-entity-1="part1" data-entity-2="part2" data-source-line="32" id="msg13"><polygon fill="#181818" points="274.5557,663.9219,284.5557,667.9219,274.5557,671.9219,278.5557,667.9219" style="stroke:#181818;stroke-width:1;"/><line style="stroke:#181818;stroke-width:1;" x1="53.5591" x2="280.5557" y1="667.9219" y2="667.9219"/><text fill="#000000" font-family="sans-serif" font-size="13" lengthAdjust="spacing" textLength="88.7847" x="60.5591" y="647.7231">Fill login form</text><text fill="#000000" font-family="sans-serif" font-size="13" lengthAdjust="spacing" textLength="145.5771" x="60.5591" y="662.856">(username, password)</text></g><g class="message" data-entity-1="part2" data-entity-2="part3" data-source-line="33" id="msg14"><polygon fill="#181818" points="548.4375,693.0547,558.4375,697.0547,548.4375,701.0547,552.4375,697.0547" style="stroke:#181818;stroke-width:1;"/><line style="stroke:#181818;stroke-width:1;" x1="286.5557" x2="554.4375" y1="697.0547" y2="697.0547"/><text fill="#000000" font-family="sans-serif" font-size="13" lengthAdjust="spacing" textLength="74.4453" x="293.5557" y="691.9888">POST /login</text></g><g class="message" data-entity-1="part3" data-entity-2="part4" data-source-line="36" id="msg15"><polygon fill="#181818" points="824.207,722.1875,834.207,726.1875,824.207,730.1875,828.207,726.1875" style="stroke:#181818;stroke-width:1;"/><line style="stroke:#181818;stroke-width:1;" x1="570.4375" x2="830.207" y1="726.1875" y2="726.1875"/><text fill="#000000" font-family="sans-serif" font-size="13" lengthAdjust="spacing" textLength="170.8599" x="577.4375" y="721.1216">SELECT user by username</text></g><g class="message" data-entity-1="part4" data-entity-2="part3" data-source-line="38" id="msg16"><polygon fill="#181818" points="581.4375,751.3203,571.4375,755.3203,581.4375,759.3203,577.4375,755.3203" style="stroke:#181818;stroke-width:1;"/><line style="stroke:#181818;stroke-width:1;stroke-dasharray:2,2;" x1="575.4375" x2="840.207" y1="755.3203" y2="755.3203"/><text fill="#000000" font-family="sans-serif" font-size="13" lengthAdjust="spacing" textLength="241.7695" x="587.4375" y="750.2544">user record (id, password_hash, role)</text></g><path d="M10,770.3203 L74.4429,770.3203 L74.4429,777.4531 L64.4429,787.4531 L10,787.4531 L10,770.3203" fill="#EEEEEE" style="stroke:#000000;stroke-width:1.5;"/><rect fill="none" height="409.3359" style="stroke:#000000;stroke-width:1.5;" width="771.2661" x="10" y="770.3203"/><text fill="#000000" font-family="sans-serif" font-size="13" font-weight="700" lengthAdjust="spacing" textLength="19.4429" x="25" y="783.3872">alt</text><text fill="#000000" font-family="sans-serif" font-size="11" font-weight="700" lengthAdjust="spacing" textLength="101.5029" x="89.4429" y="782.5308">[user not found]</text><g class="message" data-entity-1="part3" data-entity-2="part2" data-source-line="42" id="msg17"><polygon fill="#181818" points="297.5557,804.5859,287.5557,808.5859,297.5557,812.5859,293.5557,808.5859" style="stroke:#181818;stroke-width:1;"/><line style="stroke:#181818;stroke-width:1;stroke-dasharray:2,2;" x1="291.5557" x2="559.4375" y1="808.5859" y2="808.5859"/><text fill="#000000" font-family="sans-serif" font-size="13" lengthAdjust="spacing" textLength="249.8818" x="303.5557" y="803.52">401 Unauthorized (Invalid credentials)</text></g><g class="message" data-entity-1="part2" data-entity-2="part1" data-source-line="43" id="msg18"><polygon fill="#181818" points="64.5591,833.7188,54.5591,837.7188,64.5591,841.7188,60.5591,837.7188" style="stroke:#181818;stroke-width:1;"/><line style="stroke:#181818;stroke-width:1;stroke-dasharray:2,2;" x1="58.5591" x2="285.5557" y1="837.7188" y2="837.7188"/><text fill="#000000" font-family="sans-serif" font-size="13" lengthAdjust="spacing" textLength="208.0317" x="70.5591" y="832.6528">"Invalid username or password"</text></g><line style="stroke:#000000;stroke-width:1;stroke-dasharray:2,2;" x1="10" x2="781.2661" y1="846.7188" y2="846.7188"/><text fill="#000000" font-family="sans-serif" font-size="11" font-weight="700" lengthAdjust="spacing" textLength="77.0269" x="15" y="856.9292">[user found]</text><g class="message" data-entity-1="part3" data-entity-2="part3" data-source-line="45" id="msg19"><line style="stroke:#181818;stroke-width:1;" x1="570.4375" x2="612.4375" y1="881.6563" y2="881.6563"/><line style="stroke:#181818;stroke-width:1;" x1="612.4375" x2="612.4375" y1="881.6563" y2="894.6563"/><line style="stroke:#181818;stroke-width:1;" x1="571.4375" x2="612.4375" y1="894.6563" y2="894.6563"/><polygon fill="#181818" points="581.4375,890.6563,571.4375,894.6563,581.4375,898.6563,577.4375,894.6563" style="stroke:#181818;stroke-width:1;"/><text fill="#000000" font-family="sans-serif" font-size="13" lengthAdjust="spacing" textLength="181.8286" x="577.4375" y="876.5903">Verify password with bcrypt</text></g><path d="M20,909.6563 L84.4429,909.6563 L84.4429,916.7891 L74.4429,926.7891 L20,926.7891 L20,909.6563" fill="#EEEEEE" style="stroke:#000000;stroke-width:1.5;"/><rect fill="none" height="263" style="stroke:#000000;stroke-width:1.5;" width="728.6328" x="20" y="909.6563"/><text fill="#000000" font-family="sans-serif" font-size="13" font-weight="700" lengthAdjust="spacing" textLength="19.4429" x="35" y="922.7231">alt</text><text fill="#000000" font-family="sans-serif" font-size="11" font-weight="700" lengthAdjust="spacing" textLength="133.5684" x="99.4429" y="921.8667">[password mismatch]</text><g class="message" data-entity-1="part3" data-entity-2="part2" data-source-line="47" id="msg20"><polygon fill="#181818" points="297.5557,943.9219,287.5557,947.9219,297.5557,951.9219,293.5557,947.9219" style="stroke:#181818;stroke-width:1;"/><line style="stroke:#181818;stroke-width:1;stroke-dasharray:2,2;" x1="291.5557" x2="559.4375" y1="947.9219" y2="947.9219"/><text fill="#000000" font-family="sans-serif" font-size="13" lengthAdjust="spacing" textLength="249.8818" x="303.5557" y="942.856">401 Unauthorized (Invalid credentials)</text></g><g class="message" data-entity-1="part2" data-entity-2="part1" data-source-line="48" id="msg21"><polygon fill="#181818" points="64.5591,973.0547,54.5591,977.0547,64.5591,981.0547,60.5591,977.0547" style="stroke:#181818;stroke-width:1;"/><line style="stroke:#181818;stroke-width:1;stroke-dasharray:2,2;" x1="58.5591" x2="285.5557" y1="977.0547" y2="977.0547"/><text fill="#000000" font-family="sans-serif" font-size="13" lengthAdjust="spacing" textLength="208.0317" x="70.5591" y="971.9888">"Invalid username or password"</text></g><line style="stroke:#000000;stroke-width:1;stroke-dasharray:2,2;" x1="20" x2="748.6328" y1="986.0547" y2="986.0547"/><text fill="#000000" font-family="sans-serif" font-size="11" font-weight="700" lengthAdjust="spacing" textLength="111.7886" x="25" y="996.2651">[password match]</text><g class="message" data-entity-1="part3" data-entity-2="part3" data-source-line="50" id="msg22"><line style="stroke:#181818;stroke-width:1;" x1="570.4375" x2="612.4375" y1="1036.125" y2="1036.125"/><line style="stroke:#181818;stroke-width:1;" x1="612.4375" x2="612.4375" y1="1036.125" y2="1049.125"/><line style="stroke:#181818;stroke-width:1;" x1="571.4375" x2="612.4375" y1="1049.125" y2="1049.125"/><polygon fill="#181818" points="581.4375,1045.125,571.4375,1049.125,581.4375,1053.125,577.4375,1049.125" style="stroke:#181818;stroke-width:1;"/><text fill="#000000" font-family="sans-serif" font-size="13" lengthAdjust="spacing" textLength="130.4253" x="577.4375" y="1015.9263">Generate JWT token</text><text fill="#000000" font-family="sans-serif" font-size="13" lengthAdjust="spacing" textLength="149.1953" x="577.4375" y="1031.0591">(contains user_id, role)</text></g><g class="message" data-entity-1="part3" data-entity-2="part2" data-source-line="51" id="msg23"><polygon fill="#181818" points="297.5557,1074.2578,287.5557,1078.2578,297.5557,1082.2578,293.5557,1078.2578" style="stroke:#181818;stroke-width:1;"/><line style="stroke:#181818;stroke-width:1;stroke-dasharray:2,2;" x1="291.5557" x2="559.4375" y1="1078.2578" y2="1078.2578"/><text fill="#000000" font-family="sans-serif" font-size="13" lengthAdjust="spacing" textLength="131.9678" x="303.5557" y="1073.1919">200 OK (token, role)</text></g><g class="message" data-entity-1="part2" data-entity-2="part2" data-source-line="52" id="msg24"><line style="stroke:#181818;stroke-width:1;" x1="286.5557" x2="328.5557" y1="1107.3906" y2="1107.3906"/><line style="stroke:#181818;stroke-width:1;" x1="328.5557" x2="328.5557" y1="1107.3906" y2="1120.3906"/><line style="stroke:#181818;stroke-width:1;" x1="287.5557" x2="328.5557" y1="1120.3906" y2="1120.3906"/><polygon fill="#181818" points="297.5557,1116.3906,287.5557,1120.3906,297.5557,1124.3906,293.5557,1120.3906" style="stroke:#181818;stroke-width:1;"/><text fill="#000000" font-family="sans-serif" font-size="13" lengthAdjust="spacing" textLength="225.8623" x="293.5557" y="1102.3247">Store token (localStorage / cookie)</text></g><g class="message" data-entity-1="part2" data-entity-2="part1" data-source-line="53" id="msg25"><polygon fill="#181818" points="64.5591,1160.6563,54.5591,1164.6563,64.5591,1168.6563,60.5591,1164.6563" style="stroke:#181818;stroke-width:1;"/><line style="stroke:#181818;stroke-width:1;stroke-dasharray:2,2;" x1="58.5591" x2="285.5557" y1="1164.6563" y2="1164.6563"/><text fill="#000000" font-family="sans-serif" font-size="13" lengthAdjust="spacing" textLength="144.7964" x="70.5591" y="1144.4575">Redirect to dashboard</text><text fill="#000000" font-family="sans-serif" font-size="13" lengthAdjust="spacing" textLength="202.0205" x="70.5591" y="1159.5903">(based on role: Player / Admin)</text></g><?plantuml-src fLJBRjim4BphAnO-oK2UHIyDu0AHOwTfqoQDdVOI85YJwvW8JHea5TVz-YufIr7yA51KDv4p-vYT9OfW7LoMv4EsG1UKK0iq0Jf3PqqW8nzCNZYxzEIw7K0Fmy463dqulxrwC0MAPyOdK37890QSe2VeV5sDlby_c8lrGG9S55dMwy4zXuKxUb8-E0pA6kZribGC77xaL706GwKrk3PaQjsSgogPQt1E1x10xvVMoGDmLbCtOnwpYyY-lHcDuRYYayjG1FM2WMA1MV4A-u5QoNYkpA8CwvkBWc_wCnBFeAPGfmFwnR7yQoXkXP67TQY8Uwmma4-irTrCKXkSeGu9LKS2_cB6kkFt9n-WRyrKAn4Wlw_p1cHvkmazhD2LK6VGQJ2e7Q5ShIDtCj8yWAPoV46bSQAfIRck-HFwMQCYB5MOmKIurIAqW4cDgs-ZmTqO32rJr9rJU9nnj7eKaTzkFlvlgQLaEdyhqwOgxqvEeS_T1PAGlx6CBuKWxwUbtgtEkH2sPAkAYdq4jvgYCRLzKkQ8HJAoFQ9eZTgQrn6onvE9lj-CEsoO6BiycBGT3Qu7_N7bZCcgcTfVZSQB8UB8SYNt362VzumDN7jfv0xxdSAzmJBCh5E_ezfNvYNkHnHGaWaAjT-jT0ri7CTFIrrLoumRYUiT9AUcg_qsZAKtbtFbvnZ4BDtyHmV_taLaf4vUQzagPDtH9HboKVdFFySGBAylEqNmiuhA-DhwxKtPzlm9t7o1F74tWPMz4cx4RpXL6I3NLg2E9_X4S0p2scT5Uxkz8wdOH87P8Dat4uiklldnfPR0snMJie4rhdXmnt0kvshz2iMzsTgTFm00?></g></svg>