<svg xmlns="http://www.w3.org/2000/svg" xmlns:xlink="http://www.w3.org/1999/xlink" contentStyleType="text/css" data-diagram-type="SEQUENCE" height="1201px" preserveAspectRatio="none" style="width:1173px;height:1201px;background:#FFFFFF;" version="1.1" viewBox="0 0 1173 1201" width="1173px" zoomAndPan="magnify"><?plantuml 1.2026.3beta6?><defs/><g><g><title>FastAPI</title><rect fill="#FFFFFF" height="947.6641" style="stroke:#181818;stroke-width:1;" width="10" x="590.52" y="158.9922"/></g><g><title>MySQL</title><rect fill="#FFFFFF" height="29.1328" style="stroke:#181818;stroke-width:1;" width="10" x="892.6533" y="188.125"/></g><g><title>MySQL</title><rect fill="#FFFFFF" height="29.1328" style="stroke:#181818;stroke-width:1;" width="10" x="892.6533" y="358.7266"/></g><g><title>MySQL</title><rect fill="#FFFFFF" height="29.1328" style="stroke:#181818;stroke-width:1;" width="10" x="892.6533" y="514.1953"/></g><g><title>MySQL</title><rect fill="#FFFFFF" height="29.1328" style="stroke:#181818;stroke-width:1;" width="10" x="892.6533" y="668.9922"/></g><g><title>MySQL</title><rect fill="#FFFFFF" height="29.1328" style="stroke:#181818;stroke-width:1;" width="10" x="892.6533" y="815.4609"/></g><g><title>MySQL</title><rect fill="#FFFFFF" height="29.1328" style="stroke:#181818;stroke-width:1;" width="10" x="892.6533" y="873.7266"/></g><g><title>MySQL</title><rect fill="#FFFFFF" height="29.1328" style="stroke:#181818;stroke-width:1;" width="10" x="892.6533" y="961.125"/></g><g><title>Scoreboard</title><rect fill="#FFFFFF" height="87.3984" style="stroke:#181818;stroke-width:1;" width="10" x="1075.8887" y="931.9922"/></g><rect fill="none" height="867.3984" style="stroke:#000000;stroke-width:1.5;" width="1147.9849" x="10" y="232.2578"/><rect fill="none" height="689.7969" style="stroke:#000000;stroke-width:1.5;" width="1127.9849" x="20" y="402.8594"/><rect fill="none" height="470.0625" style="stroke:#000000;stroke-width:1.5;" width="1107.9849" x="30" y="615.5938"/><g class="participant-lifeline" data-entity-uid="part1" data-qualified-name="Player" data-source-line="1" id="part1-lifeline"><g><title>Player</title><rect fill="#000000" fill-opacity="0.00000" height="1033.0625" width="8" x="60.7827" y="83.5938"/><line style="stroke:#181818;stroke-width:0.5;stroke-dasharray:5,5;" x1="64" x2="64" y1="83.5938" y2="1116.6563"/></g></g><g class="participant-lifeline" data-entity-uid="part2" data-qualified-name="FE" data-source-line="2" id="part2-lifeline"><g><title>Frontend</title><rect fill="#000000" fill-opacity="0.00000" height="1033.0625" width="8" x="315.3042" y="83.5938"/><line style="stroke:#181818;stroke-width:0.5;stroke-dasharray:5,5;" x1="318.3228" x2="318.3228" y1="83.5938" y2="1116.6563"/></g></g><g class="participant-lifeline" data-entity-uid="part3" data-qualified-name="BE" data-source-line="3" id="part3-lifeline"><g><title>FastAPI</title><rect fill="#000000" fill-opacity="0.00000" height="1033.0625" width="8" x="591.52" y="83.5938"/><line style="stroke:#181818;stroke-width:0.5;stroke-dasharray:5,5;" x1="595.3394" x2="595.3394" y1="83.5938" y2="1116.6563"/></g></g><g class="participant-lifeline" data-entity-uid="part4" data-qualified-name="DB" data-source-line="4" id="part4-lifeline"><g><title>MySQL</title><rect fill="#000000" fill-opacity="0.00000" height="1033.0625" width="8" x="893.6533" y="83.5938"/><line style="stroke:#181818;stroke-width:0.5;stroke-dasharray:5,5;" x1="897.2529" x2="897.2529" y1="83.5938" y2="1116.6563"/></g></g><g class="participant-lifeline" data-entity-uid="part5" data-qualified-name="SC" data-source-line="5" id="part5-lifeline"><g><title>Scoreboard</title><rect fill="#000000" fill-opacity="0.00000" height="1033.0625" width="8" x="1076.8887" y="83.5938"/><line style="stroke:#181818;stroke-width:0.5;stroke-dasharray:5,5;" x1="1080.7925" x2="1080.7925" y1="83.5938" y2="1116.6563"/></g></g><g class="participant participant-head" data-entity-uid="part1" data-qualified-name="Player" data-source-line="1" id="part1-head"><text fill="#000000" font-family="sans-serif" font-size="14" lengthAdjust="spacing" textLength="43.5654" x="40" y="80.292">Player</text><ellipse cx="64.7827" cy="15.7969" fill="#E2E2F0" rx="8" ry="8" style="stroke:#181818;stroke-width:0.5;"/><path d="M64.7827,23.7969 L64.7827,50.7969 M51.7827,31.7969 L77.7827,31.7969 M64.7827,50.7969 L51.7827,65.7969 M64.7827,50.7969 L77.7827,65.7969" fill="none" style="stroke:#181818;stroke-width:0.5;"/></g><g class="participant participant-tail" data-entity-uid="part1" data-qualified-name="Player" data-source-line="1" id="part1-tail"><text fill="#000000" font-family="sans-serif" font-size="14" lengthAdjust="spacing" textLength="43.5654" x="40" y="1128.6514">Player</text><ellipse cx="64.7827" cy="1140.4531" fill="#E2E2F0" rx="8" ry="8" style="stroke:#181818;stroke-width:0.5;"/><path d="M64.7827,1148.4531 L64.7827,1175.4531 M51.7827,1156.4531 L77.7827,1156.4531 M64.7827,1175.4531 L51.7827,1190.4531 M64.7827,1175.4531 L77.7827,1190.4531" fill="none" style="stroke:#181818;stroke-width:0.5;"/></g><g class="participant participant-head" data-entity-uid="part2" data-qualified-name="FE" data-source-line="2" id="part2-head"><rect fill="#E2E2F0" height="46.5938" rx="2.5" ry="2.5" style="stroke:#181818;stroke-width:0.5;" width="81.9629" x="278.3228" y="36"/><text fill="#000000" font-family="sans-serif" font-size="14" lengthAdjust="spacing" textLength="63.1094" x="287.7495" y="55.9951">Frontend</text><text fill="#000000" font-family="sans-serif" font-size="14" lengthAdjust="spacing" textLength="67.9629" x="285.3228" y="72.292">(Browser)</text></g><g class="participant participant-tail" data-entity-uid="part2" data-qualified-name="FE" data-source-line="2" id="part2-tail"><rect fill="#E2E2F0" height="46.5938" rx="2.5" ry="2.5" style="stroke:#181818;stroke-width:0.5;" width="81.9629" x="278.3228" y="1115.6563"/><text fill="#000000" font-family="sans-serif" font-size="14" lengthAdjust="spacing" textLength="63.1094" x="287.7495" y="1135.6514">Frontend</text><text fill="#000000" font-family="sans-serif" font-size="14" lengthAdjust="spacing" textLength="67.9629" x="285.3228" y="1151.9482">(Browser)</text></g><g class="participant participant-head" data-entity-uid="part3" data-qualified-name="BE" data-source-line="3" id="part3-head"><rect fill="#E2E2F0" height="46.5938" rx="2.5" ry="2.5" style="stroke:#181818;stroke-width:0.5;" width="74.3613" x="558.3394" y="36"/><text fill="#000000" font-family="sans-serif" font-size="14" lengthAdjust="spacing" textLength="51.5635" x="569.7383" y="55.9951">FastAPI</text><text fill="#000000" font-family="sans-serif" font-size="14" lengthAdjust="spacing" textLength="60.3613" x="565.3394" y="72.292">Backend</text></g><g class="participant participant-tail" data-entity-uid="part3" data-qualified-name="BE" data-source-line="3" id="part3-tail"><rect fill="#E2E2F0" height="46.5938" rx="2.5" ry="2.5" style="stroke:#181818;stroke-width:0.5;" width="74.3613" x="558.3394" y="1115.6563"/><text fill="#000000" font-family="sans-serif" font-size="14" lengthAdjust="spacing" textLength="51.5635" x="569.7383" y="1135.6514">FastAPI</text><text fill="#000000" font-family="sans-serif" font-size="14" lengthAdjust="spacing" textLength="60.3613" x="565.3394" y="1151.9482">Backend</text></g><g class="participant participant-head" data-entity-uid="part4" data-qualified-name="DB" data-source-line="4" id="part4-head"><text fill="#000000" font-family="sans-serif" font-size="14" lengthAdjust="spacing" textLength="48.0703" x="870.6182" y="63.9951">MySQL</text><text fill="#000000" font-family="sans-serif" font-size="14" lengthAdjust="spacing" textLength="66.8008" x="861.2529" y="80.292">Database</text><path d="M879.6533,15 C879.6533,5 897.6533,5 897.6533,5 C897.6533,5 915.6533,5 915.6533,15 L915.6533,41 C915.6533,51 897.6533,51 897.6533,51 C897.6533,51 879.6533,51 879.6533,41 L879.6533,15" fill="#E2E2F0" style="stroke:#181818;stroke-width:0.5;"/><path d="M879.6533,15 C879.6533,25 897.6533,25 897.6533,25 C897.6533,25 915.6533,25 915.6533,15" fill="none" style="stroke:#181818;stroke-width:0.5;"/></g><g class="participant participant-tail" data-entity-uid="part4" data-qualified-name="DB" data-source-line="4" id="part4-tail"><text fill="#000000" font-family="sans-serif" font-size="14" lengthAdjust="spacing" textLength="48.0703" x="870.6182" y="1128.6514">MySQL</text><text fill="#000000" font-family="sans-serif" font-size="14" lengthAdjust="spacing" textLength="66.8008" x="861.2529" y="1144.9482">Database</text><path d="M879.6533,1158.25 C879.6533,1148.25 897.6533,1148.25 897.6533,1148.25 C897.6533,1148.25 915.6533,1148.25 915.6533,1158.25 L915.6533,1184.25 C915.6533,1194.25 897.6533,1194.25 897.6533,1194.25 C897.6533,1194.25 879.6533,1194.25 879.6533,1184.25 L879.6533,1158.25" fill="#E2E2F0" style="stroke:#181818;stroke-width:0.5;"/><path d="M879.6533,1158.25 C879.6533,1168.25 897.6533,1168.25 897.6533,1168.25 C897.6533,1168.25 915.6533,1168.25 915.6533,1158.25" fill="none" style="stroke:#181818;stroke-width:0.5;"/></g><g class="participant participant-head" data-entity-uid="part5" data-qualified-name="SC" data-source-line="5" id="part5-head"><rect fill="#E2E2F0" height="46.5938" rx="2.5" ry="2.5" style="stroke:#181818;stroke-width:0.5;" width="94.1924" x="1033.7925" y="36"/><text fill="#000000" font-family="sans-serif" font-size="14" lengthAdjust="spacing" textLength="80.1924" x="1040.7925" y="55.9951">Scoreboard</text><text fill="#000000" font-family="sans-serif" font-size="14" lengthAdjust="spacing" textLength="47.9814" x="1056.8979" y="72.292">Engine</text></g><g class="participant participant-tail" data-entity-uid="part5" data-qualified-name="SC" data-source-line="5" id="part5-tail"><rect fill="#E2E2F0" height="46.5938" rx="2.5" ry="2.5" style="stroke:#181818;stroke-width:0.5;" width="94.1924" x="1033.7925" y="1115.6563"/><text fill="#000000" font-family="sans-serif" font-size="14" lengthAdjust="spacing" textLength="80.1924" x="1040.7925" y="1135.6514">Scoreboard</text><text fill="#000000" font-family="sans-serif" font-size="14" lengthAdjust="spacing" textLength="47.9814" x="1056.8979" y="1151.9482">Engine</text></g><g><title>FastAPI</title><rect fill="#FFFFFF" height="947.6641" style="stroke:#181818;stroke-width:1;" width="10" x="590.52" y="158.9922"/></g><g><title>MySQL</title><rect fill="#FFFFFF" height="29.1328" style="stroke:#181818;stroke-width:1;" width="10" x="892.6533" y="188.125"/></g><g><title>MySQL</title><rect fill="#FFFFFF" height="29.1328" style="stroke:#181818;stroke-width:1;" width="10" x="892.6533" y="358.7266"/></g><g><title>MySQL</title><rect fill="#FFFFFF" height="29.1328" style="stroke:#181818;stroke-width:1;" width="10" x="892.6533" y="514.1953"/></g><g><title>MySQL</title><rect fill="#FFFFFF" height="29.1328" style="stroke:#181818;stroke-width:1;" width="10" x="892.6533" y="668.9922"/></g><g><title>MySQL</title><rect fill="#FFFFFF" height="29.1328" style="stroke:#181818;stroke-width:1;" width="10" x="892.6533" y="815.4609"/></g><g><title>MySQL</title><rect fill="#FFFFFF" height="29.1328" style="stroke:#181818;stroke-width:1;" width="10" x="892.6533" y="873.7266"/></g><g><title>MySQL</title><rect fill="#FFFFFF" height="29.1328" style="stroke:#181818;stroke-width:1;" width="10" x="892.6533" y="961.125"/></g><g><title>Scoreboard</title><rect fill="#FFFFFF" height="87.3984" style="stroke:#181818;stroke-width:1;" width="10" x="1075.8887" y="931.9922"/></g><g class="message" data-entity-1="part1" data-entity-2="part2" data-source-line="7" id="msg1"><polygon fill="#181818" points="307.3042,110.7266,317.3042,114.7266,307.3042,118.7266,311.3042,114.7266" style="stroke:#181818;stroke-width:1;"/><line style="stroke:#181818;stroke-width:1;" x1="64.7827" x2="313.3042" y1="114.7266" y2="114.7266"/><text fill="#000000" font-family="sans-serif" font-size="13" lengthAdjust="spacing" textLength="175.4492" x="71.7827" y="109.6606">Enter flag and click Submit</text></g><g class="message" data-entity-1="part2" data-entity-2="part3" data-source-line="8" id="msg2"><polygon fill="#181818" points="578.52,154.9922,588.52,158.9922,578.52,162.9922,582.52,158.9922" style="stroke:#181818;stroke-width:1;"/><line style="stroke:#181818;stroke-width:1;" x1="319.3042" x2="584.52" y1="158.9922" y2="158.9922"/><text fill="#000000" font-family="sans-serif" font-size="13" lengthAdjust="spacing" textLength="87.4136" x="326.3042" y="138.7935">POST /submit</text><text fill="#000000" font-family="sans-serif" font-size="13" lengthAdjust="spacing" textLength="156.6284" x="326.3042" y="153.9263">(challenge_id, flag_text)</text></g><g class="message" data-entity-1="part3" data-entity-2="part4" data-source-line="11" id="msg3"><polygon fill="#181818" points="880.6533,184.125,890.6533,188.125,880.6533,192.125,884.6533,188.125" style="stroke:#181818;stroke-width:1;"/><line style="stroke:#181818;stroke-width:1;" x1="600.52" x2="886.6533" y1="188.125" y2="188.125"/><text fill="#000000" font-family="sans-serif" font-size="13" lengthAdjust="spacing" textLength="162.2842" x="607.52" y="183.0591">Check if event is running</text></g><g class="message" data-entity-1="part4" data-entity-2="part3" data-source-line="13" id="msg4"><polygon fill="#181818" points="611.52,213.2578,601.52,217.2578,611.52,221.2578,607.52,217.2578" style="stroke:#181818;stroke-width:1;"/><line style="stroke:#181818;stroke-width:1;stroke-dasharray:2,2;" x1="605.52" x2="896.6533" y1="217.2578" y2="217.2578"/><text fill="#000000" font-family="sans-serif" font-size="13" lengthAdjust="spacing" textLength="199.6465" x="617.52" y="212.1919">event_status (Running/Closed)</text></g><path d="M10,232.2578 L74.4429,232.2578 L74.4429,239.3906 L64.4429,249.3906 L10,249.3906 L10,232.2578" fill="#EEEEEE" style="stroke:#000000;stroke-width:1.5;"/><rect fill="none" height="867.3984" style="stroke:#000000;stroke-width:1.5;" width="1147.9849" x="10" y="232.2578"/><text fill="#000000" font-family="sans-serif" font-size="13" font-weight="700" lengthAdjust="spacing" textLength="19.4429" x="25" y="245.3247">alt</text><text fill="#000000" font-family="sans-serif" font-size="11" font-weight="700" lengthAdjust="spacing" textLength="102.9424" x="89.4429" y="244.4683">[event is closed]</text><g class="message" data-entity-1="part3" data-entity-2="part2" data-source-line="17" id="msg5"><polygon fill="#181818" points="330.3042,266.5234,320.3042,270.5234,330.3042,274.5234,326.3042,270.5234" style="stroke:#181818;stroke-width:1;"/><line style="stroke:#181818;stroke-width:1;stroke-dasharray:2,2;" x1="324.3042" x2="589.52" y1="270.5234" y2="270.5234"/><text fill="#000000" font-family="sans-serif" font-size="13" lengthAdjust="spacing" textLength="214.9126" x="336.3042" y="265.4575">403 Forbidden (Event not active)</text></g><g class="message" data-entity-1="part2" data-entity-2="part1" data-source-line="18" id="msg6"><polygon fill="#181818" points="75.7827,295.6563,65.7827,299.6563,75.7827,303.6563,71.7827,299.6563" style="stroke:#181818;stroke-width:1;"/><line style="stroke:#181818;stroke-width:1;stroke-dasharray:2,2;" x1="69.7827" x2="318.3042" y1="299.6563" y2="299.6563"/><text fill="#000000" font-family="sans-serif" font-size="13" lengthAdjust="spacing" textLength="211.688" x="81.7827" y="294.5903">"CTF event is currently stopped"</text></g><line style="stroke:#000000;stroke-width:1;stroke-dasharray:2,2;" x1="10" x2="1157.9849" y1="308.6563" y2="308.6563"/><text fill="#000000" font-family="sans-serif" font-size="11" font-weight="700" lengthAdjust="spacing" textLength="111.606" x="15" y="318.8667">[event is running]</text><g class="message" data-entity-1="part3" data-entity-2="part4" data-source-line="20" id="msg7"><polygon fill="#181818" points="880.6533,354.7266,890.6533,358.7266,880.6533,362.7266,884.6533,358.7266" style="stroke:#181818;stroke-width:1;"/><line style="stroke:#181818;stroke-width:1;" x1="600.52" x2="886.6533" y1="358.7266" y2="358.7266"/><text fill="#000000" font-family="sans-serif" font-size="13" lengthAdjust="spacing" textLength="151.6899" x="607.52" y="338.5278">Check if already solved</text><text fill="#000000" font-family="sans-serif" font-size="13" lengthAdjust="spacing" textLength="146.5547" x="607.52" y="353.6606">(user_id, challenge_id)</text></g><g class="message" data-entity-1="part4" data-entity-2="part3" data-source-line="22" id="msg8"><polygon fill="#181818" points="611.52,383.8594,601.52,387.8594,611.52,391.8594,607.52,387.8594" style="stroke:#181818;stroke-width:1;"/><line style="stroke:#181818;stroke-width:1;stroke-dasharray:2,2;" x1="605.52" x2="896.6533" y1="387.8594" y2="387.8594"/><text fill="#000000" font-family="sans-serif" font-size="13" lengthAdjust="spacing" textLength="136.4365" x="617.52" y="382.7935">duplicate (true/false)</text></g><path d="M20,402.8594 L84.4429,402.8594 L84.4429,409.9922 L74.4429,419.9922 L20,419.9922 L20,402.8594" fill="#EEEEEE" style="stroke:#000000;stroke-width:1.5;"/><rect fill="none" height="689.7969" style="stroke:#000000;stroke-width:1.5;" width="1127.9849" x="20" y="402.8594"/><text fill="#000000" font-family="sans-serif" font-size="13" font-weight="700" lengthAdjust="spacing" textLength="19.4429" x="35" y="415.9263">alt</text><text fill="#000000" font-family="sans-serif" font-size="11" font-weight="700" lengthAdjust="spacing" textLength="111.7886" x="99.4429" y="415.0698">[duplicate is true]</text><g class="message" data-entity-1="part3" data-entity-2="part2" data-source-line="26" id="msg9"><polygon fill="#181818" points="330.3042,437.125,320.3042,441.125,330.3042,445.125,326.3042,441.125" style="stroke:#181818;stroke-width:1;"/><line style="stroke:#181818;stroke-width:1;stroke-dasharray:2,2;" x1="324.3042" x2="589.52" y1="441.125" y2="441.125"/><text fill="#000000" font-family="sans-serif" font-size="13" lengthAdjust="spacing" textLength="188.7095" x="336.3042" y="436.0591">409 Conflict (Already solved)</text></g><g class="message" data-entity-1="part2" data-entity-2="part1" data-source-line="27" id="msg10"><polygon fill="#181818" points="75.7827,466.2578,65.7827,470.2578,75.7827,474.2578,71.7827,470.2578" style="stroke:#181818;stroke-width:1;"/><line style="stroke:#181818;stroke-width:1;stroke-dasharray:2,2;" x1="69.7827" x2="318.3042" y1="470.2578" y2="470.2578"/><text fill="#000000" font-family="sans-serif" font-size="13" lengthAdjust="spacing" textLength="230.5215" x="81.7827" y="465.1919">"You already solved this challenge"</text></g><line style="stroke:#000000;stroke-width:1;stroke-dasharray:2,2;" x1="20" x2="1147.9849" y1="479.2578" y2="479.2578"/><text fill="#000000" font-family="sans-serif" font-size="11" font-weight="700" lengthAdjust="spacing" textLength="115.8008" x="25" y="489.4683">[duplicate is false]</text><g class="message" data-entity-1="part3" data-entity-2="part4" data-source-line="29" id="msg11"><polygon fill="#181818" points="880.6533,510.1953,890.6533,514.1953,880.6533,518.1953,884.6533,514.1953" style="stroke:#181818;stroke-width:1;"/><line style="stroke:#181818;stroke-width:1;" x1="600.52" x2="886.6533" y1="514.1953" y2="514.1953"/><text fill="#000000" font-family="sans-serif" font-size="13" lengthAdjust="spacing" textLength="218.0674" x="607.52" y="509.1294">Retrieve stored flag for challenge</text></g><g class="message" data-entity-1="part4" data-entity-2="part3" data-source-line="31" id="msg12"><polygon fill="#181818" points="611.52,539.3281,601.52,543.3281,611.52,547.3281,607.52,543.3281" style="stroke:#181818;stroke-width:1;"/><line style="stroke:#181818;stroke-width:1;stroke-dasharray:2,2;" x1="605.52" x2="896.6533" y1="543.3281" y2="543.3281"/><text fill="#000000" font-family="sans-serif" font-size="13" lengthAdjust="spacing" textLength="76.9399" x="617.52" y="538.2622">correct_flag</text></g><g class="message" data-entity-1="part3" data-entity-2="part3" data-source-line="34" id="msg13"><line style="stroke:#181818;stroke-width:1;" x1="600.52" x2="642.52" y1="587.5938" y2="587.5938"/><line style="stroke:#181818;stroke-width:1;" x1="642.52" x2="642.52" y1="587.5938" y2="600.5938"/><line style="stroke:#181818;stroke-width:1;" x1="601.52" x2="642.52" y1="600.5938" y2="600.5938"/><polygon fill="#181818" points="611.52,596.5938,601.52,600.5938,611.52,604.5938,607.52,600.5938" style="stroke:#181818;stroke-width:1;"/><text fill="#000000" font-family="sans-serif" font-size="13" lengthAdjust="spacing" textLength="157.9106" x="607.52" y="567.395">Compare submitted flag</text><text fill="#000000" font-family="sans-serif" font-size="13" lengthAdjust="spacing" textLength="106.2852" x="607.52" y="582.5278">with correct flag</text></g><path d="M30,615.5938 L94.4429,615.5938 L94.4429,622.7266 L84.4429,632.7266 L30,632.7266 L30,615.5938" fill="#EEEEEE" style="stroke:#000000;stroke-width:1.5;"/><rect fill="none" height="470.0625" style="stroke:#000000;stroke-width:1.5;" width="1107.9849" x="30" y="615.5938"/><text fill="#000000" font-family="sans-serif" font-size="13" font-weight="700" lengthAdjust="spacing" textLength="19.4429" x="45" y="628.6606">alt</text><text fill="#000000" font-family="sans-serif" font-size="11" font-weight="700" lengthAdjust="spacing" textLength="93.5054" x="109.4429" y="627.8042">[flag incorrect]</text><g class="message" data-entity-1="part3" data-entity-2="part4" data-source-line="37" id="msg14"><polygon fill="#181818" points="880.6533,664.9922,890.6533,668.9922,880.6533,672.9922,884.6533,668.9922" style="stroke:#181818;stroke-width:1;"/><line style="stroke:#181818;stroke-width:1;" x1="600.52" x2="886.6533" y1="668.9922" y2="668.9922"/><text fill="#000000" font-family="sans-serif" font-size="13" lengthAdjust="spacing" textLength="162.4873" x="607.52" y="648.7935">Log incorrect submission</text><text fill="#000000" font-family="sans-serif" font-size="13" lengthAdjust="spacing" textLength="224.9419" x="607.52" y="663.9263">(user_id, challenge_id, timestamp)</text></g><g class="message" data-entity-1="part4" data-entity-2="part3" data-source-line="39" id="msg15"><polygon fill="#181818" points="611.52,694.125,601.52,698.125,611.52,702.125,607.52,698.125" style="stroke:#181818;stroke-width:1;"/><line style="stroke:#181818;stroke-width:1;stroke-dasharray:2,2;" x1="605.52" x2="896.6533" y1="698.125" y2="698.125"/><text fill="#000000" font-family="sans-serif" font-size="13" lengthAdjust="spacing" textLength="44.3193" x="617.52" y="693.0591">logged</text></g><g class="message" data-entity-1="part3" data-entity-2="part2" data-source-line="41" id="msg16"><polygon fill="#181818" points="330.3042,723.2578,320.3042,727.2578,330.3042,731.2578,326.3042,727.2578" style="stroke:#181818;stroke-width:1;"/><line style="stroke:#181818;stroke-width:1;stroke-dasharray:2,2;" x1="324.3042" x2="589.52" y1="727.2578" y2="727.2578"/><text fill="#000000" font-family="sans-serif" font-size="13" lengthAdjust="spacing" textLength="148.624" x="336.3042" y="722.1919">200 OK (Incorrect flag)</text></g><g class="message" data-entity-1="part2" data-entity-2="part1" data-source-line="42" id="msg17"><polygon fill="#181818" points="75.7827,752.3906,65.7827,756.3906,75.7827,760.3906,71.7827,756.3906" style="stroke:#181818;stroke-width:1;"/><line style="stroke:#181818;stroke-width:1;stroke-dasharray:2,2;" x1="69.7827" x2="318.3042" y1="756.3906" y2="756.3906"/><text fill="#000000" font-family="sans-serif" font-size="13" lengthAdjust="spacing" textLength="172.1484" x="81.7827" y="751.3247">"Incorrect flag. Try again."</text></g><line style="stroke:#000000;stroke-width:1;stroke-dasharray:2,2;" x1="30" x2="1137.9849" y1="765.3906" y2="765.3906"/><text fill="#000000" font-family="sans-serif" font-size="11" font-weight="700" lengthAdjust="spacing" textLength="81.9038" x="35" y="775.6011">[flag correct]</text><g class="message" data-entity-1="part3" data-entity-2="part4" data-source-line="44" id="msg18"><polygon fill="#181818" points="880.6533,811.4609,890.6533,815.4609,880.6533,819.4609,884.6533,815.4609" style="stroke:#181818;stroke-width:1;"/><line style="stroke:#181818;stroke-width:1;" x1="600.52" x2="886.6533" y1="815.4609" y2="815.4609"/><text fill="#000000" font-family="sans-serif" font-size="13" lengthAdjust="spacing" textLength="164.4741" x="607.52" y="795.2622">Insert correct submission</text><text fill="#000000" font-family="sans-serif" font-size="13" lengthAdjust="spacing" textLength="273.1333" x="607.52" y="810.395">(user_id, challenge_id, points, timestamp)</text></g><g class="message" data-entity-1="part4" data-entity-2="part3" data-source-line="46" id="msg19"><polygon fill="#181818" points="611.52,840.5938,601.52,844.5938,611.52,848.5938,607.52,844.5938" style="stroke:#181818;stroke-width:1;"/><line style="stroke:#181818;stroke-width:1;stroke-dasharray:2,2;" x1="605.52" x2="896.6533" y1="844.5938" y2="844.5938"/><text fill="#000000" font-family="sans-serif" font-size="13" lengthAdjust="spacing" textLength="118.4409" x="617.52" y="839.5278">submission stored</text></g><g class="message" data-entity-1="part3" data-entity-2="part4" data-source-line="49" id="msg20"><polygon fill="#181818" points="880.6533,869.7266,890.6533,873.7266,880.6533,877.7266,884.6533,873.7266" style="stroke:#181818;stroke-width:1;"/><line style="stroke:#181818;stroke-width:1;" x1="600.52" x2="886.6533" y1="873.7266" y2="873.7266"/><text fill="#000000" font-family="sans-serif" font-size="13" lengthAdjust="spacing" textLength="163.1221" x="607.52" y="868.6606">Update user's total score</text></g><g class="message" data-entity-1="part4" data-entity-2="part3" data-source-line="51" id="msg21"><polygon fill="#181818" points="611.52,898.8594,601.52,902.8594,611.52,906.8594,607.52,902.8594" style="stroke:#181818;stroke-width:1;"/><line style="stroke:#181818;stroke-width:1;stroke-dasharray:2,2;" x1="605.52" x2="896.6533" y1="902.8594" y2="902.8594"/><text fill="#000000" font-family="sans-serif" font-size="13" lengthAdjust="spacing" textLength="93.4058" x="617.52" y="897.7935">score updated</text></g><g class="message" data-entity-1="part3" data-entity-2="part5" data-source-line="54" id="msg22"><polygon fill="#181818" points="1063.8887,927.9922,1073.8887,931.9922,1063.8887,935.9922,1067.8887,931.9922" style="stroke:#181818;stroke-width:1;"/><line style="stroke:#181818;stroke-width:1;" x1="600.52" x2="1069.8887" y1="931.9922" y2="931.9922"/><text fill="#000000" font-family="sans-serif" font-size="13" lengthAdjust="spacing" textLength="174.2686" x="607.52" y="926.9263">Trigger scoreboard refresh</text></g><g class="message" data-entity-1="part5" data-entity-2="part4" data-source-line="56" id="msg23"><polygon fill="#181818" points="913.6533,957.125,903.6533,961.125,913.6533,965.125,909.6533,961.125" style="stroke:#181818;stroke-width:1;"/><line style="stroke:#181818;stroke-width:1;" x1="907.6533" x2="1074.8887" y1="961.125" y2="961.125"/><text fill="#000000" font-family="sans-serif" font-size="13" lengthAdjust="spacing" textLength="154.2354" x="919.6533" y="956.0591">Fetch updated rankings</text></g><g class="message" data-entity-1="part4" data-entity-2="part5" data-source-line="58" id="msg24"><polygon fill="#181818" points="1063.8887,986.2578,1073.8887,990.2578,1063.8887,994.2578,1067.8887,990.2578" style="stroke:#181818;stroke-width:1;"/><line style="stroke:#181818;stroke-width:1;stroke-dasharray:2,2;" x1="897.6533" x2="1069.8887" y1="990.2578" y2="990.2578"/><text fill="#000000" font-family="sans-serif" font-size="13" lengthAdjust="spacing" textLength="87.5405" x="904.6533" y="985.1919">sorted scores</text></g><g class="message" data-entity-1="part5" data-entity-2="part3" data-source-line="60" id="msg25"><polygon fill="#181818" points="611.52,1015.3906,601.52,1019.3906,611.52,1023.3906,607.52,1019.3906" style="stroke:#181818;stroke-width:1;"/><line style="stroke:#181818;stroke-width:1;stroke-dasharray:2,2;" x1="605.52" x2="1079.8887" y1="1019.3906" y2="1019.3906"/><text fill="#000000" font-family="sans-serif" font-size="13" lengthAdjust="spacing" textLength="107.3706" x="617.52" y="1014.3247">ranking updated</text></g><g class="message" data-entity-1="part3" data-entity-2="part2" data-source-line="63" id="msg26"><polygon fill="#181818" points="330.3042,1044.5234,320.3042,1048.5234,330.3042,1052.5234,326.3042,1048.5234" style="stroke:#181818;stroke-width:1;"/><line style="stroke:#181818;stroke-width:1;stroke-dasharray:2,2;" x1="324.3042" x2="589.52" y1="1048.5234" y2="1048.5234"/><text fill="#000000" font-family="sans-serif" font-size="13" lengthAdjust="spacing" textLength="247.2158" x="336.3042" y="1043.4575">200 OK (Correct flag, points awarded)</text></g><g class="message" data-entity-1="part2" data-entity-2="part1" data-source-line="64" id="msg27"><polygon fill="#181818" points="75.7827,1073.6563,65.7827,1077.6563,75.7827,1081.6563,71.7827,1077.6563" style="stroke:#181818;stroke-width:1;"/><line style="stroke:#181818;stroke-width:1;stroke-dasharray:2,2;" x1="69.7827" x2="318.3042" y1="1077.6563" y2="1077.6563"/><text fill="#000000" font-family="sans-serif" font-size="13" lengthAdjust="spacing" textLength="180.686" x="81.7827" y="1072.5903">"Correct! +{points} points"</text></g><?plantuml-src fPLFRzf04CNl_XHJNmfg_gdjfJbKYXsGegPA6kYX4X9QxCMiOdQjtN5ILFMxTtPiWsr8KrIa2B9-R_OtpxEsID1OkC_5HjgW41PLeWgX4SAnDHgbJcTw45dpxAGTXY0SZ4SzdN1uTNypqv587adFecWKf0B5GZW9uTVDvDljJ5_N2oouZhfL9ecnSc64fVr6EbEwaatY8AZWuFGpRGsNC28g2yjSP21q2ackaaUOb8krme0498kyxFvkCeLpn-lKGh8IUIvr9kSgFM7t7ELF70OYGVKaK7ha86B_TKJ-U2Mfhbg2V984g1pOKckbivs3UY3fQRCZ2-SE1POE1W-L-ZpEZPFfC4XbsnU877UL4zO4G1zFq7JwyU83Z8rTg3IL6WOZbck3m9Naa0tZob27T0bXF1stAfVMqizy0mvDKSWq36HEzsIlgMRlVlSYjrAaP3Vva_IpKD8WS8RjH2kKTeF-_tOuQLdGZV8N1sXBURuKX57PUibm9Kfdvo1Cx-4h-nbzWjZe9KaH1bSTsk7MiHVI3rFsMWDS-RoQfaBsSbOT4ERkaDI9FKYqYcBrGLignmEwfBErBRbrzNFgPqL7mSe4vxx4Ld0WfHq1ssApfYD503ppM3FCzBF2LLEJbtPkdpE3AbqBjfTwxTsQbgZQmZbbz4iJSGAerf8EmxeOTceUQhuVG6woh3uFXzllGpRJyFxY0kw-mE16j_lj0kpDGbTy1bEx0P49fS_2hP47WPDw9QSRJMaW71DKOPH6zr-1xRQfn-ylsRr4_hr8lS93lgK3Pr3auFnJ-NWQxuAIwnr9Ced9FxMAxh-jwl0x0QnSMkbMXr7e9T5UfnfDJsE9oQeX0Ilq8ptht34DCP0prlkPn_tZM7gA9f1wuzSYyI-xroOxRergCpeWdYcZzlFky8kXihw1Txygt-_QtnfpNS7vR__NWej6Vm00?></g></svg>