<svg xmlns="http://www.w3.org/2000/svg" xmlns:xlink="http://www.w3.org/1999/xlink" contentStyleType="text/css" data-diagram-type="SEQUENCE" height="1400px" preserveAspectRatio="none" style="width:1008px;height:1400px;background:#FFFFFF;" version="1.1" viewBox="0 0 1008 1400" width="1008px" zoomAndPan="magnify"><?plantuml 1.2026.3beta6?><defs/><g><g><title>FastAPI</title><rect fill="#FFFFFF" height="286" style="stroke:#181818;stroke-width:1;" width="10" x="585.2632" y="202.125"/></g><g><title>FastAPI</title><rect fill="#FFFFFF" height="344.2656" style="stroke:#181818;stroke-width:1;" width="10" x="585.2632" y="581.5234"/></g><g><title>FastAPI</title><rect fill="#FFFFFF" height="287" style="stroke:#181818;stroke-width:1;" width="10" x="585.2632" y="1019.1875"/></g><g><title>MySQL</title><rect fill="#FFFFFF" height="29.1328" style="stroke:#181818;stroke-width:1;" width="10" x="941.0659" y="288.5234"/></g><g><title>MySQL</title><rect fill="#FFFFFF" height="29.1328" style="stroke:#181818;stroke-width:1;" width="10" x="941.0659" y="610.6563"/></g><g><title>MySQL</title><rect fill="#FFFFFF" height="29.1328" style="stroke:#181818;stroke-width:1;" width="10" x="941.0659" y="823.3906"/></g><g><title>MySQL</title><rect fill="#FFFFFF" height="29.1328" style="stroke:#181818;stroke-width:1;" width="10" x="941.0659" y="1048.3203"/></g><g><title>MySQL</title><rect fill="#FFFFFF" height="29.1328" style="stroke:#181818;stroke-width:1;" width="10" x="941.0659" y="1203.7891"/></g><rect fill="none" height="148.4688" style="stroke:#000000;stroke-width:1.5;" width="627.4438" x="10" y="332.6563"/><rect fill="none" height="264" style="stroke:#000000;stroke-width:1.5;" width="982.4663" x="10" y="654.7891"/><rect fill="none" height="206.7344" style="stroke:#000000;stroke-width:1.5;" width="982.4663" x="10" y="1092.4531"/><g class="participant-lifeline" data-entity-uid="part1" data-qualified-name="Admin" data-source-line="1" id="part1-lifeline"><g><title>Admin</title><rect fill="#000000" fill-opacity="0.00000" height="1232.5938" width="8" x="41.4321" y="83.5938"/><line style="stroke:#181818;stroke-width:0.5;stroke-dasharray:5,5;" x1="45" x2="45" y1="83.5938" y2="1316.1875"/></g></g><g class="participant-lifeline" data-entity-uid="part2" data-qualified-name="FE" data-source-line="2" id="part2-lifeline"><g><title>Admin Panel</title><rect fill="#000000" fill-opacity="0.00000" height="1232.5938" width="8" x="356.1802" y="83.5938"/><line style="stroke:#181818;stroke-width:0.5;stroke-dasharray:5,5;" x1="359.3242" x2="359.3242" y1="83.5938" y2="1316.1875"/></g></g><g class="participant-lifeline" data-entity-uid="part3" data-qualified-name="BE" data-source-line="3" id="part3-lifeline"><g><title>FastAPI</title><rect fill="#000000" fill-opacity="0.00000" height="1232.5938" width="8" x="586.2632" y="83.5938"/><line style="stroke:#181818;stroke-width:0.5;stroke-dasharray:5,5;" x1="590.0825" x2="590.0825" y1="83.5938" y2="1316.1875"/></g></g><g class="participant-lifeline" data-entity-uid="part4" data-qualified-name="DB" data-source-line="4" id="part4-lifeline"><g><title>MySQL</title><rect fill="#000000" fill-opacity="0.00000" height="1232.5938" width="8" x="942.0659" y="83.5938"/><line style="stroke:#181818;stroke-width:0.5;stroke-dasharray:5,5;" x1="945.6655" x2="945.6655" y1="83.5938" y2="1316.1875"/></g></g><g class="participant participant-head" data-entity-uid="part1" data-qualified-name="Admin" data-source-line="1" id="part1-head"><text fill="#000000" font-family="sans-serif" font-size="14" lengthAdjust="spacing" textLength="44.8643" x="20" y="80.292">Admin</text><ellipse cx="45.4321" cy="15.7969" fill="#E2E2F0" rx="8" ry="8" style="stroke:#181818;stroke-width:0.5;"/><path d="M45.4321,23.7969 L45.4321,50.7969 M32.4321,31.7969 L58.4321,31.7969 M45.4321,50.7969 L32.4321,65.7969 M45.4321,50.7969 L58.4321,65.7969" fill="none" style="stroke:#181818;stroke-width:0.5;"/></g><g class="participant participant-tail" data-entity-uid="part1" data-qualified-name="Admin" data-source-line="1" id="part1-tail"><text fill="#000000" font-family="sans-serif" font-size="14" lengthAdjust="spacing" textLength="44.8643" x="20" y="1328.1826">Admin</text><ellipse cx="45.4321" cy="1339.9844" fill="#E2E2F0" rx="8" ry="8" style="stroke:#181818;stroke-width:0.5;"/><path d="M45.4321,1347.9844 L45.4321,1374.9844 M32.4321,1355.9844 L58.4321,1355.9844 M45.4321,1374.9844 L32.4321,1389.9844 M45.4321,1374.9844 L58.4321,1389.9844" fill="none" style="stroke:#181818;stroke-width:0.5;"/></g><g class="participant participant-head" data-entity-uid="part2" data-qualified-name="FE" data-source-line="2" id="part2-head"><rect fill="#E2E2F0" height="46.5938" rx="2.5" ry="2.5" style="stroke:#181818;stroke-width:0.5;" width="101.7119" x="309.3242" y="36"/><text fill="#000000" font-family="sans-serif" font-size="14" lengthAdjust="spacing" textLength="87.7119" x="316.3242" y="55.9951">Admin Panel</text><text fill="#000000" font-family="sans-serif" font-size="14" lengthAdjust="spacing" textLength="74.0332" x="323.1636" y="72.292">(Frontend)</text></g><g class="participant participant-tail" data-entity-uid="part2" data-qualified-name="FE" data-source-line="2" id="part2-tail"><rect fill="#E2E2F0" height="46.5938" rx="2.5" ry="2.5" style="stroke:#181818;stroke-width:0.5;" width="101.7119" x="309.3242" y="1315.1875"/><text fill="#000000" font-family="sans-serif" font-size="14" lengthAdjust="spacing" textLength="87.7119" x="316.3242" y="1335.1826">Admin Panel</text><text fill="#000000" font-family="sans-serif" font-size="14" lengthAdjust="spacing" textLength="74.0332" x="323.1636" y="1351.4795">(Frontend)</text></g><g class="participant participant-head" data-entity-uid="part3" data-qualified-name="BE" data-source-line="3" id="part3-head"><rect fill="#E2E2F0" height="46.5938" rx="2.5" ry="2.5" style="stroke:#181818;stroke-width:0.5;" width="74.3613" x="553.0825" y="36"/><text fill="#000000" font-family="sans-serif" font-size="14" lengthAdjust="spacing" textLength="51.5635" x="564.4814" y="55.9951">FastAPI</text><text fill="#000000" font-family="sans-serif" font-size="14" lengthAdjust="spacing" textLength="60.3613" x="560.0825" y="72.292">Backend</text></g><g class="participant participant-tail" data-entity-uid="part3" data-qualified-name="BE" data-source-line="3" id="part3-tail"><rect fill="#E2E2F0" height="46.5938" rx="2.5" ry="2.5" style="stroke:#181818;stroke-width:0.5;" width="74.3613" x="553.0825" y="1315.1875"/><text fill="#000000" font-family="sans-serif" font-size="14" lengthAdjust="spacing" textLength="51.5635" x="564.4814" y="1335.1826">FastAPI</text><text fill="#000000" font-family="sans-serif" font-size="14" lengthAdjust="spacing" textLength="60.3613" x="560.0825" y="1351.4795">Backend</text></g><g class="participant participant-head" data-entity-uid="part4" data-qualified-name="DB" data-source-line="4" id="part4-head"><text fill="#000000" font-family="sans-serif" font-size="14" lengthAdjust="spacing" textLength="48.0703" x="919.0308" y="63.9951">MySQL</text><text fill="#000000" font-family="sans-serif" font-size="14" lengthAdjust="spacing" textLength="66.8008" x="909.6655" y="80.292">Database</text><path d="M928.0659,15 C928.0659,5 946.0659,5 946.0659,5 C946.0659,5 964.0659,5 964.0659,15 L964.0659,41 C964.0659,51 946.0659,51 946.0659,51 C946.0659,51 928.0659,51 928.0659,41 L928.0659,15" fill="#E2E2F0" style="stroke:#181818;stroke-width:0.5;"/><path d="M928.0659,15 C928.0659,25 946.0659,25 946.0659,25 C946.0659,25 964.0659,25 964.0659,15" fill="none" style="stroke:#181818;stroke-width:0.5;"/></g><g class="participant participant-tail" data-entity-uid="part4" data-qualified-name="DB" data-source-line="4" id="part4-tail"><text fill="#000000" font-family="sans-serif" font-size="14" lengthAdjust="spacing" textLength="48.0703" x="919.0308" y="1328.1826">MySQL</text><text fill="#000000" font-family="sans-serif" font-size="14" lengthAdjust="spacing" textLength="66.8008" x="909.6655" y="1344.4795">Database</text><path d="M928.0659,1357.7813 C928.0659,1347.7813 946.0659,1347.7813 946.0659,1347.7813 C946.0659,1347.7813 964.0659,1347.7813 964.0659,1357.7813 L964.0659,1383.7813 C964.0659,1393.7813 946.0659,1393.7813 946.0659,1393.7813 C946.0659,1393.7813 928.0659,1393.7813 928.0659,1383.7813 L928.0659,1357.7813" fill="#E2E2F0" style="stroke:#181818;stroke-width:0.5;"/><path d="M928.0659,1357.7813 C928.0659,1367.7813 946.0659,1367.7813 946.0659,1367.7813 C946.0659,1367.7813 964.0659,1367.7813 964.0659,1357.7813" fill="none" style="stroke:#181818;stroke-width:0.5;"/></g><g><title>FastAPI</title><rect fill="#FFFFFF" height="286" style="stroke:#181818;stroke-width:1;" width="10" x="585.2632" y="202.125"/></g><g><title>FastAPI</title><rect fill="#FFFFFF" height="344.2656" style="stroke:#181818;stroke-width:1;" width="10" x="585.2632" y="581.5234"/></g><g><title>FastAPI</title><rect fill="#FFFFFF" height="287" style="stroke:#181818;stroke-width:1;" width="10" x="585.2632" y="1019.1875"/></g><g><title>MySQL</title><rect fill="#FFFFFF" height="29.1328" style="stroke:#181818;stroke-width:1;" width="10" x="941.0659" y="288.5234"/></g><g><title>MySQL</title><rect fill="#FFFFFF" height="29.1328" style="stroke:#181818;stroke-width:1;" width="10" x="941.0659" y="610.6563"/></g><g><title>MySQL</title><rect fill="#FFFFFF" height="29.1328" style="stroke:#181818;stroke-width:1;" width="10" x="941.0659" y="823.3906"/></g><g><title>MySQL</title><rect fill="#FFFFFF" height="29.1328" style="stroke:#181818;stroke-width:1;" width="10" x="941.0659" y="1048.3203"/></g><g><title>MySQL</title><rect fill="#FFFFFF" height="29.1328" style="stroke:#181818;stroke-width:1;" width="10" x="941.0659" y="1203.7891"/></g><rect fill="#EEEEEE" height="3" style="stroke:#EEEEEE;stroke-width:1;" width="1002.4663" x="0" y="114.1602"/><line style="stroke:#000000;stroke-width:1;" x1="0" x2="1002.4663" y1="114.1602" y2="114.1602"/><line style="stroke:#000000;stroke-width:1;" x1="0" x2="1002.4663" y1="117.1602" y2="117.1602"/><rect fill="#EEEEEE" height="23.1328" style="stroke:#000000;stroke-width:2;" width="144.2983" x="429.084" y="103.5938"/><text fill="#000000" font-family="sans-serif" font-size="13" font-weight="700" lengthAdjust="spacing" textLength="125.7725" x="435.084" y="119.6606">Create Challenge</text><g class="message" data-entity-1="part1" data-entity-2="part2" data-source-line="7" id="msg1"><polygon fill="#181818" points="348.1802,168.9922,358.1802,172.9922,348.1802,176.9922,352.1802,172.9922" style="stroke:#181818;stroke-width:1;"/><line style="stroke:#181818;stroke-width:1;" x1="45.4321" x2="354.1802" y1="172.9922" y2="172.9922"/><text fill="#000000" font-family="sans-serif" font-size="13" lengthAdjust="spacing" textLength="120.1802" x="52.4321" y="152.7935">Fill challenge form</text><text fill="#000000" font-family="sans-serif" font-size="13" lengthAdjust="spacing" textLength="290.748" x="52.4321" y="167.9263">(title, category, description, points, flag, file)</text></g><g class="message" data-entity-1="part2" data-entity-2="part3" data-source-line="8" id="msg2"><polygon fill="#181818" points="573.2632,198.125,583.2632,202.125,573.2632,206.125,577.2632,202.125" style="stroke:#181818;stroke-width:1;"/><line style="stroke:#181818;stroke-width:1;" x1="360.1802" x2="579.2632" y1="202.125" y2="202.125"/><text fill="#000000" font-family="sans-serif" font-size="13" lengthAdjust="spacing" textLength="157.7266" x="367.1802" y="197.0591">POST /admin/challenges</text></g><g class="message" data-entity-1="part3" data-entity-2="part3" data-source-line="11" id="msg3"><line style="stroke:#181818;stroke-width:1;" x1="595.2632" x2="637.2632" y1="231.2578" y2="231.2578"/><line style="stroke:#181818;stroke-width:1;" x1="637.2632" x2="637.2632" y1="231.2578" y2="244.2578"/><line style="stroke:#181818;stroke-width:1;" x1="596.2632" x2="637.2632" y1="244.2578" y2="244.2578"/><polygon fill="#181818" points="606.2632,240.2578,596.2632,244.2578,606.2632,248.2578,602.2632,244.2578" style="stroke:#181818;stroke-width:1;"/><text fill="#000000" font-family="sans-serif" font-size="13" lengthAdjust="spacing" textLength="129.9238" x="602.2632" y="226.1919">Validate input fields</text></g><g class="message" data-entity-1="part3" data-entity-2="part4" data-source-line="12" id="msg4"><polygon fill="#181818" points="929.0659,284.5234,939.0659,288.5234,929.0659,292.5234,933.0659,288.5234" style="stroke:#181818;stroke-width:1;"/><line style="stroke:#181818;stroke-width:1;" x1="595.2632" x2="935.0659" y1="288.5234" y2="288.5234"/><text fill="#000000" font-family="sans-serif" font-size="13" lengthAdjust="spacing" textLength="145.1963" x="602.2632" y="268.3247">INSERT new challenge</text><text fill="#000000" font-family="sans-serif" font-size="13" lengthAdjust="spacing" textLength="326.8027" x="602.2632" y="283.4575">(title, category, description, points, flag, file_path)</text></g><g class="message" data-entity-1="part4" data-entity-2="part3" data-source-line="14" id="msg5"><polygon fill="#181818" points="606.2632,313.6563,596.2632,317.6563,606.2632,321.6563,602.2632,317.6563" style="stroke:#181818;stroke-width:1;"/><line style="stroke:#181818;stroke-width:1;stroke-dasharray:2,2;" x1="600.2632" x2="945.0659" y1="317.6563" y2="317.6563"/><text fill="#000000" font-family="sans-serif" font-size="13" lengthAdjust="spacing" textLength="81.4277" x="612.2632" y="312.5903">challenge_id</text></g><path d="M10,332.6563 L74.4429,332.6563 L74.4429,339.7891 L64.4429,349.7891 L10,349.7891 L10,332.6563" fill="#EEEEEE" style="stroke:#000000;stroke-width:1.5;"/><rect fill="none" height="148.4688" style="stroke:#000000;stroke-width:1.5;" width="627.4438" x="10" y="332.6563"/><text fill="#000000" font-family="sans-serif" font-size="13" font-weight="700" lengthAdjust="spacing" textLength="19.4429" x="25" y="345.7231">alt</text><text fill="#000000" font-family="sans-serif" font-size="11" font-weight="700" lengthAdjust="spacing" textLength="129.4917" x="89.4429" y="344.8667">[creation successful]</text><g class="message" data-entity-1="part3" data-entity-2="part2" data-source-line="18" id="msg6"><polygon fill="#181818" points="371.1802,366.9219,361.1802,370.9219,371.1802,374.9219,367.1802,370.9219" style="stroke:#181818;stroke-width:1;"/><line style="stroke:#181818;stroke-width:1;stroke-dasharray:2,2;" x1="365.1802" x2="584.2632" y1="370.9219" y2="370.9219"/><text fill="#000000" font-family="sans-serif" font-size="13" lengthAdjust="spacing" textLength="176.3823" x="377.1802" y="365.856">201 Created (challenge_id)</text></g><g class="message" data-entity-1="part2" data-entity-2="part1" data-source-line="19" id="msg7"><polygon fill="#181818" points="56.4321,396.0547,46.4321,400.0547,56.4321,404.0547,52.4321,400.0547" style="stroke:#181818;stroke-width:1;"/><line style="stroke:#181818;stroke-width:1;stroke-dasharray:2,2;" x1="50.4321" x2="359.1802" y1="400.0547" y2="400.0547"/><text fill="#000000" font-family="sans-serif" font-size="13" lengthAdjust="spacing" textLength="213.605" x="62.4321" y="394.9888">"Challenge created successfully"</text></g><line style="stroke:#000000;stroke-width:1;stroke-dasharray:2,2;" x1="10" x2="637.4438" y1="409.0547" y2="409.0547"/><text fill="#000000" font-family="sans-serif" font-size="11" font-weight="700" lengthAdjust="spacing" textLength="100.2139" x="15" y="419.2651">[creation failed]</text><g class="message" data-entity-1="part3" data-entity-2="part2" data-source-line="21" id="msg8"><polygon fill="#181818" points="371.1802,439.9922,361.1802,443.9922,371.1802,447.9922,367.1802,443.9922" style="stroke:#181818;stroke-width:1;"/><line style="stroke:#181818;stroke-width:1;stroke-dasharray:2,2;" x1="365.1802" x2="584.2632" y1="443.9922" y2="443.9922"/><text fill="#000000" font-family="sans-serif" font-size="13" lengthAdjust="spacing" textLength="149.062" x="377.1802" y="438.9263">400 Bad Request / 500</text></g><g class="message" data-entity-1="part2" data-entity-2="part1" data-source-line="22" id="msg9"><polygon fill="#181818" points="56.4321,469.125,46.4321,473.125,56.4321,477.125,52.4321,473.125" style="stroke:#181818;stroke-width:1;"/><line style="stroke:#181818;stroke-width:1;stroke-dasharray:2,2;" x1="50.4321" x2="359.1802" y1="473.125" y2="473.125"/><text fill="#000000" font-family="sans-serif" font-size="13" lengthAdjust="spacing" textLength="169.146" x="62.4321" y="468.0591">"Error creating challenge"</text></g><rect fill="#EEEEEE" height="3" style="stroke:#EEEEEE;stroke-width:1;" width="1002.4663" x="0" y="508.6914"/><line style="stroke:#000000;stroke-width:1;" x1="0" x2="1002.4663" y1="508.6914" y2="508.6914"/><line style="stroke:#000000;stroke-width:1;" x1="0" x2="1002.4663" y1="511.6914" y2="511.6914"/><rect fill="#EEEEEE" height="23.1328" style="stroke:#000000;stroke-width:2;" width="124.5825" x="438.9419" y="498.125"/><text fill="#000000" font-family="sans-serif" font-size="13" font-weight="700" lengthAdjust="spacing" textLength="106.0566" x="444.9419" y="514.1919">Edit Challenge</text><g class="message" data-entity-1="part1" data-entity-2="part2" data-source-line="27" id="msg10"><polygon fill="#181818" points="348.1802,548.3906,358.1802,552.3906,348.1802,556.3906,352.1802,552.3906" style="stroke:#181818;stroke-width:1;"/><line style="stroke:#181818;stroke-width:1;" x1="45.4321" x2="354.1802" y1="552.3906" y2="552.3906"/><text fill="#000000" font-family="sans-serif" font-size="13" lengthAdjust="spacing" textLength="209.4092" x="52.4321" y="547.3247">Select challenge &amp; modify fields</text></g><g class="message" data-entity-1="part2" data-entity-2="part3" data-source-line="28" id="msg11"><polygon fill="#181818" points="573.2632,577.5234,583.2632,581.5234,573.2632,585.5234,577.2632,581.5234" style="stroke:#181818;stroke-width:1;"/><line style="stroke:#181818;stroke-width:1;" x1="360.1802" x2="579.2632" y1="581.5234" y2="581.5234"/><text fill="#000000" font-family="sans-serif" font-size="13" lengthAdjust="spacing" textLength="181.543" x="367.1802" y="576.4575">PUT /admin/challenges/{id}</text></g><g class="message" data-entity-1="part3" data-entity-2="part4" data-source-line="31" id="msg12"><polygon fill="#181818" points="929.0659,606.6563,939.0659,610.6563,929.0659,614.6563,933.0659,610.6563" style="stroke:#181818;stroke-width:1;"/><line style="stroke:#181818;stroke-width:1;" x1="595.2632" x2="935.0659" y1="610.6563" y2="610.6563"/><text fill="#000000" font-family="sans-serif" font-size="13" lengthAdjust="spacing" textLength="152.2104" x="602.2632" y="605.5903">SELECT challenge by id</text></g><g class="message" data-entity-1="part4" data-entity-2="part3" data-source-line="33" id="msg13"><polygon fill="#181818" points="606.2632,635.7891,596.2632,639.7891,606.2632,643.7891,602.2632,639.7891" style="stroke:#181818;stroke-width:1;"/><line style="stroke:#181818;stroke-width:1;stroke-dasharray:2,2;" x1="600.2632" x2="945.0659" y1="639.7891" y2="639.7891"/><text fill="#000000" font-family="sans-serif" font-size="13" lengthAdjust="spacing" textLength="96.478" x="612.2632" y="634.7231">challenge data</text></g><path d="M10,654.7891 L74.4429,654.7891 L74.4429,661.9219 L64.4429,671.9219 L10,671.9219 L10,654.7891" fill="#EEEEEE" style="stroke:#000000;stroke-width:1.5;"/><rect fill="none" height="264" style="stroke:#000000;stroke-width:1.5;" width="982.4663" x="10" y="654.7891"/><text fill="#000000" font-family="sans-serif" font-size="13" font-weight="700" lengthAdjust="spacing" textLength="19.4429" x="25" y="667.856">alt</text><text fill="#000000" font-family="sans-serif" font-size="11" font-weight="700" lengthAdjust="spacing" textLength="134.1807" x="89.4429" y="666.9995">[challenge not found]</text><g class="message" data-entity-1="part3" data-entity-2="part2" data-source-line="37" id="msg14"><polygon fill="#181818" points="371.1802,689.0547,361.1802,693.0547,371.1802,697.0547,367.1802,693.0547" style="stroke:#181818;stroke-width:1;"/><line style="stroke:#181818;stroke-width:1;stroke-dasharray:2,2;" x1="365.1802" x2="584.2632" y1="693.0547" y2="693.0547"/><text fill="#000000" font-family="sans-serif" font-size="13" lengthAdjust="spacing" textLength="96.0146" x="377.1802" y="687.9888">404 Not Found</text></g><g class="message" data-entity-1="part2" data-entity-2="part1" data-source-line="38" id="msg15"><polygon fill="#181818" points="56.4321,718.1875,46.4321,722.1875,56.4321,726.1875,52.4321,722.1875" style="stroke:#181818;stroke-width:1;"/><line style="stroke:#181818;stroke-width:1;stroke-dasharray:2,2;" x1="50.4321" x2="359.1802" y1="722.1875" y2="722.1875"/><text fill="#000000" font-family="sans-serif" font-size="13" lengthAdjust="spacing" textLength="172.7896" x="62.4321" y="717.1216">"Challenge does not exist"</text></g><line style="stroke:#000000;stroke-width:1;stroke-dasharray:2,2;" x1="10" x2="992.4663" y1="731.1875" y2="731.1875"/><text fill="#000000" font-family="sans-serif" font-size="11" font-weight="700" lengthAdjust="spacing" textLength="109.7046" x="15" y="741.3979">[challenge found]</text><g class="message" data-entity-1="part3" data-entity-2="part3" data-source-line="40" id="msg16"><line style="stroke:#181818;stroke-width:1;" x1="595.2632" x2="637.2632" y1="766.125" y2="766.125"/><line style="stroke:#181818;stroke-width:1;" x1="637.2632" x2="637.2632" y1="766.125" y2="779.125"/><line style="stroke:#181818;stroke-width:1;" x1="596.2632" x2="637.2632" y1="779.125" y2="779.125"/><polygon fill="#181818" points="606.2632,775.125,596.2632,779.125,606.2632,783.125,602.2632,779.125" style="stroke:#181818;stroke-width:1;"/><text fill="#000000" font-family="sans-serif" font-size="13" lengthAdjust="spacing" textLength="150.541" x="602.2632" y="761.0591">Validate updated fields</text></g><g class="message" data-entity-1="part3" data-entity-2="part4" data-source-line="41" id="msg17"><polygon fill="#181818" points="929.0659,819.3906,939.0659,823.3906,929.0659,827.3906,933.0659,823.3906" style="stroke:#181818;stroke-width:1;"/><line style="stroke:#181818;stroke-width:1;" x1="595.2632" x2="935.0659" y1="823.3906" y2="823.3906"/><text fill="#000000" font-family="sans-serif" font-size="13" lengthAdjust="spacing" textLength="182.5649" x="602.2632" y="803.1919">UPDATE challenge set fields</text><text fill="#000000" font-family="sans-serif" font-size="13" lengthAdjust="spacing" textLength="235.6377" x="602.2632" y="818.3247">(optionally update flag, points, files)</text></g><g class="message" data-entity-1="part4" data-entity-2="part3" data-source-line="43" id="msg18"><polygon fill="#181818" points="606.2632,848.5234,596.2632,852.5234,606.2632,856.5234,602.2632,852.5234" style="stroke:#181818;stroke-width:1;"/><line style="stroke:#181818;stroke-width:1;stroke-dasharray:2,2;" x1="600.2632" x2="945.0659" y1="852.5234" y2="852.5234"/><text fill="#000000" font-family="sans-serif" font-size="13" lengthAdjust="spacing" textLength="100.7881" x="612.2632" y="847.4575">update success</text></g><g class="message" data-entity-1="part3" data-entity-2="part2" data-source-line="45" id="msg19"><polygon fill="#181818" points="371.1802,877.6563,361.1802,881.6563,371.1802,885.6563,367.1802,881.6563" style="stroke:#181818;stroke-width:1;"/><line style="stroke:#181818;stroke-width:1;stroke-dasharray:2,2;" x1="365.1802" x2="584.2632" y1="881.6563" y2="881.6563"/><text fill="#000000" font-family="sans-serif" font-size="13" lengthAdjust="spacing" textLength="183.2314" x="377.1802" y="876.5903">200 OK (updated challenge)</text></g><g class="message" data-entity-1="part2" data-entity-2="part1" data-source-line="46" id="msg20"><polygon fill="#181818" points="56.4321,906.7891,46.4321,910.7891,56.4321,914.7891,52.4321,910.7891" style="stroke:#181818;stroke-width:1;"/><line style="stroke:#181818;stroke-width:1;stroke-dasharray:2,2;" x1="50.4321" x2="359.1802" y1="910.7891" y2="910.7891"/><text fill="#000000" font-family="sans-serif" font-size="13" lengthAdjust="spacing" textLength="217.8579" x="62.4321" y="905.7231">"Challenge updated successfully"</text></g><rect fill="#EEEEEE" height="3" style="stroke:#EEEEEE;stroke-width:1;" width="1002.4663" x="0" y="946.3555"/><line style="stroke:#000000;stroke-width:1;" x1="0" x2="1002.4663" y1="946.3555" y2="946.3555"/><line style="stroke:#000000;stroke-width:1;" x1="0" x2="1002.4663" y1="949.3555" y2="949.3555"/><rect fill="#EEEEEE" height="23.1328" style="stroke:#000000;stroke-width:2;" width="143.6382" x="429.4141" y="935.7891"/><text fill="#000000" font-family="sans-serif" font-size="13" font-weight="700" lengthAdjust="spacing" textLength="125.1123" x="435.4141" y="951.856">Delete Challenge</text><g class="message" data-entity-1="part1" data-entity-2="part2" data-source-line="51" id="msg21"><polygon fill="#181818" points="348.1802,986.0547,358.1802,990.0547,348.1802,994.0547,352.1802,990.0547" style="stroke:#181818;stroke-width:1;"/><line style="stroke:#181818;stroke-width:1;" x1="45.4321" x2="354.1802" y1="990.0547" y2="990.0547"/><text fill="#000000" font-family="sans-serif" font-size="13" lengthAdjust="spacing" textLength="220.3271" x="52.4321" y="984.9888">Select challenge &amp; confirm delete</text></g><g class="message" data-entity-1="part2" data-entity-2="part3" data-source-line="52" id="msg22"><polygon fill="#181818" points="573.2632,1015.1875,583.2632,1019.1875,573.2632,1023.1875,577.2632,1019.1875" style="stroke:#181818;stroke-width:1;"/><line style="stroke:#181818;stroke-width:1;" x1="360.1802" x2="579.2632" y1="1019.1875" y2="1019.1875"/><text fill="#000000" font-family="sans-serif" font-size="13" lengthAdjust="spacing" textLength="206.083" x="367.1802" y="1014.1216">DELETE /admin/challenges/{id}</text></g><g class="message" data-entity-1="part3" data-entity-2="part4" data-source-line="55" id="msg23"><polygon fill="#181818" points="929.0659,1044.3203,939.0659,1048.3203,929.0659,1052.3203,933.0659,1048.3203" style="stroke:#181818;stroke-width:1;"/><line style="stroke:#181818;stroke-width:1;" x1="595.2632" x2="935.0659" y1="1048.3203" y2="1048.3203"/><text fill="#000000" font-family="sans-serif" font-size="13" lengthAdjust="spacing" textLength="152.2104" x="602.2632" y="1043.2544">SELECT challenge by id</text></g><g class="message" data-entity-1="part4" data-entity-2="part3" data-source-line="57" id="msg24"><polygon fill="#181818" points="606.2632,1073.4531,596.2632,1077.4531,606.2632,1081.4531,602.2632,1077.4531" style="stroke:#181818;stroke-width:1;"/><line style="stroke:#181818;stroke-width:1;stroke-dasharray:2,2;" x1="600.2632" x2="945.0659" y1="1077.4531" y2="1077.4531"/><text fill="#000000" font-family="sans-serif" font-size="13" lengthAdjust="spacing" textLength="147.1895" x="612.2632" y="1072.3872">challenge exists (bool)</text></g><path d="M10,1092.4531 L74.4429,1092.4531 L74.4429,1099.5859 L64.4429,1109.5859 L10,1109.5859 L10,1092.4531" fill="#EEEEEE" style="stroke:#000000;stroke-width:1.5;"/><rect fill="none" height="206.7344" style="stroke:#000000;stroke-width:1.5;" width="982.4663" x="10" y="1092.4531"/><text fill="#000000" font-family="sans-serif" font-size="13" font-weight="700" lengthAdjust="spacing" textLength="19.4429" x="25" y="1105.52">alt</text><text fill="#000000" font-family="sans-serif" font-size="11" font-weight="700" lengthAdjust="spacing" textLength="134.1807" x="89.4429" y="1104.6636">[challenge not found]</text><g class="message" data-entity-1="part3" data-entity-2="part2" data-source-line="61" id="msg25"><polygon fill="#181818" points="371.1802,1126.7188,361.1802,1130.7188,371.1802,1134.7188,367.1802,1130.7188" style="stroke:#181818;stroke-width:1;"/><line style="stroke:#181818;stroke-width:1;stroke-dasharray:2,2;" x1="365.1802" x2="584.2632" y1="1130.7188" y2="1130.7188"/><text fill="#000000" font-family="sans-serif" font-size="13" lengthAdjust="spacing" textLength="96.0146" x="377.1802" y="1125.6528">404 Not Found</text></g><g class="message" data-entity-1="part2" data-entity-2="part1" data-source-line="62" id="msg26"><polygon fill="#181818" points="56.4321,1155.8516,46.4321,1159.8516,56.4321,1163.8516,52.4321,1159.8516" style="stroke:#181818;stroke-width:1;"/><line style="stroke:#181818;stroke-width:1;stroke-dasharray:2,2;" x1="50.4321" x2="359.1802" y1="1159.8516" y2="1159.8516"/><text fill="#000000" font-family="sans-serif" font-size="13" lengthAdjust="spacing" textLength="143.7681" x="62.4321" y="1154.7856">"Challenge not found"</text></g><line style="stroke:#000000;stroke-width:1;stroke-dasharray:2,2;" x1="10" x2="992.4663" y1="1168.8516" y2="1168.8516"/><text fill="#000000" font-family="sans-serif" font-size="11" font-weight="700" lengthAdjust="spacing" textLength="110.5049" x="15" y="1179.062">[challenge exists]</text><g class="message" data-entity-1="part3" data-entity-2="part4" data-source-line="64" id="msg27"><polygon fill="#181818" points="929.0659,1199.7891,939.0659,1203.7891,929.0659,1207.7891,933.0659,1203.7891" style="stroke:#181818;stroke-width:1;"/><line style="stroke:#181818;stroke-width:1;" x1="595.2632" x2="935.0659" y1="1203.7891" y2="1203.7891"/><text fill="#000000" font-family="sans-serif" font-size="13" lengthAdjust="spacing" textLength="277.9575" x="602.2632" y="1198.7231">DELETE challenge where id = challenge_id</text></g><g class="message" data-entity-1="part4" data-entity-2="part3" data-source-line="66" id="msg28"><polygon fill="#181818" points="606.2632,1228.9219,596.2632,1232.9219,606.2632,1236.9219,602.2632,1232.9219" style="stroke:#181818;stroke-width:1;"/><line style="stroke:#181818;stroke-width:1;stroke-dasharray:2,2;" x1="600.2632" x2="945.0659" y1="1232.9219" y2="1232.9219"/><text fill="#000000" font-family="sans-serif" font-size="13" lengthAdjust="spacing" textLength="107.7451" x="612.2632" y="1227.856">deletion success</text></g><g class="message" data-entity-1="part3" data-entity-2="part2" data-source-line="68" id="msg29"><polygon fill="#181818" points="371.1802,1258.0547,361.1802,1262.0547,371.1802,1266.0547,367.1802,1262.0547" style="stroke:#181818;stroke-width:1;"/><line style="stroke:#181818;stroke-width:1;stroke-dasharray:2,2;" x1="365.1802" x2="584.2632" y1="1262.0547" y2="1262.0547"/><text fill="#000000" font-family="sans-serif" font-size="13" lengthAdjust="spacing" textLength="111.1855" x="377.1802" y="1256.9888">200 OK (deleted)</text></g><g class="message" data-entity-1="part2" data-entity-2="part1" data-source-line="69" id="msg30"><polygon fill="#181818" points="56.4321,1287.1875,46.4321,1291.1875,56.4321,1295.1875,52.4321,1291.1875" style="stroke:#181818;stroke-width:1;"/><line style="stroke:#181818;stroke-width:1;stroke-dasharray:2,2;" x1="50.4321" x2="359.1802" y1="1291.1875" y2="1291.1875"/><text fill="#000000" font-family="sans-serif" font-size="13" lengthAdjust="spacing" textLength="217.5278" x="62.4321" y="1286.1216">"Challenge deleted permanently"</text></g><?plantuml-src lPLVRzem5CNVyockU9X0ee9DtKib9X6IIDMwbXMw9wJAs3VKch6psAn3Kx_xRlu7o8gsX_A0H7nyxlMvlnZ6dKbXAhPIUmbBdUGoOTf1Bty4SwPHhNG_IersgCMW1yn251vg8sRTT7wzqZxZtqcLY_pG4yonDRC8lI_xnTURbGxA1xaWy3rlCe5PYimXp9wOKgWt29E9LnI_-4ILu0eYgHJmUZqswPPQSj8f70AdpHkJxeSWqF9K9auQFOJ4IEti46B5DlGj5GuyCYDBFxEStosMC69PcL7jR3t6dVoPTKFDUtuZ_yQK5DbpgPET8pjKmfQ2m2V1zUqYl5-2nkUcqV_eyJ5XxcdGj44HaVr5rKPj_IY59x0jyvXomBCeoHhiZdEqDjuf3-YJDLg5-M7ylenSGBzjECYbKI4j1d05lMOilDpKUAjzpqDbiQaRCpg4EAbvEHw3pmJSuuyTMWSZ-3WUTvOBqvHmBFpqfZam5T87Hyu6HF24GhhNq5cWGkvQyBo3hH4otbSpR3Fnq874wBSKBrrSv6DVX3VXRDcoN--1HdDsVf2z6PqJh1NQ46TcfxlIl8HRMetgrRyFJHYqkHN-ajPLusgzIkq2nx3l4f5Fl8ogaULdVvW7qsNOChDOlHb4liaPfwLzQLDINZDFeDW2kNO8sUzsOkNUahby-J2rKxp7SFSP-bNlTNldyAus7E7TILr0LBr-PNLmnusEPRgb_hFDRV02eeYIV2lsSXGizDV6gC5RG5YxdF1Nj79CLfb78tj-mfJkNW6Jmolm73rvrAtxy1_uAQPqzb8iPP1WkgM_IkqweVa3?></g></svg>