<svg xmlns="http://www.w3.org/2000/svg" xmlns:xlink="http://www.w3.org/1999/xlink" contentStyleType="text/css" data-diagram-type="SEQUENCE" height="936px" preserveAspectRatio="none" style="width:894px;height:936px;background:#FFFFFF;" version="1.1" viewBox="0 0 894 936" width="894px" zoomAndPan="magnify"><?plantuml 1.2026.3beta6?><defs/><g><g><title>FastAPI</title><rect fill="#FFFFFF" height="117.6641" style="stroke:#181818;stroke-width:1;" width="10" x="609.3457" y="186.9922"/></g><g><title>FastAPI</title><rect fill="#FFFFFF" height="160.7969" style="stroke:#181818;stroke-width:1;" width="10" x="609.3457" y="563.7188"/></g><g><title>MySQL</title><rect fill="#FFFFFF" height="29.1328" style="stroke:#181818;stroke-width:1;" width="10" x="842.4292" y="246.3906"/></g><g><title>MySQL</title><rect fill="#FFFFFF" height="29.1328" style="stroke:#181818;stroke-width:1;" width="10" x="842.4292" y="592.8516"/></g><g><title>MySQL</title><rect fill="#FFFFFF" height="29.1328" style="stroke:#181818;stroke-width:1;" width="10" x="842.4292" y="666.25"/></g><g class="participant-lifeline" data-entity-uid="part1" data-qualified-name="Admin" data-source-line="1" id="part1-lifeline"><g><title>Admin</title><rect fill="#000000" fill-opacity="0.00000" height="768.5859" width="8" x="26.4321" y="83.5938"/><line style="stroke:#181818;stroke-width:0.5;stroke-dasharray:5,5;" x1="30" x2="30" y1="83.5938" y2="852.1797"/></g></g><g class="participant-lifeline" data-entity-uid="part2" data-qualified-name="FE" data-source-line="2" id="part2-lifeline"><g><title>Admin Panel</title><rect fill="#000000" fill-opacity="0.00000" height="768.5859" width="8" x="387.8799" y="83.5938"/><line style="stroke:#181818;stroke-width:0.5;stroke-dasharray:5,5;" x1="391.0239" x2="391.0239" y1="83.5938" y2="852.1797"/></g></g><g class="participant-lifeline" data-entity-uid="part3" data-qualified-name="BE" data-source-line="3" id="part3-lifeline"><g><title>FastAPI</title><rect fill="#000000" fill-opacity="0.00000" height="768.5859" width="8" x="610.3457" y="83.5938"/><line style="stroke:#181818;stroke-width:0.5;stroke-dasharray:5,5;" x1="614.165" x2="614.165" y1="83.5938" y2="852.1797"/></g></g><g class="participant-lifeline" data-entity-uid="part4" data-qualified-name="DB" data-source-line="4" id="part4-lifeline"><g><title>MySQL</title><rect fill="#000000" fill-opacity="0.00000" height="768.5859" width="8" x="843.4292" y="83.5938"/><line style="stroke:#181818;stroke-width:0.5;stroke-dasharray:5,5;" x1="847.0288" x2="847.0288" y1="83.5938" y2="852.1797"/></g></g><g class="participant participant-head" data-entity-uid="part1" data-qualified-name="Admin" data-source-line="1" id="part1-head"><text fill="#000000" font-family="sans-serif" font-size="14" lengthAdjust="spacing" textLength="44.8643" x="5" y="80.292">Admin</text><ellipse cx="30.4321" cy="15.7969" fill="#E2E2F0" rx="8" ry="8" style="stroke:#181818;stroke-width:0.5;"/><path d="M30.4321,23.7969 L30.4321,50.7969 M17.4321,31.7969 L43.4321,31.7969 M30.4321,50.7969 L17.4321,65.7969 M30.4321,50.7969 L43.4321,65.7969" fill="none" style="stroke:#181818;stroke-width:0.5;"/></g><g class="participant participant-tail" data-entity-uid="part1" data-qualified-name="Admin" data-source-line="1" id="part1-tail"><text fill="#000000" font-family="sans-serif" font-size="14" lengthAdjust="spacing" textLength="44.8643" x="5" y="864.1748">Admin</text><ellipse cx="30.4321" cy="875.9766" fill="#E2E2F0" rx="8" ry="8" style="stroke:#181818;stroke-width:0.5;"/><path d="M30.4321,883.9766 L30.4321,910.9766 M17.4321,891.9766 L43.4321,891.9766 M30.4321,910.9766 L17.4321,925.9766 M30.4321,910.9766 L43.4321,925.9766" fill="none" style="stroke:#181818;stroke-width:0.5;"/></g><g class="participant participant-head" data-entity-uid="part2" data-qualified-name="FE" data-source-line="2" id="part2-head"><rect fill="#E2E2F0" height="46.5938" rx="2.5" ry="2.5" style="stroke:#181818;stroke-width:0.5;" width="101.7119" x="341.0239" y="36"/><text fill="#000000" font-family="sans-serif" font-size="14" lengthAdjust="spacing" textLength="87.7119" x="348.0239" y="55.9951">Admin Panel</text><text fill="#000000" font-family="sans-serif" font-size="14" lengthAdjust="spacing" textLength="74.0332" x="354.8633" y="72.292">(Frontend)</text></g><g class="participant participant-tail" data-entity-uid="part2" data-qualified-name="FE" data-source-line="2" id="part2-tail"><rect fill="#E2E2F0" height="46.5938" rx="2.5" ry="2.5" style="stroke:#181818;stroke-width:0.5;" width="101.7119" x="341.0239" y="851.1797"/><text fill="#000000" font-family="sans-serif" font-size="14" lengthAdjust="spacing" textLength="87.7119" x="348.0239" y="871.1748">Admin Panel</text><text fill="#000000" font-family="sans-serif" font-size="14" lengthAdjust="spacing" textLength="74.0332" x="354.8633" y="887.4717">(Frontend)</text></g><g class="participant participant-head" data-entity-uid="part3" data-qualified-name="BE" data-source-line="3" id="part3-head"><rect fill="#E2E2F0" height="46.5938" rx="2.5" ry="2.5" style="stroke:#181818;stroke-width:0.5;" width="74.3613" x="577.165" y="36"/><text fill="#000000" font-family="sans-serif" font-size="14" lengthAdjust="spacing" textLength="51.5635" x="588.564" y="55.9951">FastAPI</text><text fill="#000000" font-family="sans-serif" font-size="14" lengthAdjust="spacing" textLength="60.3613" x="584.165" y="72.292">Backend</text></g><g class="participant participant-tail" data-entity-uid="part3" data-qualified-name="BE" data-source-line="3" id="part3-tail"><rect fill="#E2E2F0" height="46.5938" rx="2.5" ry="2.5" style="stroke:#181818;stroke-width:0.5;" width="74.3613" x="577.165" y="851.1797"/><text fill="#000000" font-family="sans-serif" font-size="14" lengthAdjust="spacing" textLength="51.5635" x="588.564" y="871.1748">FastAPI</text><text fill="#000000" font-family="sans-serif" font-size="14" lengthAdjust="spacing" textLength="60.3613" x="584.165" y="887.4717">Backend</text></g><g class="participant participant-head" data-entity-uid="part4" data-qualified-name="DB" data-source-line="4" id="part4-head"><text fill="#000000" font-family="sans-serif" font-size="14" lengthAdjust="spacing" textLength="48.0703" x="820.394" y="63.9951">MySQL</text><text fill="#000000" font-family="sans-serif" font-size="14" lengthAdjust="spacing" textLength="66.8008" x="811.0288" y="80.292">Database</text><path d="M829.4292,15 C829.4292,5 847.4292,5 847.4292,5 C847.4292,5 865.4292,5 865.4292,15 L865.4292,41 C865.4292,51 847.4292,51 847.4292,51 C847.4292,51 829.4292,51 829.4292,41 L829.4292,15" fill="#E2E2F0" style="stroke:#181818;stroke-width:0.5;"/><path d="M829.4292,15 C829.4292,25 847.4292,25 847.4292,25 C847.4292,25 865.4292,25 865.4292,15" fill="none" style="stroke:#181818;stroke-width:0.5;"/></g><g class="participant participant-tail" data-entity-uid="part4" data-qualified-name="DB" data-source-line="4" id="part4-tail"><text fill="#000000" font-family="sans-serif" font-size="14" lengthAdjust="spacing" textLength="48.0703" x="820.394" y="864.1748">MySQL</text><text fill="#000000" font-family="sans-serif" font-size="14" lengthAdjust="spacing" textLength="66.8008" x="811.0288" y="880.4717">Database</text><path d="M829.4292,893.7734 C829.4292,883.7734 847.4292,883.7734 847.4292,883.7734 C847.4292,883.7734 865.4292,883.7734 865.4292,893.7734 L865.4292,919.7734 C865.4292,929.7734 847.4292,929.7734 847.4292,929.7734 C847.4292,929.7734 829.4292,929.7734 829.4292,919.7734 L829.4292,893.7734" fill="#E2E2F0" style="stroke:#181818;stroke-width:0.5;"/><path d="M829.4292,893.7734 C829.4292,903.7734 847.4292,903.7734 847.4292,903.7734 C847.4292,903.7734 865.4292,903.7734 865.4292,893.7734" fill="none" style="stroke:#181818;stroke-width:0.5;"/></g><g><title>FastAPI</title><rect fill="#FFFFFF" height="117.6641" style="stroke:#181818;stroke-width:1;" width="10" x="609.3457" y="186.9922"/></g><g><title>FastAPI</title><rect fill="#FFFFFF" height="160.7969" style="stroke:#181818;stroke-width:1;" width="10" x="609.3457" y="563.7188"/></g><g><title>MySQL</title><rect fill="#FFFFFF" height="29.1328" style="stroke:#181818;stroke-width:1;" width="10" x="842.4292" y="246.3906"/></g><g><title>MySQL</title><rect fill="#FFFFFF" height="29.1328" style="stroke:#181818;stroke-width:1;" width="10" x="842.4292" y="592.8516"/></g><g><title>MySQL</title><rect fill="#FFFFFF" height="29.1328" style="stroke:#181818;stroke-width:1;" width="10" x="842.4292" y="666.25"/></g><rect fill="#EEEEEE" height="3" style="stroke:#EEEEEE;stroke-width:1;" width="888.8296" x="0" y="114.1602"/><line style="stroke:#000000;stroke-width:1;" x1="0" x2="888.8296" y1="114.1602" y2="114.1602"/><line style="stroke:#000000;stroke-width:1;" x1="0" x2="888.8296" y1="117.1602" y2="117.1602"/><rect fill="#EEEEEE" height="23.1328" style="stroke:#000000;stroke-width:2;" width="173.6753" x="357.5771" y="103.5938"/><text fill="#000000" font-family="sans-serif" font-size="13" font-weight="700" lengthAdjust="spacing" textLength="155.1494" x="363.5771" y="119.6606">View All Submissions</text><g class="message" data-entity-1="part1" data-entity-2="part2" data-source-line="7" id="msg1"><polygon fill="#181818" points="379.8799,153.8594,389.8799,157.8594,379.8799,161.8594,383.8799,157.8594" style="stroke:#181818;stroke-width:1;"/><line style="stroke:#181818;stroke-width:1;" x1="30.4321" x2="385.8799" y1="157.8594" y2="157.8594"/><text fill="#000000" font-family="sans-serif" font-size="13" lengthAdjust="spacing" textLength="197.3677" x="37.4321" y="152.7935">Navigate to Submissions page</text></g><g class="message" data-entity-1="part2" data-entity-2="part3" data-source-line="8" id="msg2"><polygon fill="#181818" points="597.3457,182.9922,607.3457,186.9922,597.3457,190.9922,601.3457,186.9922" style="stroke:#181818;stroke-width:1;"/><line style="stroke:#181818;stroke-width:1;" x1="391.8799" x2="603.3457" y1="186.9922" y2="186.9922"/><text fill="#000000" font-family="sans-serif" font-size="13" lengthAdjust="spacing" textLength="159.5166" x="398.8799" y="181.9263">GET /admin/submissions</text></g><g class="message" data-entity-1="part3" data-entity-2="part4" data-source-line="11" id="msg3"><polygon fill="#181818" points="830.4292,242.3906,840.4292,246.3906,830.4292,250.3906,834.4292,246.3906" style="stroke:#181818;stroke-width:1;"/><line style="stroke:#181818;stroke-width:1;" x1="619.3457" x2="836.4292" y1="246.3906" y2="246.3906"/><text fill="#000000" font-family="sans-serif" font-size="13" lengthAdjust="spacing" textLength="152.0581" x="626.3457" y="211.0591">SELECT all submissions</text><text fill="#000000" font-family="sans-serif" font-size="13" lengthAdjust="spacing" textLength="144.9868" x="626.3457" y="226.1919">JOIN users, challenges</text><text fill="#000000" font-family="sans-serif" font-size="13" lengthAdjust="spacing" textLength="181.4541" x="626.3457" y="241.3247">ORDER BY timestamp DESC</text></g><g class="message" data-entity-1="part4" data-entity-2="part3" data-source-line="13" id="msg4"><polygon fill="#181818" points="630.3457,271.5234,620.3457,275.5234,630.3457,279.5234,626.3457,275.5234" style="stroke:#181818;stroke-width:1;"/><line style="stroke:#181818;stroke-width:1;stroke-dasharray:2,2;" x1="624.3457" x2="846.4292" y1="275.5234" y2="275.5234"/><text fill="#000000" font-family="sans-serif" font-size="13" lengthAdjust="spacing" textLength="102.8892" x="636.3457" y="270.4575">submissions list</text></g><g class="message" data-entity-1="part3" data-entity-2="part2" data-source-line="16" id="msg5"><polygon fill="#181818" points="402.8799,300.6563,392.8799,304.6563,402.8799,308.6563,398.8799,304.6563" style="stroke:#181818;stroke-width:1;"/><line style="stroke:#181818;stroke-width:1;stroke-dasharray:2,2;" x1="396.8799" x2="613.3457" y1="304.6563" y2="304.6563"/><text fill="#000000" font-family="sans-serif" font-size="13" lengthAdjust="spacing" textLength="175.0557" x="408.8799" y="299.5903">200 OK (submissions data)</text></g><g class="message" data-entity-1="part2" data-entity-2="part2" data-source-line="19" id="msg6"><line style="stroke:#181818;stroke-width:1;" x1="391.8799" x2="433.8799" y1="333.7891" y2="333.7891"/><line style="stroke:#181818;stroke-width:1;" x1="433.8799" x2="433.8799" y1="333.7891" y2="346.7891"/><line style="stroke:#181818;stroke-width:1;" x1="392.8799" x2="433.8799" y1="346.7891" y2="346.7891"/><polygon fill="#181818" points="402.8799,342.7891,392.8799,346.7891,402.8799,350.7891,398.8799,346.7891" style="stroke:#181818;stroke-width:1;"/><text fill="#000000" font-family="sans-serif" font-size="13" lengthAdjust="spacing" textLength="167.7178" x="398.8799" y="328.7231">Render submissions table</text></g><g class="message" data-entity-1="part2" data-entity-2="part1" data-source-line="20" id="msg7"><polygon fill="#181818" points="41.4321,387.0547,31.4321,391.0547,41.4321,395.0547,37.4321,391.0547" style="stroke:#181818;stroke-width:1;"/><line style="stroke:#181818;stroke-width:1;stroke-dasharray:2,2;" x1="35.4321" x2="390.8799" y1="391.0547" y2="391.0547"/><text fill="#000000" font-family="sans-serif" font-size="13" lengthAdjust="spacing" textLength="151.0361" x="47.4321" y="370.856">Display all submissions</text><text fill="#000000" font-family="sans-serif" font-size="13" lengthAdjust="spacing" textLength="337.4478" x="47.4321" y="385.9888">(user, challenge, flag, correct/incorrect, timestamp)</text></g><rect fill="#EEEEEE" height="3" style="stroke:#EEEEEE;stroke-width:1;" width="888.8296" x="0" y="419.6211"/><line style="stroke:#000000;stroke-width:1;" x1="0" x2="888.8296" y1="419.6211" y2="419.6211"/><line style="stroke:#000000;stroke-width:1;" x1="0" x2="888.8296" y1="422.6211" y2="422.6211"/><rect fill="#EEEEEE" height="23.1328" style="stroke:#000000;stroke-width:2;" width="148.6021" x="370.1138" y="409.0547"/><text fill="#000000" font-family="sans-serif" font-size="13" font-weight="700" lengthAdjust="spacing" textLength="130.0762" x="376.1138" y="425.1216">Reset Scoreboard</text><g class="message" data-entity-1="part1" data-entity-2="part2" data-source-line="23" id="msg8"><polygon fill="#181818" points="379.8799,459.3203,389.8799,463.3203,379.8799,467.3203,383.8799,463.3203" style="stroke:#181818;stroke-width:1;"/><line style="stroke:#181818;stroke-width:1;" x1="30.4321" x2="385.8799" y1="463.3203" y2="463.3203"/><text fill="#000000" font-family="sans-serif" font-size="13" lengthAdjust="spacing" textLength="162.5635" x="37.4321" y="458.2544">Click "Reset Scoreboard"</text></g><g class="message" data-entity-1="part2" data-entity-2="part2" data-source-line="24" id="msg9"><line style="stroke:#181818;stroke-width:1;" x1="391.8799" x2="433.8799" y1="492.4531" y2="492.4531"/><line style="stroke:#181818;stroke-width:1;" x1="433.8799" x2="433.8799" y1="492.4531" y2="505.4531"/><line style="stroke:#181818;stroke-width:1;" x1="392.8799" x2="433.8799" y1="505.4531" y2="505.4531"/><polygon fill="#181818" points="402.8799,501.4531,392.8799,505.4531,402.8799,509.4531,398.8799,505.4531" style="stroke:#181818;stroke-width:1;"/><text fill="#000000" font-family="sans-serif" font-size="13" lengthAdjust="spacing" textLength="165.3945" x="398.8799" y="487.3872">Show confirmation dialog</text></g><g class="message" data-entity-1="part1" data-entity-2="part2" data-source-line="25" id="msg10"><polygon fill="#181818" points="379.8799,530.5859,389.8799,534.5859,379.8799,538.5859,383.8799,534.5859" style="stroke:#181818;stroke-width:1;"/><line style="stroke:#181818;stroke-width:1;" x1="30.4321" x2="385.8799" y1="534.5859" y2="534.5859"/><text fill="#000000" font-family="sans-serif" font-size="13" lengthAdjust="spacing" textLength="88.8101" x="37.4321" y="529.52">Confirm reset</text></g><g class="message" data-entity-1="part2" data-entity-2="part3" data-source-line="27" id="msg11"><polygon fill="#181818" points="597.3457,559.7188,607.3457,563.7188,597.3457,567.7188,601.3457,563.7188" style="stroke:#181818;stroke-width:1;"/><line style="stroke:#181818;stroke-width:1;" x1="391.8799" x2="603.3457" y1="563.7188" y2="563.7188"/><text fill="#000000" font-family="sans-serif" font-size="13" lengthAdjust="spacing" textLength="198.4658" x="398.8799" y="558.6528">POST /admin/scoreboard/reset</text></g><g class="message" data-entity-1="part3" data-entity-2="part4" data-source-line="30" id="msg12"><polygon fill="#181818" points="830.4292,588.8516,840.4292,592.8516,830.4292,596.8516,834.4292,592.8516" style="stroke:#181818;stroke-width:1;"/><line style="stroke:#181818;stroke-width:1;" x1="619.3457" x2="836.4292" y1="592.8516" y2="592.8516"/><text fill="#000000" font-family="sans-serif" font-size="13" lengthAdjust="spacing" textLength="152.9531" x="626.3457" y="587.7856">DELETE all submissions</text></g><g class="message" data-entity-1="part4" data-entity-2="part3" data-source-line="32" id="msg13"><polygon fill="#181818" points="630.3457,617.9844,620.3457,621.9844,630.3457,625.9844,626.3457,621.9844" style="stroke:#181818;stroke-width:1;"/><line style="stroke:#181818;stroke-width:1;stroke-dasharray:2,2;" x1="624.3457" x2="846.4292" y1="621.9844" y2="621.9844"/><text fill="#000000" font-family="sans-serif" font-size="13" lengthAdjust="spacing" textLength="49.207" x="636.3457" y="616.9185">deleted</text></g><g class="message" data-entity-1="part3" data-entity-2="part4" data-source-line="35" id="msg14"><polygon fill="#181818" points="830.4292,662.25,840.4292,666.25,830.4292,670.25,834.4292,666.25" style="stroke:#181818;stroke-width:1;"/><line style="stroke:#181818;stroke-width:1;" x1="619.3457" x2="836.4292" y1="666.25" y2="666.25"/><text fill="#000000" font-family="sans-serif" font-size="13" lengthAdjust="spacing" textLength="110.9951" x="626.3457" y="646.0513">UPDATE all users</text><text fill="#000000" font-family="sans-serif" font-size="13" lengthAdjust="spacing" textLength="204.0835" x="626.3457" y="661.1841">SET score = 0, solve_count = 0</text></g><g class="message" data-entity-1="part4" data-entity-2="part3" data-source-line="37" id="msg15"><polygon fill="#181818" points="630.3457,691.3828,620.3457,695.3828,630.3457,699.3828,626.3457,695.3828" style="stroke:#181818;stroke-width:1;"/><line style="stroke:#181818;stroke-width:1;stroke-dasharray:2,2;" x1="624.3457" x2="846.4292" y1="695.3828" y2="695.3828"/><text fill="#000000" font-family="sans-serif" font-size="13" lengthAdjust="spacing" textLength="93.3169" x="636.3457" y="690.3169">users updated</text></g><g class="message" data-entity-1="part3" data-entity-2="part2" data-source-line="40" id="msg16"><polygon fill="#181818" points="402.8799,720.5156,392.8799,724.5156,402.8799,728.5156,398.8799,724.5156" style="stroke:#181818;stroke-width:1;"/><line style="stroke:#181818;stroke-width:1;stroke-dasharray:2,2;" x1="396.8799" x2="613.3457" y1="724.5156" y2="724.5156"/><text fill="#000000" font-family="sans-serif" font-size="13" lengthAdjust="spacing" textLength="173.7861" x="408.8799" y="719.4497">200 OK (Scoreboard reset)</text></g><g class="message" data-entity-1="part2" data-entity-2="part1" data-source-line="43" id="msg17"><polygon fill="#181818" points="41.4321,764.7813,31.4321,768.7813,41.4321,772.7813,37.4321,768.7813" style="stroke:#181818;stroke-width:1;"/><line style="stroke:#181818;stroke-width:1;stroke-dasharray:2,2;" x1="35.4321" x2="390.8799" y1="768.7813" y2="768.7813"/><text fill="#000000" font-family="sans-serif" font-size="13" lengthAdjust="spacing" textLength="185.6499" x="47.4321" y="748.5825">"Scoreboard has been reset.</text><text fill="#000000" font-family="sans-serif" font-size="13" lengthAdjust="spacing" textLength="124.8013" x="47.4321" y="763.7153">All scores cleared."</text></g><path d="M35,781.7813 L35,836.7813 L255,836.7813 L255,791.7813 L245,781.7813 L35,781.7813" fill="#FEFFDD" style="stroke:#181818;stroke-width:0.5;"/><path d="M245,781.7813 L245,791.7813 L255,791.7813 L245,781.7813" fill="#FEFFDD" style="stroke:#181818;stroke-width:0.5;"/><text fill="#000000" font-family="sans-serif" font-size="13" lengthAdjust="spacing" textLength="195.5396" x="41" y="798.8481">Challenges and user accounts</text><text fill="#000000" font-family="sans-serif" font-size="13" lengthAdjust="spacing" textLength="173.2275" x="41" y="813.981">are preserved; only scores</text><text fill="#000000" font-family="sans-serif" font-size="13" lengthAdjust="spacing" textLength="199.8623" x="41" y="829.1138">and submissions are removed.</text><?plantuml-src TLHXRzem4FtkNt7A9v0ee7tin2H2mjIjAupGIPEGfYCvmAgn8zjGzT_lugGbKFWMsU-zktVl7CoziJ0kzbAB4gsNkInHUuZ24SnHarhfpjGQxKaNtGZGmJGznqxH-V7yOQLZp5yO5K1nAWhqk4P74Frwotu_hdJI70H04Win6i4VIQymLWgomteldPD6EnYDHDt0tJUk1lVmX4UvHK_WpHcmn2q9HZ0khd3VqoKCiA8Et0acCFVoMD6vAn47U18pF4iVqyaIaCktu2lzO_Rm10T7rlKWt_4rwItn-MoHf0k8_uANUt8UzoKaQJOvwRCf5hvxRwSb2aewBmfgGqChxnQ_38Sm-mcTDgUQOBTDglglxGREWgTDzgmCJrZL8s5GFSHxIAGh5RvzDjgfJBOyzc2ZSCi7nbhA_K3gvgjtijmDkIt8aOUChsbjq1QVCviecRz0T0cCsWQodNdbOdeZxHuzzmI5H6Msbr8r0cob9Tg1psVPAV6F6eCQU2lsX6DVffVJk9bYGOey5TV2QmIVvycu4GnRiz8PBsBe1qOmx84pwaZ_SdFWzy87Dqi5DXnA3lvwmSjjQGKGF5_TbjOcH2t2Zb_XcaZNpFvALyymDEqWLuIMYduaX3OiPULsvy5icdy5mEJZMG3g8ZGEc0U7Zg-P36MbQuzKV0MZrLiZNLqoeRsp5TZItZ2qBtYbeIhv7m00?></g></svg>