<svg xmlns="http://www.w3.org/2000/svg" xmlns:xlink="http://www.w3.org/1999/xlink" contentStyleType="text/css" data-diagram-type="STATE" height="322px" preserveAspectRatio="none" style="width:236px;height:322px;background:#FFFFFF;" version="1.1" viewBox="0 0 236 322" width="236px" zoomAndPan="magnify"><?plantuml 1.2026.3beta6?><defs/><g><g class="entity" data-qualified-name="Closed" id="ent0002"><rect fill="#F1F1F1" height="64.2344" rx="12.5" ry="12.5" style="stroke:#181818;stroke-width:0.5;" width="145.5547" x="41.27" y="103"/><line style="stroke:#181818;stroke-width:0.5;" x1="41.27" x2="186.8247" y1="129.2969" y2="129.2969"/><text fill="#000000" font-family="sans-serif" font-size="14" lengthAdjust="spacing" textLength="47.0244" x="90.5351" y="120.9951">Closed</text><text fill="#000000" font-family="sans-serif" font-size="12" lengthAdjust="spacing" textLength="125.5547" x="46.27" y="145.4355">Submissions blocked</text><text fill="#000000" font-family="sans-serif" font-size="12" lengthAdjust="spacing" textLength="110.3379" x="46.27" y="159.4043">Scoreboard frozen</text></g><g class="entity" data-qualified-name="Running" id="ent0003"><rect fill="#F1F1F1" height="64.2344" rx="12.5" ry="12.5" style="stroke:#181818;stroke-width:0.5;" width="214.0977" x="7" y="244.24"/><line style="stroke:#181818;stroke-width:0.5;" x1="7" x2="221.0977" y1="270.5369" y2="270.5369"/><text fill="#000000" font-family="sans-serif" font-size="14" lengthAdjust="spacing" textLength="57.9961" x="85.0508" y="262.2351">Running</text><text fill="#000000" font-family="sans-serif" font-size="12" lengthAdjust="spacing" textLength="146.5781" x="12" y="286.6755">Players can submit flags</text><text fill="#000000" font-family="sans-serif" font-size="12" lengthAdjust="spacing" textLength="194.0977" x="12" y="300.6443">Scoreboard updates in real-time</text></g><g class="start_entity" data-qualified-name=".start." data-source-line="4" id="ent0002"><ellipse cx="114.05" cy="16" fill="#222222" rx="10" ry="10" style="stroke:#222222;stroke-width:1;"/></g><!--link *start* to Closed--><g class="link" data-entity-1="ent0002" data-entity-2="ent0002" data-link-type="dependency" data-source-line="4" id="lnk3"><path d="M114.05,26.19 C114.05,42.42 114.05,70.87 114.05,96.51" fill="none" id="*start*-to-Closed" style="stroke:#181818;stroke-width:1;"/><polygon fill="#181818" points="114.05,102.51,118.05,93.51,114.05,97.51,110.05,93.51,114.05,102.51" style="stroke:#181818;stroke-width:1;"/><text fill="#000000" font-family="sans-serif" font-size="13" lengthAdjust="spacing" textLength="72.814" x="115.05" y="69.0669">initial state</text></g><!--link Closed to Running--><g class="link" data-entity-1="ent0002" data-entity-2="ent0003" data-link-type="dependency" data-source-line="6" id="lnk4"><path d="M72.73,167.57 C64.33,176.18 56.66,186.22 52.05,197.24 C44.96,214.17 50.1105,226.2544 63.5705,239.5444" fill="none" id="Closed-to-Running" style="stroke:#181818;stroke-width:1;"/><polygon fill="#181818" points="67.84,243.76,64.2461,234.5903,64.2821,240.247,58.6253,240.283,67.84,243.76" style="stroke:#181818;stroke-width:1;"/><text fill="#000000" font-family="sans-serif" font-size="13" lengthAdjust="spacing" textLength="77.6636" x="53.05" y="210.3069">startEvent()</text></g><!--link Running to Closed--><g class="link" data-entity-1="ent0003" data-entity-2="ent0002" data-link-type="dependency" data-source-line="7" id="lnk5"><path d="M128.83,244.11 C133.88,229.94 137.66,212.89 135.05,197.24 C133.4,187.39 132.3335,182.6662 129.0735,173.3062" fill="none" id="Running-to-Closed" style="stroke:#181818;stroke-width:1;"/><polygon fill="#181818" points="127.1,167.64,126.2828,177.4549,128.7446,172.3618,133.8376,174.8236,127.1,167.64" style="stroke:#181818;stroke-width:1;"/><text fill="#000000" font-family="sans-serif" font-size="13" lengthAdjust="spacing" textLength="75.4609" x="136.05" y="210.3069">stopEvent()</text></g><?plantuml-src LOwn3i8m34HtVuN514Zz0GOMn8xe20nfurOHgLF5BX9yFMcRWhgTxkwTBMgKS7FoGSXkq0ZE4cGEhWEputPAiWQuxHzO5CTSnGCwTkgCnma2oFvOoKpgf2pg-KMisnqizcf5DFHB0VxWnPitHS7QCCfGTKwnyQQLEvTrY5G54oqElKsd9Ns2aOmlr7K4l-Lon4HSOC7AX_f9TaKtCNo8lm00?></g></svg>