<svg xmlns="http://www.w3.org/2000/svg" xmlns:xlink="http://www.w3.org/1999/xlink" contentStyleType="text/css" data-diagram-type="STATE" height="423px" preserveAspectRatio="none" style="width:514px;height:423px;background:#FFFFFF;" version="1.1" viewBox="0 0 514 423" width="514px" zoomAndPan="magnify"><?plantuml 1.2026.3beta6?><defs/><g><g class="entity" data-qualified-name="Unsolved" id="ent0002"><rect fill="#F1F1F1" height="50" rx="12.5" ry="12.5" style="stroke:#181818;stroke-width:0.5;" width="84.6543" x="7" y="103"/><line style="stroke:#181818;stroke-width:0.5;" x1="7" x2="91.6543" y1="129.2969" y2="129.2969"/><text fill="#000000" font-family="sans-serif" font-size="14" lengthAdjust="spacing" textLength="64.6543" x="17" y="120.9951">Unsolved</text></g><g class="entity" data-qualified-name="Attempted" id="ent0003"><rect fill="#F1F1F1" height="52.5938" rx="12.5" ry="12.5" style="stroke:#181818;stroke-width:0.5;" width="94.6826" x="200.99" y="230"/><line style="stroke:#181818;stroke-width:0.5;" x1="200.99" x2="295.6726" y1="272.5938" y2="272.5938"/><text fill="#000000" font-family="sans-serif" font-size="14" lengthAdjust="spacing" textLength="74.6826" x="210.99" y="247.9951">Attempted</text><text fill="#000000" font-family="sans-serif" font-size="14" lengthAdjust="spacing" textLength="73.2607" x="210.99" y="264.292">(incorrect)</text></g><g class="entity" data-qualified-name="Solved" id="ent0004"><rect fill="#F1F1F1" height="50" rx="12.5" ry="12.5" style="stroke:#181818;stroke-width:0.5;" width="67.127" x="15.76" y="359.59"/><line style="stroke:#181818;stroke-width:0.5;" x1="15.76" x2="82.887" y1="385.8869" y2="385.8869"/><text fill="#000000" font-family="sans-serif" font-size="14" lengthAdjust="spacing" textLength="47.127" x="25.76" y="377.5851">Solved</text></g><g class="start_entity" data-qualified-name=".start." data-source-line="5" id="ent0002"><ellipse cx="49.33" cy="16" fill="#222222" rx="10" ry="10" style="stroke:#222222;stroke-width:1;"/></g><g class="entity" data-qualified-name="GMN2" data-source-line="14" id="ent0003"><path d="M118.21,364.46 L118.21,380.59 L83.37,384.59 L118.21,388.59 L118.21,404.7256 A0,0 0 0 0 118.21,404.7256 L312.4375,404.7256 A0,0 0 0 0 312.4375,404.7256 L312.4375,374.46 L302.4375,364.46 L118.21,364.46 A0,0 0 0 0 118.21,364.46" fill="#FEFFDD" style="stroke:#181818;stroke-width:0.5;"/><path d="M302.4375,364.46 L302.4375,374.46 L312.4375,374.46 L302.4375,364.46" fill="#FEFFDD" style="stroke:#181818;stroke-width:0.5;"/><text fill="#000000" font-family="sans-serif" font-size="13" lengthAdjust="spacing" textLength="153.4609" x="124.21" y="381.5269">Once solved, no further</text><text fill="#000000" font-family="sans-serif" font-size="13" lengthAdjust="spacing" textLength="173.2275" x="124.21" y="396.6597">submissions are accepted.</text></g><!--link *start* to Unsolved--><g class="link" data-entity-1="ent0002" data-entity-2="ent0002" data-link-type="dependency" data-source-line="5" id="lnk3"><path d="M49.33,26.37 C49.33,43.1 49.33,72.59 49.33,96.62" fill="none" id="*start*-to-Unsolved" style="stroke:#181818;stroke-width:1;"/><polygon fill="#181818" points="49.33,102.62,53.33,93.62,49.33,97.62,45.33,93.62,49.33,102.62" style="stroke:#181818;stroke-width:1;"/><text fill="#000000" font-family="sans-serif" font-size="13" lengthAdjust="spacing" textLength="115.8892" x="50.33" y="69.0669">challenge opened</text></g><!--link Unsolved to Solved--><g class="link" data-entity-1="ent0002" data-entity-2="ent0004" data-link-type="dependency" data-source-line="7" id="lnk4"><path d="M45.61,153.41 C42.69,173.83 38.88,203.73 37.33,230 C35.95,253.33 35.95,259.26 37.33,282.59 C38.88,308.85 41.8402,332.8205 44.7602,353.2305" fill="none" id="Unsolved-to-Solved" style="stroke:#181818;stroke-width:1;"/><polygon fill="#181818" points="45.61,359.17,48.2951,349.6942,44.9019,354.2204,40.3757,350.8272,45.61,359.17" style="stroke:#181818;stroke-width:1;"/><text fill="#000000" font-family="sans-serif" font-size="13" lengthAdjust="spacing" textLength="144.6885" x="38.33" y="260.8569">correct flag submitted</text></g><!--link Unsolved to Attempted--><g class="link" data-entity-1="ent0002" data-entity-2="ent0003" data-link-type="dependency" data-source-line="8" id="lnk5"><path d="M87.7,153.35 C122.14,175.21 167.4844,203.9844 202.6144,226.2844" fill="none" id="Unsolved-to-Attempted" style="stroke:#181818;stroke-width:1;"/><polygon fill="#181818" points="207.68,229.5,202.2253,221.2996,203.4587,226.8204,197.9379,228.0537,207.68,229.5" style="stroke:#181818;stroke-width:1;"/><text fill="#000000" font-family="sans-serif" font-size="13" lengthAdjust="spacing" textLength="156.5396" x="161.33" y="196.0669">incorrect flag submitted</text></g><!--link Attempted to Attempted--><g class="link" data-entity-1="ent0003" data-entity-2="ent0003" data-link-type="dependency" data-source-line="10" id="lnk6"><path d="M296.12,244.2 C314.95,243.59 330.67,247.62 330.67,256.29 C330.67,264.96 320.9469,269.1843 302.1169,268.5743" fill="none" id="Attempted-to-Attempted" style="stroke:#181818;stroke-width:1;"/><polygon fill="#181818" points="296.12,268.38,304.9858,272.6693,301.1174,268.5419,305.2448,264.6735,296.12,268.38" style="stroke:#181818;stroke-width:1;"/><text fill="#000000" font-family="sans-serif" font-size="13" lengthAdjust="spacing" textLength="156.5396" x="336.67" y="260.8569">incorrect flag submitted</text></g><!--link Attempted to Solved--><g class="link" data-entity-1="ent0003" data-entity-2="ent0004" data-link-type="dependency" data-source-line="11" id="lnk7"><path d="M208.06,282.85 C171.37,306.13 122.8657,336.9146 88.3157,358.8446" fill="none" id="Attempted-to-Solved" style="stroke:#181818;stroke-width:1;"/><polygon fill="#181818" points="83.25,362.06,92.9921,360.6141,87.4714,359.3805,88.705,353.8598,83.25,362.06" style="stroke:#181818;stroke-width:1;"/><text fill="#000000" font-family="sans-serif" font-size="13" lengthAdjust="spacing" textLength="144.6885" x="161.33" y="325.6569">correct flag submitted</text></g><?plantuml-src ZOyx3i8m44Hxds941OXm00eaJa0HKG65SJOVALb7zeRp4yUAez10PslUVDQB5iBcnjwsRoesq1xpH_aeNaIewuMA1syRDjOvChARq2JDRBx4nATIz_qJMNPEiJZ1rBfjYIk2xOa3bCH0vecBNIXRNS4FhwwHqBM2quIHJ-k-7MgX_lQiBRysARRZ_QwfQe4jv-E1Anj2d7i0MvI3avhSg4nUxnlB7jeHj34KwewAk428-m00?></g></svg>