<svg xmlns="http://www.w3.org/2000/svg" xmlns:xlink="http://www.w3.org/1999/xlink" contentStyleType="text/css" data-diagram-type="DESCRIPTION" height="1556px" preserveAspectRatio="none" style="width:836px;height:1556px;background:#FFFFFF;" version="1.1" viewBox="0 0 836 1556" width="836px" zoomAndPan="magnify"><?plantuml 1.2026.3beta6?><defs/><g><!--cluster CordonCTF System--><g class="cluster" data-qualified-name="CordonCTF System" data-source-line="12" id="ent0007"><rect fill="none" height="1424" rx="2.5" ry="2.5" style="stroke:#181818;stroke-width:1;" width="622.08" x="199.98" y="61.56"/><text fill="#000000" font-family="sans-serif" font-size="14" font-weight="700" lengthAdjust="spacing" textLength="148.9824" x="436.5288" y="76.5551">CordonCTF System</text></g><!--cluster Public Access--><g class="cluster" data-qualified-name="CordonCTF System.Public Access" data-source-line="14" id="ent0008"><rect fill="none" height="443" rx="2.5" ry="2.5" style="stroke:#181818;stroke-width:1;" width="256.02" x="225.57" y="1018.56"/><text fill="#000000" font-family="sans-serif" font-size="14" font-weight="700" lengthAdjust="spacing" textLength="106.6133" x="300.2734" y="1033.5551">Public Access</text></g><!--cluster Player Portal--><g class="cluster" data-qualified-name="CordonCTF System.Player Portal" data-source-line="24" id="ent0015"><rect fill="none" height="401" rx="2.5" ry="2.5" style="stroke:#181818;stroke-width:1;" width="574.08" x="223.98" y="104.56"/><text fill="#000000" font-family="sans-serif" font-size="14" font-weight="700" lengthAdjust="spacing" textLength="102.6279" x="459.706" y="119.5551">Player Portal</text></g><!--cluster Admin Panel--><g class="cluster" data-qualified-name="CordonCTF System.Admin Panel" data-source-line="34" id="ent0022"><rect fill="none" height="465" rx="2.5" ry="2.5" style="stroke:#181818;stroke-width:1;" width="247.72" x="229.72" y="529.56"/><text fill="#000000" font-family="sans-serif" font-size="14" font-weight="700" lengthAdjust="spacing" textLength="99.0527" x="304.0536" y="544.5551">Admin Panel</text></g><!--entity UC1--><g class="entity" data-qualified-name="CordonCTF System.Public Access.UC1" data-source-line="15" id="ent0009"><ellipse cx="353.5776" cy="1136.5555" fill="#F1F1F1" rx="80.8776" ry="18.5755" style="stroke:#181818;stroke-width:0.5;"/><text fill="#000000" font-family="sans-serif" font-size="14" lengthAdjust="spacing" textLength="132.7402" x="287.2075" y="1141.204">View Landing Page</text></g><!--entity UC2--><g class="entity" data-qualified-name="CordonCTF System.Public Access.UC2" data-source-line="16" id="ent0010"><ellipse cx="353.5802" cy="1214.562" fill="#F1F1F1" rx="112.0102" ry="24.802" style="stroke:#181818;stroke-width:0.5;"/><text fill="#000000" font-family="sans-serif" font-size="14" lengthAdjust="spacing" textLength="202.2207" x="252.4699" y="1219.2105">View Scoreboard &amp; Rankings</text></g><!--entity UC3--><g class="entity" data-qualified-name="CordonCTF System.Public Access.UC3" data-source-line="17" id="ent0011"><ellipse cx="353.579" cy="1292.5618" fill="#F1F1F1" rx="78.509" ry="18.1018" style="stroke:#181818;stroke-width:0.5;"/><text fill="#000000" font-family="sans-serif" font-size="14" lengthAdjust="spacing" textLength="127.1484" x="290.0048" y="1297.2102">View Event Status</text></g><!--entity UC4--><g class="entity" data-qualified-name="CordonCTF System.Public Access.UC4" data-source-line="18" id="ent0012"><ellipse cx="353.5754" cy="1363.5631" fill="#F1F1F1" rx="75.3154" ry="17.4631" style="stroke:#181818;stroke-width:0.5;"/><text fill="#000000" font-family="sans-serif" font-size="14" lengthAdjust="spacing" textLength="119.4922" x="293.8293" y="1368.2115">Register Account</text></g><!--entity UC5--><g class="entity" data-qualified-name="CordonCTF System.Public Access.UC5" data-source-line="19" id="ent0013"><ellipse cx="353.5804" cy="1430.5636" fill="#F1F1F1" rx="29.8804" ry="14.5236" style="stroke:#181818;stroke-width:0.5;"/><text fill="#000000" font-family="sans-serif" font-size="14" lengthAdjust="spacing" textLength="38.0146" x="334.5731" y="1435.2121">Login</text></g><!--entity UC6--><g class="entity" data-qualified-name="CordonCTF System.Public Access.UC6" data-source-line="20" id="ent0014"><ellipse cx="353.5782" cy="1068.5636" fill="#F1F1F1" rx="37.0682" ry="14.5236" style="stroke:#181818;stroke-width:0.5;"/><text fill="#000000" font-family="sans-serif" font-size="14" lengthAdjust="spacing" textLength="48.1797" x="329.4883" y="1073.2121">Logout</text></g><!--entity UC7--><g class="entity" data-qualified-name="CordonCTF System.Player Portal.UC7" data-source-line="25" id="ent0016"><ellipse cx="353.5772" cy="164.5594" fill="#F1F1F1" rx="113.5972" ry="25.1194" style="stroke:#181818;stroke-width:0.5;"/><text fill="#000000" font-family="sans-serif" font-size="14" lengthAdjust="spacing" textLength="205.6387" x="250.7579" y="169.2079">Browse Challenge Categories</text></g><!--entity UC8--><g class="entity" data-qualified-name="CordonCTF System.Player Portal.UC8" data-source-line="26" id="ent0017"><ellipse cx="353.5846" cy="245.5609" fill="#F1F1F1" rx="93.2046" ry="21.0409" style="stroke:#181818;stroke-width:0.5;"/><text fill="#000000" font-family="sans-serif" font-size="14" lengthAdjust="spacing" textLength="160.959" x="273.1051" y="250.2094">View Challenge Details</text></g><!--entity UC9--><g class="entity" data-qualified-name="CordonCTF System.Player Portal.UC9" data-source-line="27" id="ent0018"><ellipse cx="353.5838" cy="324.5588" fill="#F1F1F1" rx="101.8938" ry="22.7788" style="stroke:#181818;stroke-width:0.5;"/><text fill="#000000" font-family="sans-serif" font-size="14" lengthAdjust="spacing" textLength="180.2227" x="263.4724" y="329.2072">Download Challenge Files</text></g><!--entity UC10--><g class="entity" data-qualified-name="CordonCTF System.Player Portal.UC10" data-source-line="28" id="ent0019"><ellipse cx="353.5828" cy="396.5586" fill="#F1F1F1" rx="61.3428" ry="14.6686" style="stroke:#181818;stroke-width:0.5;"/><text fill="#000000" font-family="sans-serif" font-size="14" lengthAdjust="spacing" textLength="83.5215" x="311.8221" y="401.207">Submit Flag</text></g><!--entity UC11--><g class="entity" data-qualified-name="CordonCTF System.Player Portal.UC11" data-source-line="29" id="ent0020"><ellipse cx="697.2127" cy="218.5585" fill="#F1F1F1" rx="84.8427" ry="19.3685" style="stroke:#181818;stroke-width:0.5;"/><text fill="#000000" font-family="sans-serif" font-size="14" lengthAdjust="spacing" textLength="141.9619" x="626.2317" y="223.207">View Personal Score</text></g><!--entity UC12--><g class="entity" data-qualified-name="CordonCTF System.Player Portal.UC12" data-source-line="30" id="ent0021"><ellipse cx="353.5797" cy="467.5579" fill="#F1F1F1" rx="95.8397" ry="21.5679" style="stroke:#181818;stroke-width:0.5;"/><text fill="#000000" font-family="sans-serif" font-size="14" lengthAdjust="spacing" textLength="166.8447" x="270.1574" y="472.2064">View Solved Challenges</text></g><!--entity UC13--><g class="entity" data-qualified-name="CordonCTF System.Admin Panel.UC13" data-source-line="35" id="ent0023"><ellipse cx="353.5842" cy="810.5628" fill="#F1F1F1" rx="107.8642" ry="23.9728" style="stroke:#181818;stroke-width:0.5;"/><text fill="#000000" font-family="sans-serif" font-size="14" lengthAdjust="spacing" textLength="193.252" x="256.9582" y="815.2113">Manage Challenges (CRUD)</text></g><!--entity UC14--><g class="entity" data-qualified-name="CordonCTF System.Admin Panel.UC14" data-source-line="36" id="ent0024"><ellipse cx="353.5779" cy="890.5576" fill="#F1F1F1" rx="92.6379" ry="20.9276" style="stroke:#181818;stroke-width:0.5;"/><text fill="#000000" font-family="sans-serif" font-size="14" lengthAdjust="spacing" textLength="159.6875" x="273.7341" y="895.206">Upload Challenge Files</text></g><!--entity UC15--><g class="entity" data-qualified-name="CordonCTF System.Admin Panel.UC15" data-source-line="37" id="ent0025"><ellipse cx="353.5829" cy="962.5626" fill="#F1F1F1" rx="67.2129" ry="15.8426" style="stroke:#181818;stroke-width:0.5;"/><text fill="#000000" font-family="sans-serif" font-size="14" lengthAdjust="spacing" textLength="99.2646" x="303.9506" y="967.211">Manage Users</text></g><!--entity UC16--><g class="entity" data-qualified-name="CordonCTF System.Admin Panel.UC16" data-source-line="38" id="ent0026"><ellipse cx="353.581" cy="585.5642" fill="#F1F1F1" rx="90.571" ry="20.5142" style="stroke:#181818;stroke-width:0.5;"/><text fill="#000000" font-family="sans-serif" font-size="14" lengthAdjust="spacing" textLength="155.0322" x="276.0649" y="590.2126">Start / Stop CTF Event</text></g><!--entity UC17--><g class="entity" data-qualified-name="CordonCTF System.Admin Panel.UC17" data-source-line="39" id="ent0027"><ellipse cx="353.5815" cy="660.5623" fill="#F1F1F1" rx="87.1115" ry="19.8223" style="stroke:#181818;stroke-width:0.5;"/><text fill="#000000" font-family="sans-serif" font-size="14" lengthAdjust="spacing" textLength="147.1709" x="279.996" y="665.2107">View All Submissions</text></g><!--entity UC18--><g class="entity" data-qualified-name="CordonCTF System.Admin Panel.UC18" data-source-line="40" id="ent0028"><ellipse cx="353.5773" cy="733.5595" fill="#F1F1F1" rx="77.3473" ry="17.8695" style="stroke:#181818;stroke-width:0.5;"/><text fill="#000000" font-family="sans-serif" font-size="14" lengthAdjust="spacing" textLength="124.3799" x="291.3873" y="738.2079">Reset Scoreboard</text></g><!--entity Guest--><g class="entity" data-qualified-name="Guest" data-source-line="4" id="ent0002"><ellipse cx="26.5591" cy="1149.91" fill="#F1F1F1" rx="8" ry="8" style="stroke:#181818;stroke-width:0.5;"/><path d="M26.5591,1157.91 L26.5591,1184.91 M13.5591,1165.91 L39.5591,1165.91 M26.5591,1184.91 L13.5591,1199.91 M26.5591,1184.91 L39.5591,1199.91" fill="none" style="stroke:#181818;stroke-width:0.5;"/><text fill="#000000" font-family="sans-serif" font-size="14" lengthAdjust="spacing" textLength="41.1182" x="6" y="1214.4051">Guest</text></g><!--entity Player--><g class="entity" data-qualified-name="Player" data-source-line="5" id="ent0003"><ellipse cx="130.5527" cy="330.91" fill="#F1F1F1" rx="8" ry="8" style="stroke:#181818;stroke-width:0.5;"/><path d="M130.5527,338.91 L130.5527,365.91 M117.5527,346.91 L143.5527,346.91 M130.5527,365.91 L117.5527,380.91 M130.5527,365.91 L143.5527,380.91" fill="none" style="stroke:#181818;stroke-width:0.5;"/><text fill="#000000" font-family="sans-serif" font-size="14" lengthAdjust="spacing" textLength="43.5654" x="108.77" y="395.4051">Player</text></g><!--entity Admin--><g class="entity" data-qualified-name="Admin" data-source-line="6" id="ent0004"><ellipse cx="130.5521" cy="829.91" fill="#F1F1F1" rx="8" ry="8" style="stroke:#181818;stroke-width:0.5;"/><path d="M130.5521,837.91 L130.5521,864.91 M117.5521,845.91 L143.5521,845.91 M130.5521,864.91 L117.5521,879.91 M130.5521,864.91 L143.5521,879.91" fill="none" style="stroke:#181818;stroke-width:0.5;"/><text fill="#000000" font-family="sans-serif" font-size="14" lengthAdjust="spacing" textLength="44.8643" x="108.12" y="894.4051">Admin</text></g><g class="entity" data-qualified-name="GMN50" data-source-line="75" id="ent0051"><path d="M592.59,1501.42 L592.59,1541.6856 L801.8361,1541.6856 L801.8361,1511.42 L791.8361,1501.42 L592.59,1501.42" fill="#FEFFDD" style="stroke:#181818;stroke-width:0.5;"/><path d="M791.8361,1501.42 L791.8361,1511.42 L801.8361,1511.42 L791.8361,1501.42" fill="#FEFFDD" style="stroke:#181818;stroke-width:1;"/><text fill="#000000" font-family="sans-serif" font-size="13" lengthAdjust="spacing" textLength="152.1533" x="598.59" y="1518.4869">Flag validation updates</text><text fill="#000000" font-family="sans-serif" font-size="13" lengthAdjust="spacing" textLength="188.2461" x="598.59" y="1533.6197">personal score automatically</text></g><!--reverse link Guest to Player--><g class="link" data-entity-1="ent0002" data-entity-2="ent0003" data-link-type="extension" data-source-line="9" id="lnk5"><path d="M34.5643,1123.288 C51.6943,985.728 107.66,536.31 124.78,398.88" fill="none" id="Guest-backto-Player" style="stroke:#181818;stroke-width:1;"/><polygon fill="none" points="32.34,1141.15,40.5183,1124.0294,28.6103,1122.5465,32.34,1141.15" style="stroke:#181818;stroke-width:1;"/></g><!--reverse link Guest to Admin--><g class="link" data-entity-1="ent0002" data-entity-2="ent0004" data-link-type="extension" data-source-line="10" id="lnk6"><path d="M45.3272,1123.8104 C64.9872,1062.1404 97.78,959.24 117.36,897.8" fill="none" id="Guest-backto-Admin" style="stroke:#181818;stroke-width:1;"/><polygon fill="none" points="39.86,1140.96,51.0437,1125.6328,39.6106,1121.988,39.86,1140.96" style="stroke:#181818;stroke-width:1;"/></g><!--link Guest to UC1--><g class="link" data-entity-1="ent0002" data-entity-2="ent0009" data-link-type="dependency" data-source-line="45" id="lnk29"><path d="M47.59,1172.53 C56.53,1169.65 67.25,1166.53 77.12,1164.56 C142.87,1151.39 212.7737,1144.6659 268.2237,1140.9059" fill="none" id="Guest-to-UC1" style="stroke:#181818;stroke-width:1;"/><polygon fill="#181818" points="274.21,1140.5,264.96,1137.118,269.2215,1140.8383,265.5012,1145.0997,274.21,1140.5" style="stroke:#181818;stroke-width:1;"/></g><!--link Guest to UC2--><g class="link" data-entity-1="ent0002" data-entity-2="ent0010" data-link-type="dependency" data-source-line="46" id="lnk30"><path d="M47.4,1181.69 C87.23,1185.98 173.3645,1195.2572 246.0345,1203.0872" fill="none" id="Guest-to-UC2" style="stroke:#181818;stroke-width:1;"/><polygon fill="#181818" points="252,1203.73,243.4803,1198.7889,247.0288,1203.1944,242.6233,1206.7428,252,1203.73" style="stroke:#181818;stroke-width:1;"/></g><!--link Guest to UC3--><g class="link" data-entity-1="ent0002" data-entity-2="ent0011" data-link-type="dependency" data-source-line="47" id="lnk31"><path d="M47.47,1190.63 C77.82,1207.09 137.85,1238.06 191.98,1256.56 C223.48,1267.32 253.6863,1274.5644 283.6663,1280.5544" fill="none" id="Guest-to-UC3" style="stroke:#181818;stroke-width:1;"/><polygon fill="#181818" points="289.55,1281.73,281.5081,1276.0442,284.6469,1280.7504,279.9407,1283.8891,289.55,1281.73" style="stroke:#181818;stroke-width:1;"/></g><!--link Guest to UC4--><g class="link" data-entity-1="ent0002" data-entity-2="ent0012" data-link-type="dependency" data-source-line="48" id="lnk32"><path d="M47.55,1204.45 C75.96,1238.07 131.36,1297.35 191.98,1328.56 C220.27,1343.12 248.4634,1350.6432 277.9634,1355.6132" fill="none" id="Guest-to-UC4" style="stroke:#181818;stroke-width:1;"/><polygon fill="#181818" points="283.88,1356.61,275.6696,1351.1704,278.9495,1355.7793,274.3405,1359.0592,283.88,1356.61" style="stroke:#181818;stroke-width:1;"/></g><!--link Guest to UC5--><g class="link" data-entity-1="ent0002" data-entity-2="ent0013" data-link-type="dependency" data-source-line="49" id="lnk33"><path d="M43.74,1217.78 C67.73,1269.09 118.02,1358.41 191.98,1398.56 C233.83,1421.28 283.6797,1427.6196 317.2897,1429.5296" fill="none" id="Guest-to-UC5" style="stroke:#181818;stroke-width:1;"/><polygon fill="#181818" points="323.28,1429.87,314.5214,1425.3658,318.2881,1429.5863,314.0676,1433.3529,323.28,1429.87" style="stroke:#181818;stroke-width:1;"/></g><!--link Guest to UC6--><g class="link" data-entity-1="ent0002" data-entity-2="ent0014" data-link-type="dependency" data-source-line="50" id="lnk34"><path d="M47.52,1160.15 C56.1,1152.6 66.57,1144.4 77.12,1138.56 C155.91,1094.96 256.398,1078.6246 311.018,1072.4446" fill="none" id="Guest-to-UC6" style="stroke:#181818;stroke-width:1;"/><polygon fill="#181818" points="316.98,1071.77,307.5873,1068.8072,312.0117,1072.3321,308.4868,1076.7565,316.98,1071.77" style="stroke:#181818;stroke-width:1;"/></g><!--link Player to UC7--><g class="link" data-entity-1="ent0003" data-entity-2="ent0016" data-link-type="dependency" data-source-line="53" id="lnk35"><path d="M136.68,322.04 C143.37,286.99 158.49,236.31 191.98,206.56 C208.57,191.82 223.9546,183.8458 245.4046,177.5258" fill="none" id="Player-to-UC7" style="stroke:#181818;stroke-width:1;"/><polygon fill="#181818" points="251.16,175.83,241.3964,174.5367,246.3638,177.2431,243.6574,182.2106,251.16,175.83" style="stroke:#181818;stroke-width:1;"/></g><!--link Player to UC8--><g class="link" data-entity-1="ent0003" data-entity-2="ent0017" data-link-type="dependency" data-source-line="54" id="lnk36"><path d="M152.58,324.73 C162.76,310.26 176.22,294.63 191.98,284.56 C215.07,269.8 237.4161,261.9009 263.7161,256.2009" fill="none" id="Player-to-UC8" style="stroke:#181818;stroke-width:1;"/><polygon fill="#181818" points="269.58,254.93,259.937,252.9271,264.6934,255.9891,261.6315,260.7456,269.58,254.93" style="stroke:#181818;stroke-width:1;"/></g><!--link Player to UC9--><g class="link" data-entity-1="ent0003" data-entity-2="ent0018" data-link-type="dependency" data-source-line="55" id="lnk37"><path d="M152.74,357.11 C179.7,352.71 221.9179,345.8337 264.1979,338.9537" fill="none" id="Player-to-UC9" style="stroke:#181818;stroke-width:1;"/><polygon fill="#181818" points="270.12,337.99,260.5944,335.4874,265.1849,338.7931,261.8793,343.3836,270.12,337.99" style="stroke:#181818;stroke-width:1;"/></g><!--link Player to UC10--><g class="link" data-entity-1="ent0003" data-entity-2="ent0019" data-link-type="dependency" data-source-line="56" id="lnk38"><path d="M152.74,364.01 C186.89,369.57 249.0878,379.7066 296.2378,387.3766" fill="none" id="Player-to-UC10" style="stroke:#181818;stroke-width:1;"/><polygon fill="#181818" points="302.16,388.34,293.919,382.9468,297.2249,387.5372,292.6345,390.843,302.16,388.34" style="stroke:#181818;stroke-width:1;"/></g><!--link Player to UC11--><g class="link" data-entity-1="ent0003" data-entity-2="ent0020" data-link-type="dependency" data-source-line="57" id="lnk39"><path d="M135.59,322.21 C142.91,261.1 160.58,146.01 191.98,121.56 C340.4,6 581.663,143.5699 663.673,196.6499" fill="none" id="Player-to-UC11" style="stroke:#181818;stroke-width:1;"/><polygon fill="#181818" points="668.71,199.91,663.3279,191.6618,664.5125,197.1932,658.9811,198.3778,668.71,199.91" style="stroke:#181818;stroke-width:1;"/></g><!--link Player to UC12--><g class="link" data-entity-1="ent0003" data-entity-2="ent0021" data-link-type="dependency" data-source-line="58" id="lnk40"><path d="M152.74,391.9 C163.12,405.04 176.69,419.36 191.98,428.56 C215.1,442.45 237.0329,450.0984 262.9529,455.8584" fill="none" id="Player-to-UC12" style="stroke:#181818;stroke-width:1;"/><polygon fill="#181818" points="268.81,457.16,260.892,451.3029,263.9291,456.0753,259.1566,459.1124,268.81,457.16" style="stroke:#181818;stroke-width:1;"/></g><!--link Admin to UC13--><g class="link" data-entity-1="ent0004" data-entity-2="ent0023" data-link-type="dependency" data-source-line="61" id="lnk41"><path d="M153.15,854.77 C181.5,848.48 226.9124,838.4196 270.3624,828.7796" fill="none" id="Admin-to-UC13" style="stroke:#181818;stroke-width:1;"/><polygon fill="#181818" points="276.22,827.48,266.5673,825.5243,271.3387,828.563,268.3,833.3344,276.22,827.48" style="stroke:#181818;stroke-width:1;"/></g><!--link Admin to UC14--><g class="link" data-entity-1="ent0004" data-entity-2="ent0024" data-link-type="dependency" data-source-line="62" id="lnk42"><path d="M153.15,862.59 C181.01,866.49 225.0681,872.6774 268.0281,878.6974" fill="none" id="Admin-to-UC14" style="stroke:#181818;stroke-width:1;"/><polygon fill="#181818" points="273.97,879.53,265.6122,874.3197,269.0184,878.8361,264.502,882.2423,273.97,879.53" style="stroke:#181818;stroke-width:1;"/></g><!--link Admin to UC15--><g class="link" data-entity-1="ent0004" data-entity-2="ent0025" data-link-type="dependency" data-source-line="63" id="lnk43"><path d="M153.35,892.65 C163.59,905.72 176.87,919.7 191.98,928.56 C221,945.56 251.4371,953.2842 282.2371,957.5642" fill="none" id="Admin-to-UC15" style="stroke:#181818;stroke-width:1;"/><polygon fill="#181818" points="288.18,958.39,279.8162,953.1893,283.2276,957.7018,278.7151,961.1132,288.18,958.39" style="stroke:#181818;stroke-width:1;"/></g><!--link Admin to UC16--><g class="link" data-entity-1="ent0004" data-entity-2="ent0026" data-link-type="dependency" data-source-line="64" id="lnk44"><path d="M136.54,821.01 C145.04,761.41 164.14,650.89 191.98,623.56 C211.2,604.69 232.0781,595.7345 258.2481,590.4645" fill="none" id="Admin-to-UC16" style="stroke:#181818;stroke-width:1;"/><polygon fill="#181818" points="264.13,589.28,254.5175,587.1354,259.2284,590.2671,256.0968,594.978,264.13,589.28" style="stroke:#181818;stroke-width:1;"/></g><!--link Admin to UC17--><g class="link" data-entity-1="ent0004" data-entity-2="ent0027" data-link-type="dependency" data-source-line="65" id="lnk45"><path d="M135.66,821.24 C141.67,784.44 156.36,729.93 191.98,698.56 C212.95,680.09 235.3479,671.313 262.3379,666.123" fill="none" id="Admin-to-UC17" style="stroke:#181818;stroke-width:1;"/><polygon fill="#181818" points="268.23,664.99,258.6366,662.7615,263.32,665.9342,260.1473,670.6175,268.23,664.99" style="stroke:#181818;stroke-width:1;"/></g><!--link Admin to UC18--><g class="link" data-entity-1="ent0004" data-entity-2="ent0028" data-link-type="dependency" data-source-line="66" id="lnk46"><path d="M148.81,821.14 C158.9,802.88 173.34,782.31 191.98,769.56 C217.33,752.21 243.7887,744.0585 272.8287,739.3085" fill="none" id="Admin-to-UC18" style="stroke:#181818;stroke-width:1;"/><polygon fill="#181818" points="278.75,738.34,269.2223,735.8453,273.8156,739.1471,270.5137,743.7403,278.75,738.34" style="stroke:#181818;stroke-width:1;"/></g><!--link Player to UC6--><g class="link" data-entity-1="ent0003" data-entity-2="ent0014" data-link-type="dependency" data-source-line="70" id="lnk47"><path d="M133,399.04 C138.21,528.95 157.48,945.92 191.98,994.56 C221.65,1036.37 275.0807,1053.8744 312.7307,1061.8644" fill="none" id="Player-to-UC6" style="stroke:#181818;stroke-width:1;"/><polygon fill="#181818" points="318.6,1063.11,310.6264,1057.3288,313.7089,1062.072,308.9657,1065.1545,318.6,1063.11" style="stroke:#181818;stroke-width:1;"/></g><!--link Admin to UC6--><g class="link" data-entity-1="ent0004" data-entity-2="ent0014" data-link-type="dependency" data-source-line="71" id="lnk48"><path d="M137.81,897.93 C144.45,927.6 157.62,967.97 182.98,994.56 C220.34,1033.73 276.1487,1052.019 313.9387,1060.889" fill="none" id="Admin-to-UC6" style="stroke:#181818;stroke-width:1;"/><polygon fill="#181818" points="319.78,1062.26,311.9322,1056.3093,314.9123,1061.1175,310.1041,1064.0976,319.78,1062.26" style="stroke:#181818;stroke-width:1;"/></g><!--link UC10 to UC11--><g class="link" data-entity-1="ent0019" data-entity-2="ent0020" data-link-type="dependency" data-source-line="74" id="lnk49"><path d="M406.74,389 C432.45,384.09 463.46,376.35 489.59,364.56 C564.26,330.86 635.2839,272.7317 670.7939,241.5117" fill="none" id="UC10-to-UC11" style="stroke:#181818;stroke-width:1;stroke-dasharray:7,7;"/><polygon fill="#181818" points="675.3,237.55,665.8997,240.4885,671.5449,240.8514,671.182,246.4966,675.3,237.55" style="stroke:#181818;stroke-width:1;"/><text fill="#000000" font-family="sans-serif" font-size="13" lengthAdjust="spacing" textLength="63.0068" x="498.59" y="320.6269">«include»</text></g><!--link UC10 to GMN50--><g class="link" data-entity-1="ent0019" data-entity-2="ent0051" data-link-type="association" data-source-line="75" id="lnk52"><path d="M415.26,396.8 C441.52,400.11 470.54,408.61 489.59,428.56 C645.15,591.43 688.77,1364.87 695.29,1501.05" fill="none" id="UC10-GMN50" style="stroke:#181818;stroke-width:1;stroke-dasharray:7,7;"/></g><?plantuml-src VLLHRzem47xFhpZrOMsbqWrAWQAk4gFhDAcJK1bxcFPo94UmQkp8TihOrly-Euwx6BBo0FdmvxlSv-_Ed5O6Z0J5yhM1Z2bA3PCYIOvXaXgfT8Bk1pwLf4tzFEEu8rM3IRPX5VspM9DY1aLAuve2A39F05G4kg2K8MU_qANG85TrsEeRhlzqEY5suvywWNin53adE9fAbKan_Ne7yvqsj3c2tmd0CRn_-S2iN7AMmaaLvnI-Iq6DPSjkXAkvapGbhNqiW59JYjgkVcEqXNjR21Cvp32d8q0DYsctXJPFfQAbH9N16tX0yMZtw9hVQ-5_V29XO6xGb85s4TCUA6UsHENUJfR2rAn-pBgNEHFrqkN1aYp3je5TUquEjF9dzRf6dZEJoY0_qEY3ablxErqZvoHo-uI6SgaOXRA6BTN_ez-IGSO3TnHpR-LMS8bPWt_7-4lagvWzBvSRPk2EOnuEwbrBxXafBGLoVsI1sNgcaZzH8td8s-srYkdT_ggMdZ93GOTAVa61UKD93IVJXyNjQKYwPuz5yOeotNvhx8MsjGVAdbki5PM1jzQIiW3NO9L30tdG8i-4MmsTvbgxdWxKuRwDDPb6UmJQgDBmsOqFt_6ejRGpefeFzH3eT6wgTckYNeGk8jIFq6M41YwJztAdcaOhs_XHpjhedZwCuIY6Lp6qFejnTm_tgg7g3ly_kRqnQlP53Finl8pX88R368vSuW_Ih0_7SefsD7CjWLTpuWoOd-BMyIibD_vKpkpsPMbWI_18L03zBEp0j5t6cNZKiBAtGChHxjh1YInSBSXFu-BZ5npu-oBbPKQsCxYlVysACQniuu9-CHHWQUJ6hgVMuJieYynE5Wr5Q5_jB9KuyU7ytAiEOxY-PZxupKqYfA7wThFtJSKSL-C1dknLb5MfGzmV8WuSP_yB?></g></svg>